<?xml version="1.0" encoding="utf-8"?>
<!-- Generator: Adobe Illustrator 19.2.0, SVG Export Plug-In . SVG Version: 6.00 Build 0)  -->
<svg version="1.1" id="Layer_1" xmlns="http://www.w3.org/2000/svg" xmlns:xlink="http://www.w3.org/1999/xlink" x="0px" y="0px"
	 viewBox="0 0 960 960" style="enable-background:new 0 0 960 960;" xml:space="preserve">
<style type="text/css">
	.st0{fill:#648912;}
	.st1{fill:#526B0D;}
	.st2{fill:#8FA833;}
	.st3{fill:#4A5B0B;}
	.st4{fill:#A26E3D;}
	.st5{fill:none;stroke:#A26E3D;stroke-width:30.5073;stroke-linecap:round;stroke-miterlimit:10;}
	.st6{fill:#283005;}
	.st7{fill:none;stroke:#648912;stroke-width:10.1691;stroke-linecap:round;stroke-miterlimit:10;}
</style>
<g id="Layer_1_1_">
	<g>
		<polygon class="st0" points="481,252.1 208.3,687.8 481,687.8 		"/>
		<polygon class="st1" points="481,252.1 750.2,687.8 481,687.8 		"/>
		<polygon class="st2" points="481,687.5 481,614.3 255.6,614.3 208.5,687.5 		"/>
		<polygon class="st3" points="750,687.5 706.4,614.3 556.6,614.3 590.3,687.5 		"/>
		<path class="st4" d="M758.9,718.7h-558c-8.6,0-15.6-7-15.6-15.6l0,0c0-8.6,7-15.6,15.6-15.6h557.9c8.6,0,15.6,7,15.6,15.6l0,0
			C774.5,711.7,767.5,718.7,758.9,718.7z"/>
		<line class="st5" x1="152.9" y1="667.7" x2="152.9" y2="708"/>
		<line class="st5" x1="807.1" y1="667.7" x2="807.1" y2="708"/>
		<polygon class="st6" points="481,449.8 590.3,687.5 369.7,687.5 		"/>
		<polygon class="st3" points="481,449.8 301.8,620.3 369.7,687.5 		"/>
		<polyline class="st7" points="490.6,241.3 164.6,681.4 131.6,681.4 		"/>
		<polyline class="st7" points="471.2,241.3 795.4,681.4 828.4,681.4 		"/>
	</g>
</g>
</svg>
