<?xml version="1.0" encoding="UTF-8"?>
<svg width="54px" height="67px" viewBox="0 0 54 67" version="1.1" xmlns="http://www.w3.org/2000/svg" xmlns:xlink="http://www.w3.org/1999/xlink">
    <!-- Generator: Sketch 51.3 (57544) - http://www.bohemiancoding.com/sketch -->
    <title>Group</title>
    <desc>Created with Sketch.</desc>
    <defs>
        <path d="M0.46770343,10.2819489 C0.46770343,5.15776271 3.58661992,1.76118233 3.58661992,1.76118233 L28.5602346,0.750383592 L8.04475189,18.8368878 L3.58661992,18.8511015 C3.58661992,18.8511015 0.46770343,15.406135 0.46770343,10.2819489 Z" id="path-1"></path>
        <path d="M19.5011284,0.652668769 L21,0.761182333 L21,7.7302021 L21,17.8511015 L0.00640815364,18.5216004 L19.5011284,0.652668769 Z" id="path-3"></path>
        <path d="M-3.41060513e-13,-1.59872116e-14 L49,-1.59872116e-14 L49,8.5634937 L49,21 L-3.41060513e-13,21 L-3.41060513e-13,-1.59872116e-14 Z" id="path-5"></path>
    </defs>
    <g id="Page-1" stroke="none" stroke-width="1" fill="none" fill-rule="evenodd">
        <g id="Linear-Camping-iconset" transform="translate(-711.000000, -130.000000)">
            <g id="Group" transform="translate(708.000000, 131.000000)">
                <g id="Shape" transform="translate(17.000000, 0.000000)" stroke="#434F5E">
                    <path d="M25.6484784,23.0887595 C25.6484784,18.3548766 24.3732905,15.9931589 23.0208551,13.4921411 C22.4046853,12.3516212 21.7692036,11.1710526 21.1952786,9.68402369 C21.1095821,9.4617239 20.8983583,9.3067525 20.6533388,9.28121414 C20.4046983,9.25567578 20.1669207,9.36943756 20.033548,9.57026192 C18.6304189,11.708519 17.0402059,13.0376744 16.1615152,13.6720704 C14.3449911,7.59684336 17.0758122,1.10545714 17.10478,1.03986999 C17.2091849,0.793773086 17.1434038,0.514011985 16.9412325,0.336984732 C16.7408717,0.158796644 16.4451585,0.122230359 16.2013459,0.242376724 C8.31244116,4.19908093 0.325769961,13.3145334 0.325769961,23.0887595 C0.326976954,29.8041867 6.00648146,35.2670736 12.9889347,35.2670736 C19.9677669,35.2670736 25.6484784,29.8041867 25.6484784,23.0887595 Z M15.1941105,14.8735341 C15.1941105,14.8735341 15.4005062,15.1875398 15.5815552,15.2537074 C15.7632076,15.3163924 15.9635684,15.301882 16.1331509,15.207274 C16.2333313,15.1532952 18.371519,13.952412 20.4342696,11.2308356 C20.9025828,12.2848733 21.3883974,13.1885829 21.8639526,14.0696562 C23.1952656,16.5335273 24.3443227,18.664239 24.3443227,23.0887595 C24.3443227,28.1082076 20.8072304,32.3452533 16.0052096,33.6169475 C12.9871244,34.4141653 12.3703008,34.1061388 9.96903874,33.6175279 C5.16882847,32.3458338 1.62992566,28.108788 1.62992566,23.0893399 C1.62992566,14.4213891 8.29856074,6.27175084 15.3280867,2.15775356 C12.9871244,10.0524986 15.1941105,14.8735341 15.1941105,14.8735341 Z" stroke-width="0.7" fill="#434F5E"></path>
                    <path d="M8.29406646,33.4387726 C8.29406646,33.4387726 3.96002274,26.6603138 8.62039438,18.4643517" id="Path-1066" stroke-width="1.5" stroke-linecap="round" stroke-linejoin="round"></path>
                </g>
                <g id="Rectangle-312-+-Rectangle-313-+-Rectangle-313-Copy-2" transform="translate(29.898509, 48.079574) scale(-1, 1) rotate(-340.000000) translate(-29.898509, -48.079574) translate(1.898509, 38.579574)">
                    <g id="Rectangle-312-Copy" transform="translate(-0.000000, 0.000000)">
                        <mask id="mask-2" fill="white">
                            <use xlink:href="#path-1"></use>
                        </mask>
                        <g id="Mask"></g>
                        <path d="M3.69419918,10.2073261 C3.69419918,12.3101344 4.03787825,13.9635944 4.60056939,15.2199609 C4.9177501,15.9281562 5.21249265,16.3329428 5.3679614,16.4796499 L5.45595037,16.5626801 L5.52160072,16.6642976 C5.921824,17.2837867 7.02785325,17.8511015 7.82896997,17.8511015 L51.0033926,17.8511015 C51.5499607,17.8511015 52,17.4015044 52,16.8521731 L52,3.76690637 C52,3.21291081 51.5509849,2.76118233 51.0033926,2.76118233 L7.82896997,2.76118233 C7.04874933,2.76118233 5.92682537,3.32781706 5.47151442,3.95153314 L5.32185294,4.11491782 C5.17916549,4.23960946 4.89627195,4.60948706 4.5875592,5.28083867 C4.03365754,6.48539783 3.69419918,8.10674693 3.69419918,10.2073261 Z" stroke="#434F5E" stroke-width="2" mask="url(#mask-2)"></path>
                    </g>
                    <ellipse id="Oval-61" stroke="#434F5E" stroke-width="2" cx="51.1641854" cy="10.4095544" rx="3.18986202" ry="7.40955437"></ellipse>
                </g>
                <g id="Rectangle-312-+-Rectangle-313-+-Rectangle-313-Copy-4" transform="translate(16.145140, 54.149568) scale(-1, 1) rotate(-340.000000) translate(-16.145140, -54.149568) translate(3.145140, 44.649568)">
                    <g id="Rectangle-312-Copy" transform="translate(-0.000000, 0.000000)">
                        <mask id="mask-4" fill="white">
                            <use xlink:href="#path-3"></use>
                        </mask>
                        <g id="Mask"></g>
                        <path d="M-26.3058008,9.20732609 C-26.3058008,11.3101344 -25.9621217,12.9635944 -25.3994306,14.2199609 C-25.0822499,14.9281562 -24.7875073,15.3329428 -24.6320386,15.4796499 L-24.5440496,15.5626801 L-24.4783993,15.6642976 C-24.078176,16.2837867 -22.9721467,16.8511015 -22.17103,16.8511015 L21.0033926,16.8511015 C21.5499607,16.8511015 22,16.4015044 22,15.8521731 L22,2.76690637 C22,2.21291081 21.5509849,1.76118233 21.0033926,1.76118233 L-22.17103,1.76118233 C-22.9512507,1.76118233 -24.0731746,2.32781706 -24.5284856,2.95153314 L-24.6781471,3.11491782 C-24.8208345,3.23960946 -25.1037281,3.60948706 -25.4124408,4.28083867 C-25.9663425,5.48539783 -26.3058008,7.10674693 -26.3058008,9.20732609 Z" stroke="#434F5E" stroke-width="2" mask="url(#mask-4)"></path>
                    </g>
                    <ellipse id="Oval-61" stroke="#434F5E" stroke-width="2" cx="21.1641854" cy="9.40955437" rx="3.18986202" ry="7.40955437"></ellipse>
                </g>
                <g id="Rectangle-312-+-Rectangle-313-+-Rectangle-313-Copy-3" transform="translate(30.144377, 49.365765) rotate(-339.000000) translate(-30.144377, -49.365765) translate(2.644377, 38.865765)">
                    <g id="Rectangle-312" transform="translate(-0.000000, 0.000000)">
                        <mask id="mask-6" fill="white">
                            <use xlink:href="#path-5"></use>
                        </mask>
                        <g id="Mask"></g>
                        <path d="M2.462283,10.326397 C2.462283,12.476849 2.80529695,14.1748955 3.36740268,15.4709515 C3.6851061,16.2034852 3.98114026,16.6250863 4.13881949,16.7801461 L4.22280554,16.8627369 L4.28530212,16.9625822 C4.6638467,17.5673496 5.7604957,18.1388686 6.55032737,18.1388686 L49.0229595,18.1388686 C49.5776734,18.1388686 50.0195362,17.6962632 50.0195362,17.1438997 L50.0195362,3.70925216 C50.0195362,3.16151908 49.5730439,2.715414 49.0229595,2.715414 L6.55032737,2.715414 C5.76826391,2.715414 4.66975862,3.28584724 4.21976785,3.92379858 L4.0733646,4.08906798 C3.93209129,4.21683441 3.65201406,4.59581582 3.34629511,5.28387046 C2.79810813,6.5176265 2.462283,8.17762737 2.462283,10.326397 Z" stroke="#434F5E" stroke-width="2" mask="url(#mask-6)"></path>
                    </g>
                    <ellipse id="Oval-61" stroke="#434F5E" stroke-width="2" cx="49.6104258" cy="10.399097" rx="3.65996884" ry="7.60090295"></ellipse>
                </g>
                <rect id="Rectangle-348" stroke="#434F5E" stroke-width="0.5" fill="#434F5E" x="7.71296804" y="38.536402" width="9.7249182" height="1.13698056" rx="0.568490278"></rect>
                <rect id="Rectangle-348-Copy" stroke="#434F5E" stroke-width="0.5" fill="#434F5E" x="11.8075699" y="54.8289521" width="7.95886389" height="1.13698056" rx="0.568490278"></rect>
                <rect id="Rectangle-348-Copy-4" stroke="#434F5E" stroke-width="0.5" fill="#434F5E" x="39.1101327" y="42.2605857" width="7.95886389" height="1.13698056" rx="0.568490278"></rect>
                <rect id="Rectangle-348-Copy-2" stroke="#434F5E" stroke-width="0.5" fill="#434F5E" x="30.1125354" y="49.6698438" width="4.54792222" height="1.13698056" rx="0.568490278"></rect>
                <rect id="Rectangle-348-Copy-3" stroke="#434F5E" stroke-width="0.5" fill="#434F5E" x="35.5708849" y="53.1661771" width="11.3698056" height="1.13698056" rx="0.568490278"></rect>
            </g>
        </g>
    </g>
</svg>