<?xml version="1.0" encoding="UTF-8"?>
<svg width="46px" height="64px" viewBox="0 0 46 64" version="1.1" xmlns="http://www.w3.org/2000/svg" xmlns:xlink="http://www.w3.org/1999/xlink">
    <!-- Generator: Sketch 51.3 (57544) - http://www.bohemiancoding.com/sketch -->
    <title>douche + Group</title>
    <desc>Created with Sketch.</desc>
    <defs></defs>
    <g id="Page-1" stroke="none" stroke-width="1" fill="none" fill-rule="evenodd">
        <g id="Linear-Camping-iconset" transform="translate(-584.000000, -132.000000)">
            <g id="douche-+-Group" transform="translate(584.000000, 130.000000)">
                <g id="douche" transform="translate(0.727929, 2.397152)">
                    <rect id="Rectangle-352-Copy" fill="#434F5E" x="24.2720711" y="0" width="2.05910013" height="4.59534769"></rect>
                    <rect id="Rectangle-352-Copy-2" fill="#434F5E" x="18.2720711" y="0" width="2.05910013" height="4.59534769"></rect>
                    <g id="Oval-75-+-Oval-75-Copy" transform="translate(0.000000, 4.000000)" stroke="#434F5E" stroke-width="2">
                        <path d="M0.705647935,25.6934487 C0.627605373,24.9097241 0.58759975,24.1141459 0.58759975,23.308777 C0.58759975,10.7653347 10.291913,0.596865536 22.2627901,0.596865536 C34.2336671,0.596865536 43.9379804,10.7653347 43.9379804,23.308777 C43.9379804,24.1141459 43.8979748,24.9097241 43.8199322,25.6934487 L0.705647935,25.6934487 Z" id="Oval-75"></path>
                    </g>
                    <path d="M19.2760911,9.48029241 C19.2760911,9.48029241 14.0808535,9.81646262 9.33537587,16.1044174" id="Path-1190" stroke="#434F5E" stroke-width="1.5" stroke-linecap="round"></path>
                </g>
                <g id="Group" transform="translate(5.476190, 36.142857)" fill="#434F5E" stroke="#FFFFFF">
                    <path d="M2.24374945,8.38735607 C1.22735095,8.38735607 0.404762715,9.30869613 0.404762715,10.4446513 L0.404762715,11.1313785 C0.404762715,12.2687768 1.22735095,13.1899107 2.24374945,13.1899107 C3.26125333,13.1899107 4.08402579,12.2685706 4.08402579,11.1313785 L4.08402579,10.4446513 C4.08402579,9.30869613 3.2610691,8.38735607 2.24374945,8.38735607 L2.24374945,8.38735607 Z" id="Shape"></path>
                    <path d="M2.24374945,0.838717416 C1.22735095,0.838717416 0.404762715,1.76129445 0.404762715,2.89745579 L0.404762715,3.58335831 C0.404762715,4.72137512 1.22735095,5.64271518 2.24374945,5.64271518 C3.26125333,5.64271518 4.08402579,4.72137512 4.08402579,3.58335831 L4.08402579,2.89745579 C4.08402579,1.76150061 3.2610691,0.838717416 2.24374945,0.838717416 L2.24374945,0.838717416 Z" id="Shape"></path>
                    <path d="M2.24374945,15.9353762 C1.22735095,15.9353762 0.404762715,16.8565101 0.404762715,17.9926715 L0.404762715,18.6787802 C0.404762715,19.816797 1.22735095,20.7373124 2.24374945,20.7373124 C3.26125333,20.7373124 4.08402579,19.816797 4.08402579,18.6787802 L4.08402579,17.9926715 C4.08402579,16.8565101 3.2610691,15.9353762 2.24374945,15.9353762 L2.24374945,15.9353762 Z" id="Shape"></path>
                    <path d="M9.88359526,8.38735607 C8.86719676,8.38735607 8.04331891,9.30869613 8.04331891,10.4446513 L8.04331891,11.1313785 C8.04331891,12.2687768 8.86719676,13.1899107 9.88359526,13.1899107 C10.8999938,13.1899107 11.7238716,12.2685706 11.7238716,11.1313785 L11.7238716,10.4446513 C11.7238716,9.30869613 10.8999938,8.38735607 9.88359526,8.38735607 L9.88359526,8.38735607 Z" id="Shape"></path>
                    <path d="M9.88359526,15.9353762 C8.86719676,15.9353762 8.04331891,16.8565101 8.04331891,17.9926715 L8.04331891,18.6787802 C8.04331891,19.816797 8.86719676,20.7373124 9.88359526,20.7373124 C10.8999938,20.7373124 11.7238716,19.816797 11.7238716,18.6787802 L11.7238716,17.9926715 C11.7238716,16.8565101 10.8999938,15.9353762 9.88359526,15.9353762 L9.88359526,15.9353762 Z" id="Shape"></path>
                    <path d="M9.88359526,0.838717416 C8.86719676,0.838717416 8.04331891,1.76129445 8.04331891,2.89745579 L8.04331891,3.58335831 C8.04331891,4.72137512 8.86719676,5.64271518 9.88359526,5.64271518 C10.8999938,5.64271518 11.7238716,4.72137512 11.7238716,3.58335831 L11.7238716,2.89745579 C11.7238716,1.76150061 10.8999938,0.838717416 9.88359526,0.838717416 L9.88359526,0.838717416 Z" id="Shape"></path>
                    <path d="M17.5236253,15.9353762 C16.5072268,15.9353762 15.6846386,16.8565101 15.6846386,17.9926715 L15.6846386,18.6787802 C15.6846386,19.816797 16.5072268,20.7373124 17.5236253,20.7373124 C18.5400238,20.7373124 19.362612,19.816797 19.362612,18.6787802 L19.362612,17.9926715 C19.362612,16.8565101 18.5400238,15.9353762 17.5236253,15.9353762 L17.5236253,15.9353762 Z" id="Shape"></path>
                    <path d="M17.5236253,8.38735607 C16.5072268,8.38735607 15.6846386,9.30869613 15.6846386,10.4446513 L15.6846386,11.1313785 C15.6846386,12.2687768 16.5072268,13.1899107 17.5236253,13.1899107 C18.5400238,13.1899107 19.362612,12.2685706 19.362612,11.1313785 L19.362612,10.4446513 C19.362612,9.30869613 18.5400238,8.38735607 17.5236253,8.38735607 L17.5236253,8.38735607 Z" id="Shape"></path>
                    <path d="M17.5236253,0.838717416 C16.5072268,0.838717416 15.6846386,1.76129445 15.6846386,2.89745579 L15.6846386,3.58335831 C15.6846386,4.72137512 16.5072268,5.64271518 17.5236253,5.64271518 C18.5400238,5.64271518 19.362612,4.72137512 19.362612,3.58335831 L19.362612,2.89745579 C19.362612,1.76150061 18.5400238,0.838717416 17.5236253,0.838717416 L17.5236253,0.838717416 Z" id="Shape"></path>
                    <path d="M25.1636553,0.838717416 C24.1472568,0.838717416 23.323379,1.76129445 23.323379,2.89745579 L23.323379,3.58335831 C23.323379,4.72137512 24.1472568,5.64271518 25.1636553,5.64271518 C26.1800538,5.64271518 27.0039317,4.72137512 27.0039317,3.58335831 L27.0039317,2.89745579 C27.0037474,1.76150061 26.1800538,0.838717416 25.1636553,0.838717416 L25.1636553,0.838717416 Z" id="Shape"></path>
                    <path d="M25.1636553,15.9353762 C24.1472568,15.9353762 23.323379,16.8565101 23.323379,17.9926715 L23.323379,18.6787802 C23.323379,19.816797 24.1472568,20.7373124 25.1636553,20.7373124 C26.1800538,20.7373124 27.0039317,19.816797 27.0039317,18.6787802 L27.0039317,17.9926715 C27.0037474,16.8565101 26.1800538,15.9353762 25.1636553,15.9353762 L25.1636553,15.9353762 Z" id="Shape"></path>
                    <path d="M25.1636553,8.38735607 C24.1472568,8.38735607 23.323379,9.30869613 23.323379,10.4446513 L23.323379,11.1313785 C23.323379,12.2687768 24.1472568,13.1899107 25.1636553,13.1899107 C26.1800538,13.1899107 27.0039317,12.2685706 27.0039317,11.1313785 L27.0039317,10.4446513 C27.0037474,9.30869613 26.1800538,8.38735607 25.1636553,8.38735607 L25.1636553,8.38735607 Z" id="Shape"></path>
                    <path d="M32.8035011,8.38735607 C31.7859973,8.38735607 30.9632248,9.30869613 30.9632248,10.4446513 L30.9632248,11.1313785 C30.9632248,12.2687768 31.7859973,13.1899107 32.8035011,13.1899107 C33.8198996,13.1899107 34.6424879,12.2685706 34.6424879,11.1313785 L34.6424879,10.4446513 C34.6426721,9.30869613 33.8200839,8.38735607 32.8035011,8.38735607 L32.8035011,8.38735607 Z" id="Shape"></path>
                    <path d="M32.8035011,15.9353762 C31.7859973,15.9353762 30.9632248,16.8565101 30.9632248,17.9926715 L30.9632248,18.6787802 C30.9632248,19.816797 31.7859973,20.7373124 32.8035011,20.7373124 C33.8198996,20.7373124 34.6424879,19.816797 34.6424879,18.6787802 L34.6424879,17.9926715 C34.6426721,16.8565101 33.8200839,15.9353762 32.8035011,15.9353762 L32.8035011,15.9353762 Z" id="Shape"></path>
                    <path d="M32.8035011,0.838717416 C31.7859973,0.838717416 30.9632248,1.76129445 30.9632248,2.89745579 L30.9632248,3.58335831 C30.9632248,4.72137512 31.7859973,5.64271518 32.8035011,5.64271518 C33.8198996,5.64271518 34.6424879,4.72137512 34.6424879,3.58335831 L34.6424879,2.89745579 C34.6426721,1.76150061 33.8200839,0.838717416 32.8035011,0.838717416 L32.8035011,0.838717416 Z" id="Shape"></path>
                    <path d="M2.24374945,23.8387174 C1.22735095,23.8387174 0.404762715,24.7612944 0.404762715,25.8974558 L0.404762715,26.5833583 C0.404762715,27.7213751 1.22735095,28.6427152 2.24374945,28.6427152 C3.26125333,28.6427152 4.08402579,27.7213751 4.08402579,26.5833583 L4.08402579,25.8974558 C4.08402579,24.7615006 3.2610691,23.8387174 2.24374945,23.8387174 L2.24374945,23.8387174 Z" id="Shape"></path>
                    <path d="M9.88359526,23.8387174 C8.86719676,23.8387174 8.04331891,24.7612944 8.04331891,25.8974558 L8.04331891,26.5833583 C8.04331891,27.7213751 8.86719676,28.6427152 9.88359526,28.6427152 C10.8999938,28.6427152 11.7238716,27.7213751 11.7238716,26.5833583 L11.7238716,25.8974558 C11.7238716,24.7615006 10.8999938,23.8387174 9.88359526,23.8387174 L9.88359526,23.8387174 Z" id="Shape"></path>
                    <path d="M17.5236253,23.8387174 C16.5072268,23.8387174 15.6846386,24.7612944 15.6846386,25.8974558 L15.6846386,26.5833583 C15.6846386,27.7213751 16.5072268,28.6427152 17.5236253,28.6427152 C18.5400238,28.6427152 19.362612,27.7213751 19.362612,26.5833583 L19.362612,25.8974558 C19.362612,24.7615006 18.5400238,23.8387174 17.5236253,23.8387174 L17.5236253,23.8387174 Z" id="Shape"></path>
                    <path d="M25.1636553,23.8387174 C24.1472568,23.8387174 23.323379,24.7612944 23.323379,25.8974558 L23.323379,26.5833583 C23.323379,27.7213751 24.1472568,28.6427152 25.1636553,28.6427152 C26.1800538,28.6427152 27.0039317,27.7213751 27.0039317,26.5833583 L27.0039317,25.8974558 C27.0037474,24.7615006 26.1800538,23.8387174 25.1636553,23.8387174 L25.1636553,23.8387174 Z" id="Shape"></path>
                    <path d="M32.8035011,23.8387174 C31.7859973,23.8387174 30.9632248,24.7612944 30.9632248,25.8974558 L30.9632248,26.5833583 C30.9632248,27.7213751 31.7859973,28.6427152 32.8035011,28.6427152 C33.8198996,28.6427152 34.6424879,27.7213751 34.6424879,26.5833583 L34.6424879,25.8974558 C34.6426721,24.7615006 33.8200839,23.8387174 32.8035011,23.8387174 L32.8035011,23.8387174 Z" id="Shape"></path>
                </g>
                <rect id="Rectangle-69" fill="#434F5E" x="1.0952381" y="25.1904762" width="43.8095238" height="2"></rect>
                <rect id="Rectangle-101" x="21" y="0" width="4" height="7"></rect>
            </g>
        </g>
    </g>
</svg>