<?xml version="1.0" encoding="UTF-8"?>
<svg width="53px" height="59px" viewBox="0 0 53 59" version="1.1" xmlns="http://www.w3.org/2000/svg" xmlns:xlink="http://www.w3.org/1999/xlink">
    <!-- Generator: Sketch 51.3 (57544) - http://www.bohemiancoding.com/sketch -->
    <title>barbecue4</title>
    <desc>Created with Sketch.</desc>
    <defs></defs>
    <g id="Page-1" stroke="none" stroke-width="1" fill="none" fill-rule="evenodd">
        <g id="Linear-Camping-iconset" transform="translate(-319.000000, -394.000000)" fill="#434F5E" stroke="#FFFFFF">
            <g id="barbecue4" transform="translate(320.000000, 395.000000)">
                <g id="Group">
                    <path d="M50.9905474,20.9597143 L50.9905474,19.3822008 L6.15671121,19.3822008 L6.15671121,20.9597143 C6.15671121,21.7286641 6.19671983,22.4890309 6.27278017,23.238834 L1.72564655,23.238834 C-0.387336207,23.238834 -0.387336207,26.5184247 1.72564655,26.5184247 L6.8810431,26.5184247 C8.48820259,32.7956873 12.7304353,38.0165792 18.3696724,40.9169768 L14.2421897,53.445973 C13.9698233,54.2736834 14.4187112,55.1652162 15.2454828,55.4385521 C15.4092543,55.4918108 15.5752241,55.5175598 15.7389957,55.5175598 C16.4006767,55.5175598 17.0177328,55.0974324 17.2364612,54.4338996 L19.0098103,49.0508108 L33.4054397,49.0508108 C33.2680474,49.5653514 33.1880302,50.1025598 33.1880302,50.6593552 C33.1880302,54.1064247 35.9897328,56.9113089 39.4328922,56.9113089 C42.8760517,56.9113089 45.6766552,54.1064247 45.6766552,50.6593552 C45.6766552,47.3397104 43.0769741,44.6250579 39.8103362,44.4278687 L38.6714095,40.9664942 C45.9672672,37.2606139 50.9905474,29.6947992 50.9905474,20.9597143 L50.9905474,20.9597143 Z M34.7710086,39.1999344 C32.8226767,39.8654479 30.7431078,40.2455212 28.5731897,40.2455212 C26.3628233,40.2455212 24.2467629,39.8520232 22.2687543,39.1629614 C21.2621638,38.8125985 20.2942629,38.3854286 19.3709871,37.8801313 C13.8220991,34.8428456 9.9107069,29.1659537 9.37146983,22.5363475 L47.7738103,22.5363475 C47.2321552,29.2060077 43.2792155,34.9145907 37.6744914,37.9373514 C36.7509957,38.4367066 35.7784784,38.8557336 34.7710086,39.1999344 L34.7710086,39.1999344 Z M42.5274052,50.6593552 C42.5274052,51.0968687 42.4350776,51.5119344 42.2708664,51.8889266 C41.8101078,52.9479382 40.7749397,53.6924595 39.5623707,53.7428571 C39.5192845,53.7459382 39.4781767,53.7562819 39.4353103,53.7562819 C37.7301078,53.7562819 36.3429957,52.3667143 36.3429957,50.6595753 C36.3429957,50.068888 36.5175388,49.521556 36.8057328,49.0510309 C37.0365517,48.6740386 37.3381552,48.3443629 37.7035086,48.0978764 C38.1979009,47.7609382 38.7929741,47.563749 39.4353103,47.563749 C39.5953448,47.563749 39.7503233,47.5883977 39.9050819,47.6119459 C40.2970345,47.6715869 40.6612888,47.8062741 40.9905905,47.9981815 C41.9055129,48.5371506 42.5274052,49.5222162 42.5274052,50.6593552 L42.5274052,50.6593552 Z M36.6977974,45.0493668 C36.2300043,45.2782471 35.7940862,45.5617066 35.4010345,45.8957838 L20.0498147,45.8957838 L21.281069,42.1579923 C23.5705733,42.9500502 26.0172543,43.4007683 28.5725302,43.4007683 C31.0869181,43.4007683 33.4990862,42.9663359 35.7582543,42.1969459 L36.6977974,45.0493668 L36.6977974,45.0493668 Z" id="Shape"></path>
                    <path d="M34.9352198,32.572749 C34.0570086,33.1385676 34.0198578,34.1236332 34.4221422,34.8314015 C34.8314612,35.5495135 35.6920862,35.9826255 36.5887629,35.4044826 C36.6503147,35.3653089 36.7057112,35.3212934 36.7663836,35.2810193 C39.8164914,33.2699537 42.1721638,30.5572819 43.9101207,27.3461351 C44.9178103,25.4867027 42.0879698,23.8310618 41.0826983,25.6904942 C39.5755603,28.474471 37.6107414,30.8493243 34.9352198,32.572749 Z" id="Shape" stroke-width="1.5"></path>
                    <path d="M21.5958664,14.9280579 C22.2074267,12.9359189 22.0328836,11.0661429 21.4173664,9.09821236 C20.6615991,6.68330502 19.4182543,4.72373745 21.0665216,2.38123552 C22.2863448,0.648127413 19.4446336,-0.988366795 18.2373405,0.726034749 C16.9533276,2.54981467 16.6825,4.40418533 17.1129224,6.56776448 C17.6350129,9.18734363 19.2859181,11.2857799 18.4358448,14.0550116 C17.8148319,16.0830232 20.9783707,16.9430849 21.5958664,14.9280579 L21.5958664,14.9280579 Z" id="Shape" stroke-width="1.5"></path>
                    <path d="M30.3335733,14.9280579 C30.9449138,12.9359189 30.7705905,11.0661429 30.1550733,9.09821236 C29.3999655,6.68330502 28.1564009,4.72373745 29.8042284,2.38123552 C31.0240517,0.648127413 28.1821207,-0.988366795 26.9750474,0.726034749 C25.6910345,2.54981467 25.4202069,4.40418533 25.851069,6.56776448 C26.3727198,9.18734363 28.0229655,11.2857799 27.1735517,14.0550116 C26.5518793,16.0830232 29.7149784,16.9430849 30.3335733,14.9280579 L30.3335733,14.9280579 Z" id="Shape" stroke-width="1.5"></path>
                    <path d="M34.6199914,0.726034749 C33.3364181,2.54981467 33.0647112,4.40418533 33.4955733,6.56776448 C34.0187629,9.18734363 35.668569,11.2857799 34.8191552,14.0550116 C34.1974828,16.0830232 37.3594828,16.9422046 37.9780776,14.9269575 C38.5894181,12.9348185 38.414875,11.0650425 37.7984784,9.09711197 C37.0433707,6.68242471 35.8000259,4.72263707 37.4476336,2.38013514 C38.6683362,0.647907336 35.8264052,-0.987266409 34.6199914,0.726034749 L34.6199914,0.726034749 Z" id="Shape" stroke-width="1.5"></path>
                </g>
            </g>
        </g>
    </g>
</svg>