<?xml version="1.0" encoding="UTF-8"?>
<svg width="1200px" height="801px" viewBox="0 0 1200 801" version="1.1" xmlns="http://www.w3.org/2000/svg" xmlns:xlink="http://www.w3.org/1999/xlink">
    <!-- Generator: Sketch 51.3 (57544) - http://www.bohemiancoding.com/sketch -->
    <title>Bathing spot</title>
    <desc>Created with Sketch.</desc>
    <defs>
        <path d="M183.684413,22.3610708 C176.172874,25.9115634 167.945951,25.5170642 160.792105,22.3610708 L160.792105,22.3610708 C153.638259,19.2050773 145.411336,18.8105782 137.899798,22.3610708 L137.899798,22.3610708 C130.388259,25.9115634 122.161336,25.5170642 115.00749,22.3610708 C122.161336,25.5170642 130.388259,25.9115634 137.899798,22.3610708 L137.899798,22.3610708 C145.411336,18.8105782 153.638259,19.2050773 160.792105,22.3610708 L160.792105,22.3610708 C167.945951,25.5170642 175.815182,25.5170642 183.684413,22.3610708 L183.684413,22.3610708 Z" id="path-1"></path>
        <path d="M63.3488915,95.9278671 C71.2976094,99.0838605 80.438635,99.4783597 88.7847889,95.9278671 C97.1309427,92.3773745 106.271968,92.7718736 114.220686,95.9278671 C115.015558,96.3223663 115.81043,96.3223663 116.207866,96.7168654 L116.207866,63.5789344 L172.473434,15.2464221 C181.60189,7.87819537 173.952036,-2.4477341 166.568672,1.83345 L110.246327,36.3584911 L99.5155581,32.0190001 L98.3232504,25.7070132 C95.5411992,28.4685075 91.9642761,29.652005 88.387353,29.652005 C84.8104299,29.652005 81.2335068,28.0740083 78.4514556,25.312514 L77.2591479,31.6245009 C73.6822248,33.2024976 69.7078658,34.7804943 66.5283786,35.9639919 L10.1338726,2.76560936 C3.44962402,-0.843305846 -4.72410891,7.87819536 3.44962406,15.9086753 L61.7591479,63.5789344 L61.7591479,95.1388687 C62.1565838,95.5333679 62.9514556,95.5333679 63.3488915,95.9278671 Z" id="path-2"></path>
        <polygon id="path-4" points="0 17.7142857 11.8095238 0 35.4285714 14.7619048 47.2380952 11.8095238 50.1904762 8.85714286 70.8571429 8.85714286 73.8095238 11.8095238 82.6666667 17.7142857 106.285714 2.95238095 118.095238 20.6666667 88.5714286 44.2857143 88.5714286 79.7142857 76.7619048 73.8095238 62 76.7619048 41.3333333 79.7142857 32.4761905 73.8095238 32.4761905 41.3333333"></polygon>
    </defs>
    <g id="Bathing-spot" stroke="none" stroke-width="1" fill="none" fill-rule="evenodd">
        <rect fill="#FFFFFF" x="0" y="0" width="1200" height="801"></rect>
        <g id="Swim-Linear-+-Swim-Full-+-Swim-Colored" transform="translate(166.000000, 308.000000)">
            <g id="Swim-Linear" transform="translate(0.000000, 1.957895)" stroke="#47576B">
                <path d="M69.5805668,142.414204 C62.4267206,139.25821 54.1997976,138.863711 46.6882591,142.414204 C39.1767206,145.964696 30.9497976,145.570197 23.7959514,142.414204 L23.7959514,142.414204 C16.6421053,139.25821 8.41518219,138.863711 0.903643725,142.414204 C8.41518219,138.863711 16.6421053,139.25821 23.7959514,142.414204 L23.7959514,142.414204 C30.9497976,145.570197 39.1767206,145.964696 46.6882591,142.414204 C54.1997976,138.863711 62.4267206,138.863711 69.5805668,142.414204 L69.5805668,142.414204 Z" id="Shape" stroke-width="5" stroke-linecap="round" stroke-linejoin="round"></path>
                <path d="M183.684413,142.414204 C176.172874,145.964696 167.945951,145.570197 160.792105,142.414204 L160.792105,142.414204 C153.638259,139.25821 145.411336,138.863711 137.899798,142.414204 L137.899798,142.414204 C130.388259,145.964696 122.161336,145.570197 115.00749,142.414204 C122.161336,145.570197 130.388259,145.964696 137.899798,142.414204 L137.899798,142.414204 C145.411336,138.863711 153.638259,139.25821 160.792105,142.414204 L160.792105,142.414204 C167.945951,145.570197 175.815182,145.570197 183.684413,142.414204 L183.684413,142.414204 Z" id="Shape" stroke-width="5" stroke-linecap="round" stroke-linejoin="round"></path>
                <path d="M144.582398,179.891626 C136.236244,183.442118 127.095219,183.047619 119.146501,179.891626 L119.146501,179.891626 C111.197783,176.735632 102.056757,176.341133 93.7106034,179.891626 C85.3644496,183.442118 76.2234239,183.047619 68.274706,179.891626 L68.274706,179.891626 C60.325988,176.735632 51.1849624,176.341133 42.8388086,179.891626 C51.1849624,176.341133 60.325988,176.735632 68.274706,179.891626 L68.274706,179.891626 C76.2234239,183.047619 85.3644496,183.442118 93.7106034,179.891626 C102.056757,176.341133 111.197783,176.735632 119.146501,179.891626 L119.146501,179.891626 C127.095219,183.047619 136.236244,183.442118 144.582398,179.891626 L144.582398,179.891626 Z" id="Shape" stroke-width="5" stroke-linecap="round" stroke-linejoin="round"></path>
                <path d="M93.3415558,160.128489 C85.8300174,163.678982 77.6030943,163.284483 70.4492481,160.128489 L70.4492481,160.128489 C63.295402,156.972496 55.0684789,156.577997 47.5569404,160.128489 L47.5569404,160.128489 C40.045402,163.678982 31.8184789,163.284483 24.6646327,160.128489 C31.8184789,163.284483 40.045402,163.678982 47.5569404,160.128489 L47.5569404,160.128489 C55.0684789,156.577997 63.295402,156.972496 70.4492481,160.128489 L70.4492481,160.128489 C77.6030943,163.284483 85.472325,163.284483 93.3415558,160.128489 L93.3415558,160.128489 Z" id="Shape-Copy" stroke-width="5" stroke-linecap="round" stroke-linejoin="round"></path>
                <path d="M136.122691,160.128489 C143.63423,156.577997 151.861153,156.972496 159.014999,160.128489 C151.861153,156.972496 143.991922,156.577997 136.122691,160.128489 L136.122691,160.128489 Z" id="Shape" stroke-width="5" stroke-linecap="round" stroke-linejoin="round"></path>
                <path d="M183.684413,123.478243 C176.172874,127.028736 167.945951,126.634236 160.792105,123.478243 L160.792105,123.478243 C153.638259,120.32225 145.411336,119.92775 137.899798,123.478243 L137.899798,123.478243 C130.388259,127.028736 122.161336,126.634236 115.00749,123.478243 L115.00749,123.478243 C107.853644,120.32225 99.6267206,119.92775 92.1151822,123.478243 C84.6036437,127.028736 76.3767206,126.634236 69.2228745,123.478243 L69.2228745,123.478243 C62.0690283,120.32225 53.8421053,119.92775 46.3305668,123.478243 C38.8190283,127.028736 30.5921053,126.634236 23.4382591,123.478243 L23.4382591,123.478243 C16.284413,120.32225 8.05748988,119.92775 0.545951417,123.478243 C8.05748988,119.92775 16.284413,120.32225 23.4382591,123.478243 L23.4382591,123.478243 C30.5921053,126.634236 38.8190283,127.028736 46.3305668,123.478243 C53.8421053,119.92775 62.0690283,120.32225 69.2228745,123.478243 L69.2228745,123.478243 C76.3767206,126.634236 84.6036437,127.028736 92.1151822,123.478243 C99.6267206,119.92775 107.853644,120.32225 115.00749,123.478243 L115.00749,123.478243 C122.161336,126.634236 130.388259,127.028736 137.899798,123.478243 L137.899798,123.478243 C145.411336,119.92775 153.638259,120.32225 160.792105,123.478243 L160.792105,123.478243 C167.945951,126.634236 175.815182,127.028736 183.684413,123.478243 L183.684413,123.478243 Z" id="Shape" stroke-width="5" stroke-linecap="round" stroke-linejoin="round"></path>
                <path d="M113.979834,23.2754516 L113.979834,11.4404762 C113.979834,6.70648604 110.005475,2.76149425 105.236244,2.76149425 C104.043937,2.76149425 102.851629,3.15599343 101.659321,3.55049261 C98.8772701,1.18349754 94.9029111,0 90.9285521,0 C81.3900906,0 73.8388086,7.4954844 73.8388086,16.9634647 L73.8388086,22.8809524 C71.0567573,23.6699507 69.4670137,26.0369458 69.4670137,29.1929392 C69.4670137,34.7159278 72.249065,39.4499179 75.825988,39.4499179 C79.0054752,49.7068966 85.7618855,56.4133826 93.7106034,56.4133826 C101.659321,56.4133826 108.415732,49.3123974 111.595219,39.4499179 C115.172142,39.4499179 117.954193,34.7159278 117.954193,29.1929392 C118.351629,26.8259442 116.36445,24.0644499 113.979834,23.2754516 L113.979834,23.2754516 Z" id="Shape" stroke-width="5"></path>
                <path d="M113.979834,23.2754516 C109.210603,23.2754516 105.236244,19.3304598 105.236244,14.5964696 L105.236244,14.5964696 C100.069578,20.1194581 92.5182957,23.2754516 84.5695778,23.2754516 L84.5695778,23.2754516 L74.2362445,23.2754516 L84.5695778,23.2754516 L84.5695778,23.2754516 C92.5182957,23.2754516 100.069578,20.1194581 105.236244,14.5964696 L105.236244,14.5964696 C105.236244,19.3304598 109.210603,23.2754516 113.979834,23.2754516 L113.979834,23.2754516 Z" id="Shape" stroke-width="4.5" stroke-linecap="round" stroke-linejoin="round"></path>
                <path d="M68.274706,123.478243 C76.2234239,126.634236 85.3644496,127.028736 93.7106034,123.478243 C102.056757,119.92775 111.197783,120.32225 119.146501,123.478243 C119.941373,123.872742 120.736244,123.872742 121.13368,124.267241 L121.13368,91.1293103 L177.399248,42.796798 C186.527705,35.4285713 178.87785,25.1026418 171.494486,29.3838259 L115.172142,63.908867 L104.441373,59.569376 L103.249065,53.2573892 C100.467014,56.0188834 96.8900906,57.202381 93.3131675,57.202381 C89.7362445,57.202381 86.1593214,55.6243842 83.3772701,52.86289 L82.1849624,59.1748768 C78.6080393,60.7528736 74.6336804,62.3308703 71.4541932,63.5143678 L15.0596872,30.3159853 C8.37543856,26.7070701 0.201705624,35.4285713 8.3754386,43.4590512 L66.6849624,91.1293103 L66.6849624,122.689245 C67.0823983,123.083744 67.8772701,123.083744 68.274706,123.478243 Z" id="Shape" stroke-width="5" stroke-linecap="round" stroke-linejoin="round"></path>
            </g>
            <g id="Swim-Full" transform="translate(342.221053, 0.000000)">
                <path d="M75.0405793,23.7811761 C75.0405793,23.7811761 93.4039238,27.1624466 105.851609,15.2183808 C105.851609,15.2183808 108.105372,24.8147249 114.289126,24.1595176 C114.289126,24.1595176 115.808755,6.56162711 109.166482,4.45945083 C102.524209,2.35727455 101.521979,4.95805983 101.521979,4.95805983 C101.521979,4.95805983 89.1594823,-5.69187823 77.8255236,7.50748024 L75.0681406,18.3415774 L75.0405793,23.7811761 Z" id="Path-1412" fill="#3D4C5E"></path>
                <path d="M113.979834,24.2699378 L113.979834,12.4349624 C113.979834,7.70097226 110.005475,3.75598047 105.236244,3.75598047 C104.043937,3.75598047 102.851629,4.15047965 101.659321,4.54497883 C98.8772701,2.17798375 94.9029111,0.994486216 90.9285521,0.994486216 C81.3900906,0.994486216 73.8388086,8.48997062 73.8388086,17.9579509 L73.8388086,23.8754386 C71.0567573,24.664437 69.4670137,27.031432 69.4670137,30.1874255 C69.4670137,35.710414 72.249065,40.4444041 75.825988,40.4444041 C79.0054752,50.7013828 85.7618855,57.4078688 93.7106034,57.4078688 C101.659321,57.4078688 108.415732,50.3068836 111.595219,40.4444041 C115.172142,40.4444041 117.954193,35.710414 117.954193,30.1874255 C118.351629,27.8204304 116.36445,25.0589361 113.979834,24.2699378 L113.979834,24.2699378 Z" id="Shape" stroke="#354252" stroke-width="5"></path>
                <path d="M113.979834,24.2699378 C109.210603,24.2699378 105.236244,20.324946 105.236244,15.5909558 L105.236244,15.5909558 C100.069578,21.1139443 92.5182957,24.2699378 84.5695778,24.2699378 L84.5695778,24.2699378 L74.2362445,24.2699378 L84.5695778,24.2699378 L84.5695778,24.2699378 C92.5182957,24.2699378 100.069578,21.1139443 105.236244,15.5909558 L105.236244,15.5909558 C105.236244,20.324946 109.210603,24.2699378 113.979834,24.2699378 L113.979834,24.2699378 Z" id="Shape" stroke="#354252" stroke-width="4.5" stroke-linecap="round" stroke-linejoin="round"></path>
                <path d="M68.274706,124.472729 C76.2234239,127.628723 85.3644496,128.023222 93.7106034,124.472729 C102.056757,120.922237 111.197783,121.316736 119.146501,124.472729 C119.941373,124.867228 120.736244,124.867228 121.13368,125.261728 L121.13368,92.1237966 L177.399248,43.7912842 C186.527705,36.4230575 178.87785,26.0971281 171.494486,30.3783122 L115.172142,64.9033532 L104.441373,60.5638622 L103.249065,54.2518754 C100.467014,57.0133696 96.8900906,58.1968672 93.3131675,58.1968672 C89.7362445,58.1968672 86.1593214,56.6188705 83.3772701,53.8573762 L82.1849624,60.1693631 C78.6080393,61.7473598 74.6336804,63.3253565 71.4541932,64.508854 L15.0596872,31.3104715 C8.37543856,27.7015563 0.201705624,36.4230575 8.3754386,44.4535374 L66.6849624,92.1237966 L66.6849624,123.683731 C67.0823983,124.07823 67.8772701,124.07823 68.274706,124.472729 Z" id="Shape" stroke="#354252" stroke-width="5" fill="#3D4C5E" stroke-linecap="round" stroke-linejoin="round"></path>
                <g id="Group" transform="translate(0.000000, 122.026566)" stroke="#354252" stroke-linecap="round" stroke-linejoin="round" stroke-width="5">
                    <path d="M69.5805668,22.3610708 C62.4267206,19.2050773 54.1997976,18.8105782 46.6882591,22.3610708 C39.1767206,25.9115634 30.9497976,25.5170642 23.7959514,22.3610708 L23.7959514,22.3610708 C16.6421053,19.2050773 8.41518219,18.8105782 0.903643725,22.3610708 C8.41518219,18.8105782 16.6421053,19.2050773 23.7959514,22.3610708 L23.7959514,22.3610708 C30.9497976,25.5170642 39.1767206,25.9115634 46.6882591,22.3610708 C54.1997976,18.8105782 62.4267206,18.8105782 69.5805668,22.3610708 L69.5805668,22.3610708 Z" id="Shape"></path>
                    <path d="M183.684413,22.3610708 C176.172874,25.9115634 167.945951,25.5170642 160.792105,22.3610708 L160.792105,22.3610708 C153.638259,19.2050773 145.411336,18.8105782 137.899798,22.3610708 L137.899798,22.3610708 C130.388259,25.9115634 122.161336,25.5170642 115.00749,22.3610708 C122.161336,25.5170642 130.388259,25.9115634 137.899798,22.3610708 L137.899798,22.3610708 C145.411336,18.8105782 153.638259,19.2050773 160.792105,22.3610708 L160.792105,22.3610708 C167.945951,25.5170642 175.815182,25.5170642 183.684413,22.3610708 L183.684413,22.3610708 Z" id="Shape"></path>
                    <path d="M93.3415558,40.0753565 C85.8300174,43.6258491 77.6030943,43.2313499 70.4492481,40.0753565 L70.4492481,40.0753565 C63.295402,36.9193631 55.0684789,36.5248639 47.5569404,40.0753565 L47.5569404,40.0753565 C40.045402,43.6258491 31.8184789,43.2313499 24.6646327,40.0753565 C31.8184789,43.2313499 40.045402,43.6258491 47.5569404,40.0753565 L47.5569404,40.0753565 C55.0684789,36.5248639 63.295402,36.9193631 70.4492481,40.0753565 L70.4492481,40.0753565 C77.6030943,43.2313499 85.472325,43.2313499 93.3415558,40.0753565 L93.3415558,40.0753565 Z" id="Shape-Copy"></path>
                    <path d="M136.122691,40.0753565 C143.63423,36.5248639 151.861153,36.9193631 159.014999,40.0753565 C151.861153,36.9193631 143.991922,36.5248639 136.122691,40.0753565 L136.122691,40.0753565 Z" id="Shape"></path>
                    <path d="M183.684413,3.42511019 C176.172874,6.9756028 167.945951,6.58110362 160.792105,3.42511019 L160.792105,3.42511019 C153.638259,0.269116757 145.411336,-0.125382422 137.899798,3.42511019 L137.899798,3.42511019 C130.388259,6.9756028 122.161336,6.58110362 115.00749,3.42511019 L115.00749,3.42511019 C107.853644,0.269116757 99.6267206,-0.125382422 92.1151822,3.42511019 C84.6036437,6.9756028 76.3767206,6.58110362 69.2228745,3.42511019 L69.2228745,3.42511019 C62.0690283,0.269116757 53.8421053,-0.125382422 46.3305668,3.42511019 C38.8190283,6.9756028 30.5921053,6.58110362 23.4382591,3.42511019 L23.4382591,3.42511019 C16.284413,0.269116757 8.05748988,-0.125382422 0.545951417,3.42511019 C8.05748988,-0.125382422 16.284413,0.269116757 23.4382591,3.42511019 L23.4382591,3.42511019 C30.5921053,6.58110362 38.8190283,6.9756028 46.3305668,3.42511019 C53.8421053,-0.125382422 62.0690283,0.269116757 69.2228745,3.42511019 L69.2228745,3.42511019 C76.3767206,6.58110362 84.6036437,6.9756028 92.1151822,3.42511019 C99.6267206,-0.125382422 107.853644,0.269116757 115.00749,3.42511019 L115.00749,3.42511019 C122.161336,6.58110362 130.388259,6.9756028 137.899798,3.42511019 L137.899798,3.42511019 C145.411336,-0.125382422 153.638259,0.269116757 160.792105,3.42511019 L160.792105,3.42511019 C167.945951,6.58110362 175.815182,6.9756028 183.684413,3.42511019 L183.684413,3.42511019 Z" id="Shape"></path>
                </g>
                <path d="M144.582398,181.865059 C136.236244,185.415552 127.095219,185.021053 119.146501,181.865059 L119.146501,181.865059 C111.197783,178.709066 102.056757,178.314567 93.7106034,181.865059 C85.3644496,185.415552 76.2234239,185.021053 68.274706,181.865059 L68.274706,181.865059 C60.325988,178.709066 51.1849624,178.314567 42.8388086,181.865059 C51.1849624,178.314567 60.325988,178.709066 68.274706,181.865059 L68.274706,181.865059 C76.2234239,185.021053 85.3644496,185.415552 93.7106034,181.865059 C102.056757,178.314567 111.197783,178.709066 119.146501,181.865059 L119.146501,181.865059 C127.095219,185.021053 136.236244,185.415552 144.582398,181.865059 L144.582398,181.865059 Z" id="Shape" stroke="#354252" stroke-width="5" stroke-linecap="round" stroke-linejoin="round"></path>
            </g>
            <g id="Swim-Colored" transform="translate(683.442105, 1.957895)">
                <g id="Group">
                    <path d="M75.0405793,23.7811761 C75.0405793,23.7811761 93.4039238,27.1624466 105.851609,15.2183808 C105.851609,15.2183808 108.105372,24.8147249 114.289126,24.1595176 C114.289126,24.1595176 115.808755,6.56162711 109.166482,4.45945083 C102.524209,2.35727455 101.521979,4.95805983 101.521979,4.95805983 C101.521979,4.95805983 89.1594823,-5.69187823 77.8255236,7.50748024 L75.0681406,18.3415774 L75.0405793,23.7811761 Z" id="Path-1412" fill="#F6C37F"></path>
                    <path d="M114.958782,20.3386095 C110.189551,20.3386095 106.215192,16.3936177 106.215192,11.6596275 L106.215192,11.6596275 C101.048525,17.182616 93.4972431,20.3386095 85.5485252,20.3386095 L85.5485252,20.3386095 L75.2151918,20.3386095 L85.5485252,20.3386095 L85.5485252,20.3386095 C93.4972431,20.3386095 101.048525,17.182616 106.215192,11.6596275 L106.215192,11.6596275 C106.215192,16.3936177 110.189551,20.3386095 114.958782,20.3386095 L114.958782,20.3386095 Z" id="Shape" stroke="#E5B069" stroke-width="3.5" stroke-linecap="round" stroke-linejoin="round"></path>
                    <path d="M113.979834,24.2699378 L113.979834,12.4349624 C113.979834,7.70097226 110.005475,3.75598047 105.236244,3.75598047 C104.043937,3.75598047 102.851629,4.15047965 101.659321,4.54497883 C98.8772701,2.17798375 94.9029111,0.994486216 90.9285521,0.994486216 C81.3900906,0.994486216 73.8388086,8.48997062 73.8388086,17.9579509 L73.8388086,23.8754386 C71.0567573,24.664437 69.4670137,27.031432 69.4670137,30.1874255 C69.4670137,35.710414 72.249065,40.4444041 75.825988,40.4444041 C79.0054752,50.7013828 85.7618855,57.4078688 93.7106034,57.4078688 C101.659321,57.4078688 108.415732,50.3068836 111.595219,40.4444041 C115.172142,40.4444041 117.954193,35.710414 117.954193,30.1874255 C118.351629,27.8204304 116.36445,25.0589361 113.979834,24.2699378 L113.979834,24.2699378 Z" id="Shape" stroke="#354252" stroke-width="5"></path>
                    <path d="M113.979834,24.2699378 C109.210603,24.2699378 105.236244,20.324946 105.236244,15.5909558 L105.236244,15.5909558 C100.069578,21.1139443 92.5182957,24.2699378 84.5695778,24.2699378 L84.5695778,24.2699378 L74.2362445,24.2699378 L84.5695778,24.2699378 L84.5695778,24.2699378 C92.5182957,24.2699378 100.069578,21.1139443 105.236244,15.5909558 L105.236244,15.5909558 C105.236244,20.324946 109.210603,24.2699378 113.979834,24.2699378 L113.979834,24.2699378 Z" id="Shape-Copy-2" stroke="#354252" stroke-width="4.5" stroke-linecap="round" stroke-linejoin="round"></path>
                    <g transform="translate(0.000000, 121.047619)" stroke-linecap="round" stroke-linejoin="round">
                        <path d="M69.5805668,19.4086898 C62.4267206,16.2526964 54.1997976,15.8581972 46.6882591,19.4086898 C39.1767206,22.9591824 30.9497976,22.5646833 23.7959514,19.4086898 L23.7959514,19.4086898 C16.6421053,16.2526964 8.41518219,15.8581972 0.903643725,19.4086898 C8.41518219,15.8581972 16.6421053,16.2526964 23.7959514,19.4086898 L23.7959514,19.4086898 C30.9497976,22.5646833 39.1767206,22.9591824 46.6882591,19.4086898 C54.1997976,15.8581972 62.4267206,15.8581972 69.5805668,19.4086898 L69.5805668,19.4086898 Z" id="Shape" stroke="#85C8F6" stroke-width="5"></path>
                        <path d="M69.5805668,22.3610708 C62.4267206,19.2050773 54.1997976,18.8105782 46.6882591,22.3610708 C39.1767206,25.9115634 30.9497976,25.5170642 23.7959514,22.3610708 L23.7959514,22.3610708 C16.6421053,19.2050773 8.41518219,18.8105782 0.903643725,22.3610708 C8.41518219,18.8105782 16.6421053,19.2050773 23.7959514,22.3610708 L23.7959514,22.3610708 C30.9497976,25.5170642 39.1767206,25.9115634 46.6882591,22.3610708 C54.1997976,18.8105782 62.4267206,18.8105782 69.5805668,22.3610708 L69.5805668,22.3610708 Z" id="Shape-Copy-7" stroke="#354252" stroke-width="5"></path>
                        <path d="M183.684413,19.4086898 C176.172874,22.9591824 167.945951,22.5646833 160.792105,19.4086898 L160.792105,19.4086898 C153.638259,16.2526964 145.411336,15.8581972 137.899798,19.4086898 L137.899798,19.4086898 C130.388259,22.9591824 122.161336,22.5646833 115.00749,19.4086898 C122.161336,22.5646833 130.388259,22.9591824 137.899798,19.4086898 L137.899798,19.4086898 C145.411336,15.8581972 153.638259,16.2526964 160.792105,19.4086898 L160.792105,19.4086898 C167.945951,22.5646833 175.815182,22.5646833 183.684413,19.4086898 L183.684413,19.4086898 Z" id="Shape" stroke="#A5CEE9" stroke-width="5"></path>
                        <g id="Shape-Copy-8" stroke="#354252">
                            <use stroke-width="5" xlink:href="#path-1"></use>
                            <use stroke-width="1" xlink:href="#path-1"></use>
                        </g>
                        <path d="M93.3415558,37.1229755 C85.8300174,40.6734682 77.6030943,40.278969 70.4492481,37.1229755 L70.4492481,37.1229755 C63.295402,33.9669821 55.0684789,33.5724829 47.5569404,37.1229755 L47.5569404,37.1229755 C40.045402,40.6734682 31.8184789,40.278969 24.6646327,37.1229755 C31.8184789,40.278969 40.045402,40.6734682 47.5569404,37.1229755 L47.5569404,37.1229755 C55.0684789,33.5724829 63.295402,33.9669821 70.4492481,37.1229755 L70.4492481,37.1229755 C77.6030943,40.278969 85.472325,40.278969 93.3415558,37.1229755 L93.3415558,37.1229755 Z" id="Shape-Copy" stroke="#A5CEE9" stroke-width="5"></path>
                        <path d="M93.3415558,40.0753565 C85.8300174,43.6258491 77.6030943,43.2313499 70.4492481,40.0753565 L70.4492481,40.0753565 C63.295402,36.9193631 55.0684789,36.5248639 47.5569404,40.0753565 L47.5569404,40.0753565 C40.045402,43.6258491 31.8184789,43.2313499 24.6646327,40.0753565 C31.8184789,43.2313499 40.045402,43.6258491 47.5569404,40.0753565 L47.5569404,40.0753565 C55.0684789,36.5248639 63.295402,36.9193631 70.4492481,40.0753565 L70.4492481,40.0753565 C77.6030943,43.2313499 85.472325,43.2313499 93.3415558,40.0753565 L93.3415558,40.0753565 Z" id="Shape-Copy-5" stroke="#354252" stroke-width="5"></path>
                        <path d="M136.122691,37.1229755 C143.63423,33.5724829 151.861153,33.9669821 159.014999,37.1229755 C151.861153,33.9669821 143.991922,33.5724829 136.122691,37.1229755 L136.122691,37.1229755 Z" id="Shape" stroke="#85C8F6" stroke-width="5"></path>
                        <path d="M136.122691,40.0753565 C143.63423,36.5248639 151.861153,36.9193631 159.014999,40.0753565 C151.861153,36.9193631 143.991922,36.5248639 136.122691,40.0753565 L136.122691,40.0753565 Z" id="Shape-Copy-6" stroke="#354252" stroke-width="5"></path>
                        <path d="M183.684413,3.42511019 C176.172874,6.9756028 167.945951,6.58110362 160.792105,3.42511019 L160.792105,3.42511019 C153.638259,0.269116757 145.411336,-0.125382422 137.899798,3.42511019 L137.899798,3.42511019 C130.388259,6.9756028 122.161336,6.58110362 115.00749,3.42511019 L115.00749,3.42511019 C107.853644,0.269116757 99.6267206,-0.125382422 92.1151822,3.42511019 C84.6036437,6.9756028 76.3767206,6.58110362 69.2228745,3.42511019 L69.2228745,3.42511019 C62.0690283,0.269116757 53.8421053,-0.125382422 46.3305668,3.42511019 C38.8190283,6.9756028 30.5921053,6.58110362 23.4382591,3.42511019 L23.4382591,3.42511019 C16.284413,0.269116757 8.05748988,-0.125382422 0.545951417,3.42511019 C8.05748988,-0.125382422 16.284413,0.269116757 23.4382591,3.42511019 L23.4382591,3.42511019 C30.5921053,6.58110362 38.8190283,6.9756028 46.3305668,3.42511019 C53.8421053,-0.125382422 62.0690283,0.269116757 69.2228745,3.42511019 L69.2228745,3.42511019 C76.3767206,6.58110362 84.6036437,6.9756028 92.1151822,3.42511019 C99.6267206,-0.125382422 107.853644,0.269116757 115.00749,3.42511019 L115.00749,3.42511019 C122.161336,6.58110362 130.388259,6.9756028 137.899798,3.42511019 L137.899798,3.42511019 C145.411336,-0.125382422 153.638259,0.269116757 160.792105,3.42511019 L160.792105,3.42511019 C167.945951,6.58110362 175.815182,6.9756028 183.684413,3.42511019 L183.684413,3.42511019 Z" id="Shape" stroke="#354252" stroke-width="5"></path>
                    </g>
                    <g id="Shape-+-Rectangle-142" transform="translate(4.925815, 28.544862)">
                        <g id="Mask-+-Rectangle-142">
                            <mask id="mask-3" fill="white">
                                <use xlink:href="#path-2"></use>
                            </mask>
                            <use id="Mask" fill="#FAEAC4" xlink:href="#path-2"></use>
                            <rect id="Rectangle-142" fill="#F8E2AF" mask="url(#mask-3)" x="87.5924812" y="-30.5027569" width="91.5238095" height="144.666667"></rect>
                        </g>
                        <g id="Path-259-+-Rectangle-108" transform="translate(28.544862, 19.687719)">
                            <mask id="mask-5" fill="white">
                                <use xlink:href="#path-4"></use>
                            </mask>
                            <use id="Mask" fill="#85C8F6" xlink:href="#path-4"></use>
                            <rect id="Rectangle-108" fill="#8CCEFB" mask="url(#mask-5)" x="4.04761905" y="5.9047619" width="56.0952381" height="73.8095238"></rect>
                            <path d="M80.5091575,-21.0102627 L80.5091575,-32.8452381 C80.5091575,-37.5792282 76.5347985,-41.52422 71.7655678,-41.52422 C70.5732601,-41.52422 69.3809524,-41.1297209 68.1886447,-40.7352217 C65.4065934,-43.1022167 61.4322344,-44.2857143 57.4578755,-44.2857143 C47.9194139,-44.2857143 40.3681319,-36.7902299 40.3681319,-27.3222496 L40.3681319,-21.4047619 C37.5860806,-20.6157635 35.996337,-18.2487685 35.996337,-15.092775 C35.996337,-9.56978654 38.7783883,-4.83579639 42.3553114,-4.83579639 C45.5347985,5.42118227 52.2912088,12.1276683 60.2399267,12.1276683 C68.1886447,12.1276683 74.9450549,5.02668309 78.1245421,-4.83579639 C81.7014652,-4.83579639 84.4835165,-9.56978654 84.4835165,-15.092775 C84.8809524,-17.4597701 82.8937729,-20.2212644 80.5091575,-21.0102627 L80.5091575,-21.0102627 Z" id="Shape-Copy-9" stroke="#3F98D8" stroke-width="5" opacity="0.475687966" mask="url(#mask-5)"></path>
                        </g>
                        <path d="M63.3488915,95.9278671 C71.2976094,99.0838605 80.438635,99.4783597 88.7847889,95.9278671 C97.1309427,92.3773745 106.271968,92.7718736 114.220686,95.9278671 C115.015558,96.3223663 115.81043,96.3223663 116.207866,96.7168654 L116.207866,63.5789344 L172.473434,15.2464221 C181.60189,7.87819537 173.952036,-2.4477341 166.568672,1.83345 L110.246327,36.3584911 L99.5155581,32.0190001 L98.3232504,25.7070132 C95.5411992,28.4685075 91.9642761,29.652005 88.387353,29.652005 C84.8104299,29.652005 81.2335068,28.0740083 78.4514556,25.312514 L77.2591479,31.6245009 C73.6822248,33.2024976 69.7078658,34.7804943 66.5283786,35.9639919 L10.1338726,2.76560936 C3.44962402,-0.843305846 -4.72410891,7.87819536 3.44962406,15.9086753 L61.7591479,63.5789344 L61.7591479,95.1388687 C62.1565838,95.5333679 62.9514556,95.5333679 63.3488915,95.9278671 Z" id="Shape-Copy-3" stroke="#354252" stroke-width="5" stroke-linecap="round" stroke-linejoin="round"></path>
                    </g>
                    <path d="M33.4706767,65.9468672 L45.2802005,48.2325815" id="Path-257" stroke="#354252" stroke-width="4"></path>
                    <path d="M139.756391,68.8992481 L151.565915,51.1849624" id="Path-257-Copy" stroke="#354252" stroke-width="4" transform="translate(145.661153, 60.042105) scale(-1, 1) translate(-145.661153, -60.042105) "></path>
                </g>
                <path d="M144.582398,177.933731 C136.236244,181.484223 127.095219,181.089724 119.146501,177.933731 L119.146501,177.933731 C111.197783,174.777737 102.056757,174.383238 93.7106034,177.933731 C85.3644496,181.484223 76.2234239,181.089724 68.274706,177.933731 L68.274706,177.933731 C60.325988,174.777737 51.1849624,174.383238 42.8388086,177.933731 C51.1849624,174.383238 60.325988,174.777737 68.274706,177.933731 L68.274706,177.933731 C76.2234239,181.089724 85.3644496,181.484223 93.7106034,177.933731 C102.056757,174.383238 111.197783,174.777737 119.146501,177.933731 L119.146501,177.933731 C127.095219,181.089724 136.236244,181.484223 144.582398,177.933731 L144.582398,177.933731 Z" id="Shape" stroke="#85C8F6" stroke-width="5" stroke-linecap="round" stroke-linejoin="round"></path>
                <path d="M144.582398,180.886112 C136.236244,184.436604 127.095219,184.042105 119.146501,180.886112 L119.146501,180.886112 C111.197783,177.730118 102.056757,177.335619 93.7106034,180.886112 C85.3644496,184.436604 76.2234239,184.042105 68.274706,180.886112 L68.274706,180.886112 C60.325988,177.730118 51.1849624,177.335619 42.8388086,180.886112 C51.1849624,177.335619 60.325988,177.730118 68.274706,180.886112 L68.274706,180.886112 C76.2234239,184.042105 85.3644496,184.436604 93.7106034,180.886112 C102.056757,177.335619 111.197783,177.730118 119.146501,180.886112 L119.146501,180.886112 C127.095219,184.042105 136.236244,184.436604 144.582398,180.886112 L144.582398,180.886112 Z" id="Shape-Copy-4" stroke="#354252" stroke-width="5" stroke-linecap="round" stroke-linejoin="round"></path>
            </g>
        </g>
    </g>
</svg>