<?xml version="1.0" encoding="UTF-8"?>
<svg width="48px" height="64px" viewBox="0 0 48 64" version="1.1" xmlns="http://www.w3.org/2000/svg" xmlns:xlink="http://www.w3.org/1999/xlink">
    <!-- Generator: Sketch 51.3 (57544) - http://www.bohemiancoding.com/sketch -->
    <title>electricity3</title>
    <desc>Created with Sketch.</desc>
    <defs></defs>
    <g id="Page-1" stroke="none" stroke-width="1" fill="none" fill-rule="evenodd">
        <g id="Linear-Camping-iconset" transform="translate(-193.000000, -261.000000)">
            <g id="electricity3" transform="translate(194.000000, 262.000000)">
                <path d="M44.7866246,17.6133072 C44.5421291,17.2047512 44.256925,17.0004118 43.9308901,17.0004118 L37.6962531,17.0004118 L37.6962531,3.14897581 C37.6962531,2.49526158 37.4517575,1.92318501 36.9627664,1.43286869 C36.4737752,0.94255237 35.8829517,0.69739421 35.1901735,0.69739421 C34.4973953,0.69739421 33.9065717,0.94255237 33.4175806,1.43286869 C32.9285895,1.92318501 32.6840939,2.49526158 32.6840939,3.14897581 L32.6840939,17.0004118 L12.6354571,17.0004118 L12.6354571,3.14897581 C12.6354571,2.49526158 12.3909616,1.92318501 11.9019704,1.43286869 C11.4129793,0.94255237 10.8221557,0.69739421 10.1293775,0.69739421 C9.43659934,0.69739421 8.84577579,0.94255237 8.35678465,1.43286869 C7.86779351,1.92318501 7.62329794,2.49526158 7.62329794,3.14897581 L7.62329794,17.0004118 L1.3886609,17.0004118 C1.06262606,17.0004118 0.757006592,17.2047512 0.47180251,17.6133072 C0.186598427,18.0218633 0.0439352615,18.430542 0.0439352615,18.839098 L0.0439352615,24.845473 C0.0439352615,26.3981822 0.6958827,28.2776872 1.99989982,30.4841106 C3.30391695,32.6905341 4.75047499,34.7743784 6.3396962,36.7356437 C7.9289174,38.696909 9.37547544,41.0872011 10.6794926,43.9065199 C11.9835097,46.7258387 12.6354571,49.4430492 12.6354571,52.0580287 L12.6354571,55.9805593 L17.6476163,55.9805593 L17.6476163,61.0063015 L27.6719347,61.0063015 L27.6719347,55.9805593 L32.6840939,55.9805593 L32.6840939,52.0580287 C32.6840939,49.4430492 33.3360413,46.7258387 34.6400585,43.9065199 C35.9440756,41.0872011 37.3702182,38.696909 38.9187309,36.7356437 C40.4672436,34.7743784 41.8933863,32.6905341 43.1974034,30.4841106 C44.5014205,28.2776872 45.153368,26.3981822 45.153368,24.845473 L45.153368,18.839098 C45.153368,18.4299291 45.0311202,18.0212504 44.7866246,17.6133072 L44.7866246,17.6133072 Z" id="Shape" stroke="#434F5E" stroke-width="2"></path>
                <path d="M28.3380047,32.6073493 C22.9404871,39.603527 20.1759218,43.1676008 20.0443087,43.2995705 C19.9784528,43.4315402 19.9290856,43.4646069 19.896207,43.3985726 C19.8633284,43.3325382 19.8468398,43.2335361 19.8468398,43.1015664 L21.7227948,35.6764128 C21.7886507,35.4123743 21.6899162,35.2804046 21.4265914,35.2804046 L17.4772124,35.2804046 C17.2138875,35.2804046 17.1481304,35.1814025 17.2797434,34.9833984 C22.677261,28.1192894 25.4418263,24.621151 25.5734394,24.4891813 C25.6392953,24.4231469 25.6886625,24.3901792 25.7215411,24.3901792 C25.7544197,24.3901792 25.7709083,24.4562136 25.7709083,24.5881833 L23.9936878,31.9143349 C23.8620747,32.112339 23.9278319,32.2113411 24.1911567,32.2113411 L28.1405357,32.2113411 C28.4696177,32.2113411 28.5354736,32.3433108 28.3380047,32.6073493 L28.3380047,32.6073493 Z" id="Path" fill="#434F5E"></path>
            </g>
        </g>
    </g>
</svg>