<?xml version="1.0" encoding="UTF-8"?>
<svg width="44px" height="59px" viewBox="0 0 44 59" version="1.1" xmlns="http://www.w3.org/2000/svg" xmlns:xlink="http://www.w3.org/1999/xlink">
    <!-- Generator: Sketch 51.3 (57544) - http://www.bohemiancoding.com/sketch -->
    <title>flag30</title>
    <desc>Created with Sketch.</desc>
    <defs></defs>
    <g id="Page-1" stroke="none" stroke-width="1" fill="none" fill-rule="evenodd">
        <g id="Linear-Camping-iconset" transform="translate(-456.000000, -523.000000)" stroke="#434F5E" stroke-width="2">
            <g id="flag30" transform="translate(458.000000, 525.000000)">
                <path d="M7.59138174,8.09416044 L7.59138174,52.5578817 C7.59138174,54.4273 6.0860295,55.9467742 4.22461071,55.9467742 C2.36291792,55.9467742 0.857488122,54.4273776 0.857488122,52.5578817 L0.857488122,8.09358888 C-0.255421439,7.12173205 -0.917033525,5.70696354 -0.917033525,4.18082796 C-0.917033525,1.3212533 1.38321909,-1 4.2256243,-0.999999952 C7.06611224,-0.999118013 9.36590338,1.32271298 9.36590338,4.18141935 C9.36590338,5.70717837 8.70417346,7.12230466 7.59138174,8.09416044 Z M8.97082277,8.03574786 C13.7074754,9.80124717 16.9687543,9.62476713 24.0789931,7.99802083 C24.0796042,7.99788102 24.0796042,7.99788102 24.0802152,7.99774122 C31.5427425,6.29039513 35.1280163,6.09645386 40.3308659,8.03574964 L40.9816021,8.27830322 L40.9816021,28.9267705 L39.6323463,28.423866 C34.8964129,26.6586543 31.6349391,26.8350635 24.52626,28.461388 C24.5256166,28.4615352 24.5256166,28.4615352 24.5249732,28.4616824 C17.060957,30.1693011 13.4758863,30.3633 8.27232086,28.4238708 L7.62156366,28.1813261 L7.62156366,7.53283658 L8.97082277,8.03574786 Z" id="Shape"></path>
            </g>
        </g>
    </g>
</svg>