<?xml version="1.0" encoding="UTF-8"?>
<svg width="1200px" height="802px" viewBox="0 0 1200 802" version="1.1" xmlns="http://www.w3.org/2000/svg" xmlns:xlink="http://www.w3.org/1999/xlink">
    <!-- Generator: Sketch 51.3 (57544) - http://www.bohemiancoding.com/sketch -->
    <title>Free camping spot</title>
    <desc>Created with Sketch.</desc>
    <defs>
        <polygon id="path-1" points="15.7077787 0.303051339 30.8852907 25.8465457 0.530266758 25.8465457"></polygon>
        <path d="M0,15.2759489 C0,6.83927527 6.84800173,0 15.2613855,0 L147.738614,0 C156.167245,0 163,6.8431416 163,15.2759489 L163,145.177176 C163,153.61385 156.151998,160.453125 147.738614,160.453125 L15.2613855,160.453125 C6.83275504,160.453125 0,153.609983 0,145.177176 L0,15.2759489 L0,15.2759489 Z" id="path-3"></path>
    </defs>
    <g id="Free-camping-spot" stroke="none" stroke-width="1" fill="none" fill-rule="evenodd">
        <rect fill="#FFFFFF" x="0" y="0" width="1200" height="802"></rect>
        <g id="PublicSpot-Linear-+-PublicSpot-Full-+-PublicSpot-Colored" transform="translate(176.000000, 320.000000)">
            <g id="PublicSpot-Linear" transform="translate(0.000000, 1.000000)" stroke="#47576B">
                <path d="M12.890625,15.4232192 L12.890625,15.4232192 L12.890625,146.576781 C12.890625,147.994677 14.0404971,149.142857 15.4486418,149.142857 L149.551358,149.142857 C150.953247,149.142857 152.109375,147.989427 152.109375,146.576781 L152.109375,15.4232192 C152.109375,14.0053234 150.959503,12.8571429 149.551358,12.8571429 L15.4486418,12.8571429 C14.0467533,12.8571429 12.890625,14.0105727 12.890625,15.4232192 L12.890625,15.4232192 Z M0,15.4232192 C0,6.90521044 6.93202629,0 15.4486418,0 L149.551358,0 C158.083407,0 165,6.90911404 165,15.4232192 L165,146.576781 C165,155.09479 158.067974,162 149.551358,162 L15.4486418,162 C6.91659252,162 0,155.090886 0,146.576781 L0,15.4232192 L0,15.4232192 Z" id="Shape" stroke-width="5" fill-rule="nonzero"></path>
                <g id="Group" transform="translate(31.968749, 39.000000)">
                    <rect id="Path" stroke-width="3" x="2.12354651" y="80.5546332" width="96.7050858" height="2" rx="1"></rect>
                    <path d="M50.4760901,52.8372671 L33.6124788,81.1447207 L67.3397015,81.1447207 L50.4760901,52.8372671 Z" id="Triangle-1" stroke-width="5"></path>
                    <g id="Path-1444" transform="translate(32.754048, 41.584286) rotate(-328.000000) translate(-32.754048, -41.584286) translate(30.254048, -5.415714)" stroke-linecap="round" stroke-width="5">
                        <path d="M2.5,0.753421017 L2.5,93.0209491"></path>
                    </g>
                    <g id="Path-1444-Copy" transform="translate(68.810172, 41.584286) scale(-1, 1) rotate(-328.000000) translate(-68.810172, -41.584286) translate(66.310172, -5.415714)" stroke-linecap="round" stroke-width="5">
                        <path d="M2.5,0.753421017 L2.5,93.0209491" id="Path-1444"></path>
                    </g>
                </g>
            </g>
            <g id="PublicSpot-Full" transform="translate(344.000000, 1.000000)">
                <polygon id="Path-1449" fill="#434F5E" points="40.1571165 116.288461 81.2707524 51.4503535 124.361518 118.975442 38.5316456 119.130042"></polygon>
                <path d="M81.6995349,90.7527824 L65.2474277,118.441399 L98.1516421,118.441399 L81.6995349,90.7527824 Z" id="Triangle-1" stroke="#354252" stroke-width="3" fill="#FFFFFF"></path>
                <g id="Path-1444" transform="translate(64.485524, 79.245143) rotate(-328.000000) translate(-64.485524, -79.245143) translate(61.985524, 33.245143)" stroke="#354252" stroke-linecap="round" stroke-width="5">
                    <path d="M2.5,0.730941261 L2.5,91.8155523"></path>
                </g>
                <g id="Path-1444-Copy" transform="translate(99.516169, 79.245143) scale(-1, 1) rotate(-328.000000) translate(-99.516169, -79.245143) translate(97.016169, 33.245143)" stroke="#354252" stroke-linecap="round" stroke-width="5">
                    <path d="M2.5,0.730941261 L2.5,91.8155523" id="Path-1444"></path>
                </g>
                <path d="M13.2153856,15.2254856 L13.2153856,15.2254856 L13.2153856,144.697591 C13.2153856,146.097309 14.3475674,147.230769 15.7340483,147.230769 L147.773646,147.230769 C149.153967,147.230769 150.292309,146.092127 150.292309,144.697591 L150.292309,15.2254856 C150.292309,13.825768 149.160127,12.6923077 147.773646,12.6923077 L15.7340483,12.6923077 C14.3537273,12.6923077 13.2153856,13.83095 13.2153856,15.2254856 L13.2153856,15.2254856 Z M0.523077891,15.2254856 C0.523077891,6.8166821 7.34845762,0 15.7340483,0 L147.773646,0 C156.174433,0 162.984616,6.82053566 162.984616,15.2254856 L162.984616,144.697591 C162.984616,153.106395 156.159237,159.923077 147.773646,159.923077 L15.7340483,159.923077 C7.3332613,159.923077 0.523077891,153.102541 0.523077891,144.697591 L0.523077891,15.2254856 L0.523077891,15.2254856 Z" id="Shape" stroke="#354252" stroke-width="5" fill="#3D4C5E" fill-rule="nonzero" stroke-linecap="round"></path>
                <path d="M3.02307789,15.2254856 L3.02307789,144.697591 C3.02307789,151.723792 8.7159346,157.423077 15.7340483,157.423077 L147.773646,157.423077 C154.783625,157.423077 160.484616,151.720581 160.484616,144.697591 L160.484616,15.2254856 C160.484616,8.19928539 154.79176,2.5 147.773646,2.5 L15.7340483,2.5 C8.72406886,2.5 3.02307789,8.20249604 3.02307789,15.2254856 Z" id="Path" stroke="#434F5E" stroke-width="5"></path>
                <rect id="Path" stroke="#354252" stroke-width="5" x="35.1139535" y="119.041112" width="93.1711614" height="1" rx="0.5"></rect>
            </g>
            <g id="PublicSpot-Colored" transform="translate(686.000000, 0.000000)">
                <rect id="Rectangle-139" fill="#FFFFFF" x="7.640625" y="7.640625" width="147.71875" height="145.171875"></rect>
                <rect id="Rectangle-140-Copy" fill="#F4F3ED" opacity="0.699999988" x="81.1875" y="12.734375" width="71.3125" height="137.53125"></rect>
                <path d="M13.984375,15.2759489 L13.984375,145.177176 C13.984375,145.890566 14.5600682,146.46875 15.2613855,146.46875 L147.738614,146.46875 C148.434175,146.46875 149.015625,145.884944 149.015625,145.177176 L149.015625,15.2759489 C149.015625,14.5625587 148.439932,13.984375 147.738614,13.984375 L15.2613855,13.984375 C14.5658254,13.984375 13.984375,14.5681811 13.984375,15.2759489 Z M-1.25,15.2759489 C-1.25,6.15426036 6.15230614,-1.25 15.2613855,-1.25 L147.738614,-1.25 C156.856583,-1.25 164.25,6.15176596 164.25,15.2759489 L164.25,145.177176 C164.25,154.298865 156.847694,161.703125 147.738614,161.703125 L15.2613855,161.703125 C6.1434169,161.703125 -1.25,154.301359 -1.25,145.177176 L-1.25,15.2759489 Z" id="Shape" stroke="#354252" stroke-width="2.5" fill-rule="nonzero"></path>
                <g id="Group" transform="translate(36.581249, 38.619886)">
                    <polygon id="Path-1449" fill="#354252" points="3.18415239 78.0540008 44.4340551 13.0009938 87.6676408 80.7498873 1.55329402 80.9049991"></polygon>
                    <g id="Triangle-1-+-Rectangle-141" transform="translate(29.109375, 54.501985)">
                        <mask id="mask-2" fill="white">
                            <use xlink:href="#path-1"></use>
                        </mask>
                        <use id="Mask" fill="#FFFFFF" xlink:href="#path-1"></use>
                        <rect id="Rectangle-141" fill="#F4F3ED" mask="url(#mask-2)" x="15.4681993" y="-5" width="15.5808824" height="29.2141544"></rect>
                    </g>
                    <g id="Path-1444" transform="translate(27.421415, 41.089990) rotate(-328.000000) translate(-27.421415, -41.089990) translate(24.951718, -5.340313)" stroke="#354252" stroke-linecap="round" stroke-width="5">
                        <path d="M2.46969697,0.748799494 L2.46969697,92.1353009"></path>
                    </g>
                    <g id="Path-1444-Copy" transform="translate(62.911723, 41.089990) scale(-1, 1) rotate(-328.000000) translate(-62.911723, -41.089990) translate(60.442026, -5.340313)" stroke="#354252" stroke-linecap="round" stroke-width="5">
                        <path d="M2.46969697,0.748799494 L2.46969697,92.1353009" id="Path-1444"></path>
                    </g>
                </g>
                <rect id="Path" stroke="#354252" stroke-width="5" x="34.6972374" y="119.427375" width="93.4965393" height="1" rx="0.5"></rect>
                <g id="Path" stroke-linejoin="square">
                    <path stroke="#85C8F6" stroke-width="13" d="M6.5,15.2759489 L6.5,145.177176 C6.5,150.023109 10.425583,153.953125 15.2613855,153.953125 L147.738614,153.953125 C152.567029,153.953125 156.5,150.019116 156.5,145.177176 L156.5,15.2759489 C156.5,10.430016 152.574417,6.5 147.738614,6.5 L15.2613855,6.5 C10.432971,6.5 6.5,10.4340093 6.5,15.2759489 Z"></path>
                    <path stroke="#46A2E3" stroke-width="8" d="M4,15.2759489 L4,145.177176 C4,151.40319 9.04423908,156.453125 15.2613855,156.453125 L147.738614,156.453125 C153.947889,156.453125 159,151.39968 159,145.177176 L159,15.2759489 C159,9.04993531 153.955761,4 147.738614,4 L15.2613855,4 C9.05211135,4 4,9.05344511 4,15.2759489 Z"></path>
                </g>
            </g>
        </g>
    </g>
</svg>