<?xml version="1.0" encoding="UTF-8"?>
<svg width="61px" height="58px" viewBox="0 0 61 58" version="1.1" xmlns="http://www.w3.org/2000/svg" xmlns:xlink="http://www.w3.org/1999/xlink">
    <!-- Generator: Sketch 51.3 (57544) - http://www.bohemiancoding.com/sketch -->
    <title>Group Copy</title>
    <desc>Created with Sketch.</desc>
    <defs></defs>
    <g id="Page-1" stroke="none" stroke-width="1" fill="none" fill-rule="evenodd">
        <g id="Linear-Camping-iconset" transform="translate(-186.000000, -395.000000)">
            <g id="Group-Copy" transform="translate(188.000000, 397.000000)">
                <path d="M30.0500196,45.3816744 C29.5187192,44.8151628 28.941504,44.2291163 28.4823556,43.8058605 C27.9904108,44.2356279 27.4394983,44.8151628 26.9081323,45.3816744 C25.4520414,46.9378884 23.8122255,48.6830698 21.8837365,48.8913767 C22.1789033,52.2709116 25.0125052,54.9276558 28.4823556,54.9732372 C31.9522716,54.9277209 34.7792486,52.2709767 35.0744154,48.8913767 C33.1460575,48.6830698 31.5062417,46.9378884 30.0500196,45.3816744 Z" id="Shape" stroke="#434F5E" stroke-width="2"></path>
                <path d="M45.5394327,25.4062913 L45.5709676,25.4395666 C47.9906957,27.926255 49.3175685,31.3086975 49.3175685,34.960214 C49.3175685,42.5402905 43.0895708,48.6970233 35.4351749,48.6970233 C35.2325708,48.6970233 35.0607436,48.6701654 34.8289246,48.6125622 C34.1576931,48.4376852 33.4897571,48.0039703 32.7343054,47.3326026 C32.3796491,47.0174206 32.0168285,46.6598914 31.5835918,46.207225 C31.4153354,46.0314228 31.3117358,45.9213694 30.9865067,45.5742872 C30.1612569,44.6937778 29.5530248,44.0942738 29.0140592,43.6501811 L28.6499701,43.3501818 L28.6499701,37.6245021 L29.4761694,37.4786889 C29.9720982,37.3911641 30.4417322,37.2435639 30.8990898,37.0335723 C32.9303557,36.1019996 34.2581404,34.0773691 34.2581404,31.8150977 C34.2581404,28.6482172 31.6609183,26.0681553 28.4710382,26.062538 C25.2694191,26.0680946 22.6804649,28.6433941 22.6804649,31.8150977 C22.6804649,34.0749532 24.0122008,36.1009205 26.0463373,37.033753 C26.4979466,37.2411054 26.9746242,37.3904685 27.4708225,37.4790249 L28.2951289,37.6261386 L28.2951289,43.3685045 L27.9077925,43.6687624 C27.7417593,43.7974691 27.5682153,43.9453976 27.3833487,44.1151762 C27.0016766,44.4656978 26.7018352,44.7747928 25.9521071,45.5742081 C25.6519697,45.8945127 25.5246688,46.029609 25.3537749,46.2078554 C24.9212934,46.6589438 24.5562019,47.0177885 24.1999042,47.3335348 C23.4432051,48.0041114 22.7738634,48.4377957 22.091817,48.6154208 C21.8756708,48.6690649 21.6942223,48.6970233 21.4967399,48.6970233 C13.8446595,48.6970233 7.61441197,42.5358706 7.61441197,34.960214 C7.61441197,31.312353 8.94547761,27.9286869 11.3656857,25.4415104 L11.4056663,25.4002002 L11.4056663,12.8662605 C11.4056663,12.7885555 11.343384,12.7267256 11.2577952,12.7267256 C11.1722063,12.7267256 11.1099241,12.7885555 11.1099241,12.8662605 L11.1099241,25.3720296 L10.5772515,25.6536006 C8.70858046,26.6413812 6.39435939,27.1890512 3.60313464,27.1890512 C-1.34418257,27.1890512 -2.2742619,20.1506718 0.624687013,12.7490375 C3.7830125,4.68515954 10.1884513,-0.961615537 18.138397,-0.961646512 L38.8066364,-0.961646512 C46.753595,-0.961646512 53.1583101,4.68488102 56.3186844,12.74881 C59.2194123,20.150232 58.2933992,27.1890512 53.3485236,27.1890512 C50.5547399,27.1890512 48.2319557,26.639773 46.3728209,25.6527605 L45.8417342,25.3708072 L45.8417342,12.8662605 C45.8417342,12.7916095 45.7758563,12.7267256 45.6873038,12.7267256 C45.6017149,12.7267256 45.5394327,12.7885555 45.5394327,12.8662605 L45.5394327,25.4062913 Z M32.8705685,15.8653953 C32.1835438,15.8653953 31.6213902,16.4223435 31.6141162,17.0923721 L31.6133828,17.1387296 C31.6387317,17.800205 32.1882779,18.3258605 32.8640092,18.3258605 L32.8966325,18.3260575 C33.2534734,18.3189725 33.5815024,18.1633115 33.8095381,17.8998346 C34.0059352,17.6748683 34.1138366,17.3959928 34.1138366,17.0988837 C34.1138366,16.4301714 33.5751843,15.8832527 32.9230426,15.8653953 L32.8705685,15.8653953 Z M24.0680368,15.8653953 C23.378999,15.8653953 22.818239,16.4220941 22.818275,17.0988837 C22.818275,17.3922534 22.9281216,17.6770964 23.1239992,17.9014713 C23.3624312,18.1757868 23.6979676,18.3323721 24.0680368,18.3323721 C24.7409845,18.3323721 25.2932914,17.8029554 25.3178642,17.1835349 L25.3178642,17.0988837 C25.3178642,16.422109 24.7570779,15.8653953 24.0680368,15.8653953 Z" id="Shape" stroke="#434F5E" stroke-width="2"></path>
                <circle id="Oval-100" fill="#434F5E" cx="24" cy="17" r="1"></circle>
                <circle id="Oval-100-Copy" fill="#434F5E" cx="33" cy="17" r="1"></circle>
            </g>
        </g>
    </g>
</svg>