<?xml version="1.0" encoding="UTF-8"?>
<svg width="54px" height="63px" viewBox="0 0 54 63" version="1.1" xmlns="http://www.w3.org/2000/svg" xmlns:xlink="http://www.w3.org/1999/xlink">
    <!-- Generator: Sketch 51.3 (57544) - http://www.bohemiancoding.com/sketch -->
    <title>hygiene15</title>
    <desc>Created with Sketch.</desc>
    <defs></defs>
    <g id="Page-1" stroke="none" stroke-width="1" fill="none" fill-rule="evenodd">
        <g id="Linear-Camping-iconset" transform="translate(-708.000000, -262.000000)" fill="#434F5E">
            <g id="hygiene15" transform="translate(709.000000, 263.000000)">
                <g id="Group">
                    <path d="M11.3120729,13.1099606 C10.2096964,13.1099606 9.21424186,13.8927489 8.50897696,15.3142669 C7.88273307,16.5766081 7.5377925,18.2389618 7.5377925,19.9951076 C7.5377925,21.7512535 7.88273307,23.4136072 8.50897696,24.6759484 C9.21424186,26.0974664 10.2097919,26.8802547 11.3120729,26.8802547 C12.4143539,26.8802547 13.4099039,26.0974664 14.1151688,24.6759484 C14.7414127,23.4136072 15.0863533,21.7512535 15.0863533,19.9951076 C15.0863533,18.2389618 14.7414127,16.5766081 14.1151688,15.3142669 C13.4099039,13.8927489 12.4144494,13.1099606 11.3120729,13.1099606 L11.3120729,13.1099606 Z M12.6894636,23.6486031 C12.288013,24.4575846 11.7860268,24.9215413 11.3120729,24.9215413 C10.838119,24.9215413 10.3361328,24.4575846 9.93476873,23.6486031 C9.45605626,22.6836325 9.19234477,21.3861058 9.19234477,19.9951076 C9.19234477,18.6041095 9.45596974,17.3065828 9.93476873,16.3416121 C10.3361328,15.5326307 10.838119,15.068674 11.3120729,15.068674 C11.7860268,15.068674 12.288013,15.5326307 12.6893771,16.3416121 C13.168176,17.3065828 13.431801,18.6041095 13.431801,19.9951076 C13.431801,21.3861058 13.168176,22.6836325 12.6894636,23.6486031 L12.6894636,23.6486031 Z" id="Shape"></path>
                    <path d="M48.8370023,6.0580998 C46.7050023,2.15147358 43.8108884,0 40.6879271,0 L11.3120729,0 C8.18911162,0 5.29499772,2.15147358 3.16299772,6.0580998 C1.12338952,9.79545401 0,14.7450489 0,19.9951076 C0,25.2451663 1.12327107,30.1947613 3.16299772,33.9321155 C5.29499772,37.8387417 8.18911162,39.9902153 11.3120729,39.9902153 C11.5451845,39.9902153 11.7767563,39.976726 12.0070251,39.9529706 C12.0872164,39.9768454 12.1717904,39.9902153 12.2596811,39.9902153 L20.8473808,39.9902146 L20.8473808,39.0640958 C20.8473808,38.7372684 20.8473808,39.0640958 20.8473808,38.1996079 L16.0501139,38.1996086 C17.3158815,37.1820665 18.470779,35.7468356 19.4611481,33.9321155 C19.9850569,32.9722309 20.4479636,31.9318885 20.8473804,30.8275616 L20.8473804,60.1046967 C20.8473804,60.4326164 21.0251754,60.7341546 21.3108793,60.8908924 C21.5967016,61.0477495 21.9445923,61.034499 22.2177403,60.8567515 L24.6701503,59.2603659 L27.1239818,60.8568708 C27.4172665,61.0476301 27.7941777,61.0477495 28.0874624,60.8568708 L30.5428337,59.2601272 L32.998205,60.8568708 C33.1448474,60.9522505 33.3123371,60.9998806 33.4798269,60.9998806 C33.6475535,60.9998806 33.8152802,60.9521311 33.9619226,60.8566321 L36.4137403,59.2603659 L38.8687563,60.8568708 C39.162041,61.0475108 39.5388337,61.0476301 39.8321185,60.8568708 L42.2878451,59.2600078 L44.7442825,60.8568708 C45.0373303,61.0473914 45.4136492,61.0473914 45.7068155,60.857229 L48.1685831,59.259411 L50.6303508,60.857229 C50.9037358,61.0346184 51.2512711,61.047272 51.536738,60.8905342 C51.822205,60.7336771 51.9997631,60.4321389 51.9997631,60.1045773 L51.9997631,19.039998 C51.8328656,14.0364462 50.7292574,9.52543053 48.8370023,6.0580998 Z M17.9043462,33.0692818 C16.0987973,36.3776067 13.7576128,38.1996086 11.3120729,38.1996086 C8.86653303,38.1996086 6.52534852,36.3776067 4.71979954,33.0692818 C2.82197722,29.5916849 1.77676538,24.9485225 1.77676538,19.9951076 C1.77676538,15.0416928 2.82197722,10.3985303 4.71979954,6.92093346 C6.52546697,3.61260861 8.86653303,1.79060665 11.3120729,1.79060665 C13.7576128,1.79060665 16.0987973,3.61260861 17.9043462,6.92093346 C19.8021686,10.3985303 20.8473804,15.0416928 20.8473804,19.9951076 C20.8473804,24.9485225 19.8021686,29.5916849 17.9043462,33.0692818 L17.9043462,33.0692818 Z M48.6498497,57.4419452 C48.3568018,57.2517828 47.9808383,57.2517828 47.6877904,57.4419452 L45.2263781,59.0395245 L42.769467,57.4423033 C42.4761822,57.2516634 42.0993895,57.2517828 41.8063417,57.4423033 L39.350615,59.039047 L36.8952437,57.4423033 C36.6018405,57.2514247 36.2246925,57.251544 35.9315262,57.4425421 L33.4797084,59.0389276 L31.024574,57.4423033 C30.7312893,57.251544 30.3544966,57.251544 30.0612118,57.4423033 L27.605959,59.0389276 L25.1518907,57.4423033 C24.8584875,57.2514247 24.4814579,57.2514247 24.1880547,57.4424227 L22.6241458,58.460681 L22.6241458,32.3502935 L23.6309795,32.3502935 C24.1216036,32.3502935 24.5193622,31.9494364 24.5193622,31.4549902 C24.5193622,30.960544 24.1216036,30.5596869 23.6309795,30.5596869 L22.6241458,30.5596869 L22.6241458,19.0401174 C22.6241458,18.9779237 22.6177494,18.9171624 22.6057859,18.8585499 C22.4557084,14.0339393 21.3529294,9.52447554 19.4611481,6.05798043 C18.470779,4.24337965 17.3158815,2.80814873 16.0501139,1.79060665 L40.6879271,1.79060665 C43.133467,1.79060665 45.4746515,3.61260861 47.2802005,6.92093346 C49.1780228,10.3985303 50.2232346,15.0416928 50.2232346,19.9951076 L50.2232346,30.5596869 L50.1640091,30.5596869 C49.673385,30.5596869 49.2756264,30.960544 49.2756264,31.4549902 C49.2756264,31.9494364 49.673385,32.3502935 50.1640091,32.3502935 L50.2232346,32.3502935 L50.2232346,58.4631879 L48.6498497,57.4419452 L48.6498497,57.4419452 Z" id="Shape" stroke="#434F5E" stroke-width="0.2"></path>
                    <path d="M29.3166287,30.5596869 L27.4214123,30.5596869 C26.9307882,30.5596869 26.5330296,30.960544 26.5330296,31.4549902 C26.5330296,31.9494364 26.9307882,32.3502935 27.4214123,32.3502935 L29.3166287,32.3502935 C29.8072528,32.3502935 30.2050114,31.9494364 30.2050114,31.4549902 C30.2050114,30.960544 29.8072528,30.5596869 29.3166287,30.5596869 L29.3166287,30.5596869 Z" id="Shape" stroke="#434F5E" stroke-width="0.6"></path>
                    <path d="M35.0022779,30.5596869 L33.1070615,30.5596869 C32.6164374,30.5596869 32.2186788,30.960544 32.2186788,31.4549902 C32.2186788,31.9494364 32.6164374,32.3502935 33.1070615,32.3502935 L35.0022779,32.3502935 C35.4929021,32.3502935 35.8906606,31.9494364 35.8906606,31.4549902 C35.8906606,30.960544 35.4929021,30.5596869 35.0022779,30.5596869 L35.0022779,30.5596869 Z" id="Shape" stroke="#434F5E" stroke-width="0.6"></path>
                    <path d="M40.6879271,30.5596869 L38.7927107,30.5596869 C38.3020866,30.5596869 37.904328,30.960544 37.904328,31.4549902 C37.904328,31.9494364 38.3020866,32.3502935 38.7927107,32.3502935 L40.6879271,32.3502935 C41.1785513,32.3502935 41.5763098,31.9494364 41.5763098,31.4549902 C41.5763098,30.960544 41.1785513,30.5596869 40.6879271,30.5596869 L40.6879271,30.5596869 Z" id="Shape" stroke="#434F5E" stroke-width="0.6"></path>
                    <path d="M46.3735763,30.5596869 L44.4783599,30.5596869 C43.9877358,30.5596869 43.5899772,30.960544 43.5899772,31.4549902 C43.5899772,31.9494364 43.9877358,32.3502935 44.4783599,32.3502935 L46.3735763,32.3502935 C46.8642005,32.3502935 47.261959,31.9494364 47.261959,31.4549902 C47.261959,30.960544 46.8642005,30.5596869 46.3735763,30.5596869 L46.3735763,30.5596869 Z" id="Shape" stroke="#434F5E" stroke-width="0.6"></path>
                </g>
            </g>
        </g>
    </g>
</svg>