<?xml version="1.0" encoding="UTF-8"?>
<svg width="54px" height="66px" viewBox="0 0 54 66" version="1.1" xmlns="http://www.w3.org/2000/svg" xmlns:xlink="http://www.w3.org/1999/xlink">
    <!-- Generator: Sketch 51.3 (57544) - http://www.bohemiancoding.com/sketch -->
    <title>journey2</title>
    <desc>Created with Sketch.</desc>
    <defs></defs>
    <g id="Page-1" stroke="none" stroke-width="1" fill="none" fill-rule="evenodd">
        <g id="Linear-Camping-iconset" transform="translate(-579.000000, -259.000000)" fill="#434F5E" stroke="#434F5E" stroke-width="0.4">
            <g id="journey2" transform="translate(580.000000, 260.000000)">
                <path d="M5.1889788,58.32256 L4.04483436,58.32256 C1.78990548,58.32256 -0.0436809816,56.4832276 -0.0436809816,54.22208 L-0.0436809816,41.83808 C-0.0436809816,39.5770404 1.79011693,37.7376 4.04483436,37.7376 L5.00414724,37.7376 L5.00414724,25.5095297 C3.50569836,24.881187 2.50144785,23.404673 2.50144785,21.74336 L2.50144785,10.8976 C2.50144785,8.64744036 4.32631325,6.81696 6.57018405,6.81696 L9.48252761,6.81696 L9.48252761,5.77088 C9.48252761,3.92546769 10.9791756,2.42432 12.8197546,2.42432 L18.3780123,2.42432 C20.2183248,2.42432 21.7149202,3.92552036 21.7149202,5.77088 L21.7149202,6.81696 L29.8435583,6.81696 L29.8435583,3.14656 C29.8435583,1.30120036 31.3401537,-0.2 33.1804663,-0.2 L38.7387239,-0.2 C40.5793029,-0.2 42.0759509,1.30114769 42.0759509,3.14656 L42.0759509,6.81696 L45.4719264,6.81696 C47.7157972,6.81696 49.5406626,8.64744036 49.5406626,10.8976 L49.5406626,21.74336 C49.5406626,23.404673 48.5364121,24.881187 47.0379632,25.5095297 L47.0379632,37.7376 L48.1089325,37.7376 C50.3638614,37.7376 52.1974479,39.5769324 52.1974479,41.83808 L52.1974479,54.22208 C52.1974479,56.4831196 50.3636499,58.32256 48.1089325,58.32256 L46.8531169,58.32256 C46.0968818,61.6321129 43.1407736,64.03392 39.7037546,64.03392 L12.3383558,64.03392 C8.90123332,64.03392 5.94489275,61.632006 5.1889788,58.32256 Z M7.06629704,57.5292627 C7.47816845,60.1054025 9.70935975,62.03392 12.3380368,62.03392 L39.7034356,62.03392 C42.6470588,62.03392 45.0425521,59.6308648 45.0425521,56.67744 L45.0425521,25.824 L29.7481227,25.824 L29.7481227,27.27712 C29.7481227,29.2439721 28.1527387,30.84416 26.191411,30.84416 L25.8503804,30.84416 C23.8888409,30.84416 22.2936687,29.2440796 22.2936687,27.27712 L22.2936687,25.824 L6.99856851,25.824 L6.97666425,38.2788699 C7.04924465,38.4195693 7.08760736,38.5760373 7.08760736,38.7376 L7.08760736,57.32288 C7.08760736,57.3926829 7.08041756,57.4618628 7.06629704,57.5292627 Z M47.0609325,56.32256 L48.1089325,56.32256 C49.2629267,56.32256 50.2023558,55.3802404 50.2023558,54.22208 L50.2023558,41.83808 C50.2023558,40.6800344 49.2627221,39.7376 48.1089325,39.7376 L47.0609325,39.7376 L47.0609325,56.32256 Z M5.00382822,56.32256 L5.00382822,39.73728 L4.24451534,39.73728 L4.24451534,39.7376 L4.04451534,39.7376 C2.89052111,39.7376 1.95109202,40.6799196 1.95109202,41.83808 L1.95109202,54.22208 C1.95109202,55.3801256 2.8907257,56.32256 4.04451534,56.32256 L5.00382822,56.32256 Z M24.2884417,25.41824 L24.2884417,27.27712 C24.2884417,28.1410843 24.9894483,28.84416 25.8500613,28.84416 L26.191092,28.84416 C27.0517926,28.84416 27.7527117,28.1409964 27.7527117,27.27712 L27.7527117,25.41824 L27.0179632,25.41824 L27.0179632,26.3008 C27.0179632,26.8530396 26.5715763,27.3008 26.0204172,27.3008 C25.469258,27.3008 25.0228712,26.8530396 25.0228712,26.3008 L25.0228712,25.41824 L24.2884417,25.41824 Z M29.7478037,23.824 L45.4719264,23.824 C46.615074,23.824 47.5455706,22.8906404 47.5455706,21.74336 L47.5455706,10.8976 C47.5455706,9.75031964 46.615074,8.81696 45.4719264,8.81696 L6.56986503,8.81696 C5.42671743,8.81696 4.49622086,9.75031964 4.49622086,10.8976 L4.49622086,21.74336 C4.49622086,22.8906404 5.42671743,23.824 6.56986503,23.824 L22.2933497,23.824 L22.2933497,22.37088 C22.2933497,20.4040279 23.8887337,18.80384 25.8500613,18.80384 L26.191092,18.80384 C28.1526315,18.80384 29.7478037,20.4039204 29.7478037,22.37088 L29.7478037,23.824 Z M27.7533497,23.8 L27.7533497,22.3689433 C27.7533497,21.5060958 27.0523923,20.80384 26.1917301,20.80384 L25.8506994,20.80384 C24.9899496,20.80384 24.2890798,21.5061836 24.2890798,22.3689433 L24.2890798,23.8 L27.7533497,23.8 Z M31.8383313,6.81696 L40.0805399,6.81696 L40.0805399,3.14656 C40.0805399,2.40415327 39.4780678,1.8 38.7384049,1.8 L33.1801472,1.8 C32.4405579,1.8 31.8383313,2.40407964 31.8383313,3.14656 L31.8383313,6.81696 Z M11.4773006,6.81696 L19.7195092,6.81696 L19.7195092,5.77088 C19.7195092,5.02839964 19.1172826,4.42432 18.3776933,4.42432 L12.8194356,4.42432 C12.0797727,4.42432 11.4773006,5.02847327 11.4773006,5.77088 L11.4773006,6.81696 Z M34.5305521,59.17504 L17.5112393,59.17504 C15.1142914,59.17504 13.1649571,57.2198116 13.1649571,54.81632 L13.1649571,38.8 C13.1649571,36.1117604 15.345209,33.9248 18.025816,33.9248 L34.0156564,33.9248 C36.6964745,33.9248 38.8765153,36.111652 38.8765153,38.8 L38.8765153,54.8162922 C38.8768497,57.2197489 36.9275564,59.17504 34.5305521,59.17504 Z M15.1600491,44.69088 L15.1600491,54.81632 C15.1600491,56.1168118 16.2152134,57.17504 17.5112393,57.17504 L34.5305521,57.17504 C35.826578,57.17504 36.8817423,56.1168118 36.8817423,54.81632 L36.8817423,44.69088 L15.1600491,44.69088 Z M15.1600491,42.69088 L36.8817423,42.69088 L36.8817423,38.8 C36.8817423,37.2147533 35.5956536,35.9248 34.0159755,35.9248 L18.025816,35.9248 C16.4459322,35.9248 15.1600491,37.2146396 15.1600491,38.8 L15.1600491,42.69088 Z" id="Shape"></path>
            </g>
        </g>
    </g>
</svg>