<?xml version="1.0" encoding="UTF-8"?>
<svg width="61px" height="61px" viewBox="0 0 61 61" version="1.1" xmlns="http://www.w3.org/2000/svg" xmlns:xlink="http://www.w3.org/1999/xlink">
    <!-- Generator: Sketch 51.3 (57544) - http://www.bohemiancoding.com/sketch -->
    <title>lights28</title>
    <desc>Created with Sketch.</desc>
    <defs></defs>
    <g id="Page-1" stroke="none" stroke-width="1" fill="none" fill-rule="evenodd">
        <g id="Linear-Camping-iconset" transform="translate(-316.000000, -523.000000)" fill="#434F5E" stroke="#FFFFFF">
            <g id="lights28" transform="translate(317.000000, 524.000000)">
                <g id="Group">
                    <path d="M34.2966322,8.51837931 C34.085046,8.3067931 33.7981839,8.18811494 33.4988889,8.18811494 C33.1995939,8.18811494 32.9127318,8.30701916 32.7011456,8.51860536 L26.541636,14.6796973 C26.5377931,14.6835402 26.5353065,14.6882874 26.5312375,14.6923563 C26.4851226,14.7398276 26.4428506,14.7909157 26.4057778,14.8460728 C26.3974138,14.8585057 26.3904061,14.8716169 26.3824943,14.8842759 C26.3549157,14.9288084 26.3305019,14.9751494 26.3092529,15.0232989 C26.3022452,15.0393487 26.2945594,15.0551724 26.2882299,15.0716743 C26.2667548,15.1275096 26.2482184,15.1847011 26.2355594,15.2443793 L24.1583525,25.0867548 L0.330716475,48.9164253 C-0.109636015,49.3570038 -0.109636015,50.0711073 0.330716475,50.5116858 L8.35222989,58.5331992 C8.57240613,58.7533755 8.86130268,58.8634636 9.14997318,58.8634636 C9.43864368,58.8634636 9.72731418,58.7533755 9.94771648,58.5331992 L33.7764828,34.704433 L43.6193103,32.6274521 C43.6792146,32.6147931 43.7364061,32.5962567 43.7922414,32.5745556 C43.8082912,32.5684521 43.8238889,32.5609923 43.8397126,32.5539847 C43.8883142,32.5327356 43.9348812,32.5080958 43.9794138,32.4805172 C43.9920728,32.4726054 44.0051839,32.4658238 44.0176169,32.4572337 C44.0723218,32.4201609 44.12341,32.3781149 44.1706552,32.3322261 C44.1747241,32.3281571 44.1796973,32.3256705 44.1839923,32.3213755 L50.3448582,26.1614138 C50.5562184,25.9498276 50.6751226,25.6629655 50.6751226,25.3636705 C50.6751226,25.0643755 50.5562184,24.7775134 50.3448582,24.5659272 L34.2966322,8.51837931 L34.2966322,8.51837931 Z M9.14997318,56.1404215 L2.72349425,49.7139425 L25.1927739,27.2426284 L28.4063525,30.456433 L31.619931,33.6702375 L9.14997318,56.1404215 L9.14997318,56.1404215 Z M33.5809464,32.4400536 L26.4229579,25.2820651 L28.0132452,17.746341 L41.1168966,30.8499923 L33.5809464,32.4400536 L33.5809464,32.4400536 Z M43.386249,29.9288238 L28.9344138,15.4769885 L33.4988889,10.9116092 L47.9516284,25.3641226 L43.386249,29.9288238 L43.386249,29.9288238 Z" id="Shape" stroke-width="0.3"></path>
                    <path d="M6.73097318,40.4043755 C7.01964368,40.4043755 7.30831418,40.2942874 7.52871648,40.0738851 L15.5518123,32.0507893 C15.9923908,31.6104368 15.9921648,30.8961073 15.5518123,30.4555287 C15.1112337,30.0149502 14.3969042,30.0151762 13.9565517,30.4557548 L5.93345594,38.4788506 C5.49287739,38.9192031 5.49310345,39.6335326 5.93345594,40.0741111 C6.15363218,40.2942874 6.44230268,40.4043755 6.73097318,40.4043755 L6.73097318,40.4043755 Z" id="Shape" stroke-width="0.4"></path>
                    <path d="M46.71941,13.2718352 C47.0080805,13.2718352 47.296751,13.1617471 47.5171533,12.9415709 L51.5287011,8.9304751 C51.9692797,8.48989655 51.9692797,7.7757931 51.5287011,7.33521456 C51.0878966,6.89463602 50.3740192,6.89463602 49.9334406,7.33498851 L45.9218927,11.3460843 C45.4813142,11.7866628 45.4813142,12.5007663 45.9218927,12.9413448 C46.142069,13.1615211 46.4307395,13.2718352 46.71941,13.2718352 L46.71941,13.2718352 Z" id="Shape" stroke-width="0.4"></path>
                    <path d="M57.7354559,17.5340766 L52.0617356,17.5331724 L52.0615096,17.5331724 C51.4387318,17.5331724 50.9335019,18.0381762 50.9335019,18.660954 C50.9335019,19.2839579 51.4385057,19.7889617 52.0612835,19.7891877 L57.7350038,19.790092 L57.7352299,19.790092 C58.3580077,19.790092 58.8632375,19.2853142 58.8632375,18.6623103 C58.8632375,18.0393065 58.3582337,17.5343027 57.7354559,17.5340766 L57.7354559,17.5340766 Z" id="Shape" stroke-width="0.4"></path>
                    <path d="M40.2020575,7.92905747 C40.8248352,7.92883142 41.3298391,7.42382759 41.3298391,6.80104981 L41.3291609,1.12800766 C41.3291609,0.505003831 40.823931,0 40.2009272,0 C39.5781494,0 39.0731456,0.505229885 39.0731456,1.12800766 L39.0738238,6.80104981 C39.0738238,7.42405364 39.5788276,7.92905747 40.2020575,7.92905747 L40.2020575,7.92905747 Z" id="Shape" stroke-width="0.4"></path>
                </g>
            </g>
        </g>
    </g>
</svg>