<?xml version="1.0" encoding="UTF-8"?>
<svg width="64px" height="52px" viewBox="0 0 64 52" version="1.1" xmlns="http://www.w3.org/2000/svg" xmlns:xlink="http://www.w3.org/1999/xlink">
    <!-- Generator: Sketch 51.3 (57544) - http://www.bohemiancoding.com/sketch -->
    <title>noun_96666_cc</title>
    <desc>Created with Sketch.</desc>
    <defs></defs>
    <g id="Page-1" stroke="none" stroke-width="1" fill="none" fill-rule="evenodd">
        <g id="Linear-Camping-iconset" transform="translate(-185.000000, -528.000000)" fill="#434F5E">
            <g id="noun_96666_cc" transform="translate(185.000000, 528.000000)">
                <g id="Group">
                    <path d="M42.375,1.109375 L21.773438,8.726562 L0.234375,0.765625 L0.234375,43.640625 L21.28125,51.417969 L21.445312,51.480469 L21.949219,51.476562 L42.371094,43.984375 L63.75,51.886719 L63.75,9.015625 L42.375,1.109375 Z M20.792969,49.226562 L2.121094,42.324219 L2.121094,3.472656 L20.792969,10.375 L20.792969,49.226562 Z M22.679688,10.34375 L41.429688,3.46875 L41.429688,42.324219 L22.679688,49.253906 L22.679688,10.34375 Z M61.863281,49.179688 L43.316406,42.320312 L43.316406,3.472656 L61.863281,10.328125 L61.863281,49.179688 Z" id="Shape" stroke="#434F5E" stroke-width="0.2"></path>
                    <path d="M3.589844,35.210938 L3.570312,33.648438 C4.0625,33.644531 4.542969,33.59375 4.984375,33.5 L5.304688,35.03125 C4.761719,35.144531 4.183594,35.203125 3.589844,35.210938 L3.589844,35.210938 Z M6.980469,34.464844 L6.292969,33.0625 C6.703125,32.859375 7.070312,32.605469 7.390625,32.304688 L8.464844,33.4375 C8.03125,33.84375 7.53125,34.191406 6.980469,34.464844 L6.980469,34.464844 Z M9.570312,32.019531 L8.210938,31.242188 C8.429688,30.863281 8.609375,30.429688 8.75,29.960938 L10.25,30.40625 C10.074219,30.992188 9.847656,31.535156 9.570312,32.019531 L9.570312,32.019531 Z M10.683594,28.917969 L9.203125,28.421875 C9.382812,27.878906 9.585938,27.367188 9.804688,26.882812 L11.230469,27.523438 C11.03125,27.960938 10.847656,28.429688 10.683594,28.917969 L10.683594,28.917969 Z M55.203125,28.574219 C55.039062,28.070312 54.875,27.5625 54.714844,27.054688 L56.207031,26.59375 C56.363281,27.085938 56.523438,27.585938 56.6875,28.082031 L55.203125,28.574219 Z M35.757812,27.945312 L35.230469,26.472656 C35.625,26.332031 36.085938,26.125 36.59375,25.875 L37.285156,27.273438 C36.714844,27.554688 36.199219,27.785156 35.757812,27.945312 L35.757812,27.945312 Z M33.621094,27.910156 C33.320312,27.746094 32.792969,27.566406 32.28125,27.398438 L32.777344,25.914062 C33.484375,26.152344 33.980469,26.324219 34.375,26.539062 L33.621094,27.910156 Z M30.765625,26.871094 C30.292969,26.695312 29.785156,26.488281 29.257812,26.246094 L29.914062,24.828125 C30.40625,25.054688 30.875,25.246094 31.3125,25.410156 L30.765625,26.871094 Z M38.714844,26.53125 L37.96875,25.160156 C38.410156,24.917969 38.871094,24.664062 39.335938,24.398438 L40.105469,25.757812 C39.632812,26.023438 39.164062,26.289062 38.714844,26.53125 L38.714844,26.53125 Z M11.910156,26.195312 L10.558594,25.410156 C10.851562,24.910156 11.15625,24.445312 11.46875,24.019531 L12.726562,24.945312 C12.445312,25.328125 12.171875,25.742188 11.910156,26.195312 L11.910156,26.195312 Z M54.25,25.539062 L53.804688,24.019531 L55.304688,23.582031 L55.75,25.09375 L54.25,25.539062 Z M27.792969,25.484375 C27.34375,25.21875 26.878906,24.921875 26.410156,24.585938 L27.320312,23.316406 C27.746094,23.625 28.167969,23.894531 28.578125,24.132812 L27.792969,25.484375 Z M41.480469,24.972656 L40.703125,23.617188 L42.082031,22.835938 L42.851562,24.195312 L41.480469,24.972656 Z M13.671875,23.796875 L12.527344,22.734375 C12.914062,22.320312 13.324219,21.929688 13.746094,21.578125 L14.742188,22.78125 C14.394531,23.074219 14.03125,23.410156 13.671875,23.796875 L13.671875,23.796875 Z M25.117188,23.558594 C24.96875,23.429688 24.820312,23.296875 24.675781,23.160156 C24.433594,22.9375 24.195312,22.734375 23.960938,22.546875 L24.925781,21.320312 C25.191406,21.53125 25.464844,21.761719 25.742188,22.019531 C25.875,22.144531 26.007812,22.265625 26.140625,22.382812 L25.117188,23.558594 Z M44.21875,23.4375 L43.476562,22.0625 C44.011719,21.773438 44.5,21.523438 44.9375,21.328125 L45.582031,22.75 C45.175781,22.933594 44.714844,23.171875 44.21875,23.4375 L44.21875,23.4375 Z M53.386719,22.65625 C53.234375,22.355469 52.984375,22.132812 52.621094,21.96875 L53.261719,20.542969 C53.949219,20.855469 54.460938,21.324219 54.777344,21.941406 L53.386719,22.65625 Z M46.949219,22.265625 L46.539062,20.757812 C47.03125,20.625 47.570312,20.496094 48.128906,20.386719 L48.425781,21.917969 C47.90625,22.023438 47.40625,22.140625 46.949219,22.265625 L46.949219,22.265625 Z M15.921875,21.957031 L15.148438,20.597656 C15.585938,20.351562 16.226562,20.042969 16.804688,19.988281 L17.121094,21.523438 L16.945312,21.546875 C16.773438,21.5625 16.410156,21.679688 15.921875,21.957031 L15.921875,21.957031 Z M22.761719,21.753906 C22.335938,21.523438 21.898438,21.351562 21.46875,21.234375 L21.875,19.726562 C22.421875,19.875 22.96875,20.09375 23.5,20.378906 L22.761719,21.753906 Z M49.90625,21.703125 L49.765625,20.148438 C50.117188,20.117188 50.476562,20.109375 50.804688,20.101562 C51.03125,20.101562 51.257812,20.109375 51.472656,20.125 L51.355469,21.683594 C51.167969,21.667969 50.972656,21.671875 50.785156,21.664062 C50.496094,21.660156 50.203125,21.675781 49.90625,21.703125 L49.90625,21.703125 Z M18.398438,19.652344 C18.996094,19.539062 19.515625,19.484375 20.039062,19.484375 L20.117188,20.265625 L20.09375,21.046875 C19.617188,21.042969 19.191406,21.089844 18.699219,21.1875 L18.398438,19.652344 Z" id="Shape"></path>
                    <polygon id="Shape" points="58.65625 30.605469 57.550781 29.5 55.632812 31.421875 53.710938 29.5 52.601562 30.605469 54.527344 32.527344 52.601562 34.449219 53.710938 35.554688 55.632812 33.632812 57.550781 35.554688 58.65625 34.449219 56.734375 32.527344"></polygon>
                </g>
            </g>
        </g>
    </g>
</svg>