<?xml version="1.0" encoding="UTF-8"?>
<svg width="59px" height="59px" viewBox="0 0 59 59" version="1.1" xmlns="http://www.w3.org/2000/svg" xmlns:xlink="http://www.w3.org/1999/xlink">
    <!-- Generator: Sketch 51.3 (57544) - http://www.bohemiancoding.com/sketch -->
    <title>noun_86661_cc</title>
    <desc>Created with Sketch.</desc>
    <defs></defs>
    <g id="Page-1" stroke="none" stroke-width="1" fill="none" fill-rule="evenodd">
        <g id="Linear-Camping-iconset" transform="translate(-579.000000, -524.000000)" fill="#434F5E" stroke="#FFFFFF" stroke-width="1.5">
            <g id="noun_86661_cc" transform="translate(580.000000, 525.000000)">
                <g id="Group">
                    <path d="M30.2895625,16.6333125 L37.850375,20.075875 C38.09025,20.185125 38.3408125,20.2361875 38.5878125,20.2361875 C39.2646875,20.2361875 39.9106875,19.8490625 40.2099375,19.1935625 C40.61725,18.297 40.223,17.2413125 39.327625,16.834 L31.765625,13.3914375 C30.8714375,12.984125 29.813375,13.3795625 29.4060625,14.2749375 C28.99875,15.169125 29.3941875,16.226 30.2895625,16.6333125 L30.2895625,16.6333125 Z" id="Shape"></path>
                    <path d="M56.4858125,19.9025 C56.3195625,19.4595625 55.9846875,19.1009375 55.5548125,18.905 L17.48,1.569875 C16.1583125,0.69825 14.580125,0.187625 12.882,0.187625 L9.5178125,0.187625 C4.89725,0.187625 1.1388125,3.94725 1.1388125,8.5678125 L1.1388125,27.15575 C1.1388125,28.139 1.935625,28.937 2.9200625,28.937 L6.609625,28.937 L6.609625,31.9639375 L2.1814375,31.9639375 C1.197,31.9639375 0.4001875,32.7619375 0.4001875,33.7451875 C0.4001875,34.7284375 1.197,35.5264375 2.1814375,35.5264375 L6.609625,35.5264375 L6.609625,36.7590625 L2.1814375,36.7590625 C1.197,36.7590625 0.4001875,37.5570625 0.4001875,38.5403125 C0.4001875,39.5235625 1.197,40.3215625 2.1814375,40.3215625 L6.609625,40.3215625 L6.609625,41.5541875 L2.1814375,41.5541875 C1.197,41.5541875 0.4001875,42.3521875 0.4001875,43.3354375 C0.4001875,44.3186875 1.197,45.1166875 2.1814375,45.1166875 L6.609625,45.1166875 L6.609625,47.777875 L3.0221875,47.777875 C2.4973125,47.777875 1.9985625,48.0094375 1.660125,48.4108125 C1.3216875,48.813375 1.178,49.3441875 1.2670625,49.8619375 C1.9605625,53.8899375 5.431625,56.812375 9.5178125,56.812375 L12.882,56.812375 C17.5025625,56.812375 21.2621875,53.0539375 21.2621875,48.433375 L21.2621875,19.752875 L41.360625,28.9025625 C42.7464375,29.533125 44.2165625,29.85375 45.7294375,29.85375 C49.8595625,29.85375 53.6334375,27.4265 55.344625,23.66925 L56.4395,21.26575 C56.63425,20.8346875 56.650875,20.34425 56.4858125,19.9025 L56.4858125,19.9025 Z M17.6996875,48.433375 C17.6996875,51.088625 15.5384375,53.249875 12.882,53.249875 L9.5178125,53.249875 C7.9621875,53.249875 6.5609375,52.5124375 5.6774375,51.3415625 L8.390875,51.3415625 C9.3753125,51.3415625 10.172125,50.5435625 10.172125,49.5603125 L10.172125,27.15575 C10.172125,26.1725 9.3753125,25.3745 8.390875,25.3745 L4.7025,25.3745 L4.7025,8.5678125 C4.7025,5.911375 6.86375,3.750125 9.519,3.750125 L12.8831875,3.750125 C15.539625,3.750125 17.700875,5.911375 17.700875,8.5678125 L17.700875,48.433375 L17.6996875,48.433375 Z M52.1015625,22.192 C50.9675,24.6821875 48.466625,26.2900625 45.7294375,26.2900625 C44.7295625,26.2900625 43.7558125,26.0775 42.8355,25.6595 L21.2621875,15.8376875 L21.2621875,8.5678125 C21.2621875,8.082125 21.2123125,7.6095 21.13275,7.1475625 L52.4578125,21.4094375 L52.1015625,22.192 L52.1015625,22.192 Z" id="Shape"></path>
                    <path d="M13.9543125,9.231625 L12.98175,9.231625 L12.98175,8.2590625 C12.98175,7.274625 12.1849375,6.4778125 11.2005,6.4778125 C10.2160625,6.4778125 9.41925,7.274625 9.41925,8.2590625 L9.41925,9.231625 L8.4466875,9.231625 C7.46225,9.231625 6.6654375,10.0284375 6.6654375,11.012875 C6.6654375,11.9973125 7.46225,12.794125 8.4466875,12.794125 L9.41925,12.794125 L9.41925,13.7666875 C9.41925,14.751125 10.2160625,15.5479375 11.2005,15.5479375 C12.1849375,15.5479375 12.98175,14.751125 12.98175,13.7666875 L12.98175,12.794125 L13.9543125,12.794125 C14.93875,12.794125 15.7355625,11.9973125 15.7355625,11.012875 C15.7355625,10.0284375 14.93875,9.231625 13.9543125,9.231625 L13.9543125,9.231625 Z" id="Shape"></path>
                </g>
            </g>
        </g>
    </g>
</svg>