<?xml version="1.0" encoding="UTF-8"?>
<svg width="1200px" height="801px" viewBox="0 0 1200 801" version="1.1" xmlns="http://www.w3.org/2000/svg" xmlns:xlink="http://www.w3.org/1999/xlink">
    <!-- Generator: Sketch 51.3 (57544) - http://www.bohemiancoding.com/sketch -->
    <title>Point of drinking water</title>
    <desc>Created with Sketch.</desc>
    <defs>
        <path d="M67.81385,181.864407 C105.2664,181.864407 135.6277,157.76692 135.6277,121.24294 C135.6277,84.71896 74.04722,0 67.81385,0 C61.58047,0 0,84.71896 0,121.24294 C0,157.76692 30.36129,181.864407 67.81385,181.864407 L67.81385,181.864407 Z" id="path-1"></path>
        <path d="M65.8138,177.364407 C28.4487,177.364407 0.5,153.24643 0.5,119.24294 C0.5,103.60879 12.6264,76.5933 31.6863,46.2549 C39.3038,34.1299 47.5194,22.3584 54.5584,13.347 C57.8223,9.1685 60.6931,5.7683 62.9183,3.4382 C63.9925,2.3134 64.8934,1.4626 65.5787,0.9189 C65.9556,0.62 66.1781,0.5 65.8138,0.5 C65.4496,0.5 65.6721,0.62 66.049,0.9189 C66.7343,1.4626 67.6352,2.3134 68.7094,3.4382 C70.9346,5.7683 73.8054,9.1685 77.0693,13.347 C84.1083,22.3584 92.3239,34.1299 99.9414,46.2549 C119.0013,76.5933 131.1277,103.60879 131.1277,119.24294 C131.1277,153.24643 103.179,177.364407 65.8138,177.364407 L65.8138,177.364407 Z" id="path-3"></path>
        <path d="M67.8138,181.864407 C105.2664,181.864407 135.6277,157.76692 135.6277,121.24294 C135.6277,84.71896 74.0472,0 67.8138,0 C61.5805,0 0,84.71896 0,121.24294 C0,157.76692 30.3613,181.864407 67.8138,181.864407 L67.8138,181.864407 Z" id="path-5"></path>
        <path d="M66.9831,180.5 C28.9512,180.5 0.5,155.94843 0.5,121.33333 C0.5,105.41869 12.8378,77.9322 32.2306,47.064 C39.9802,34.7287 48.3383,22.753 55.4996,13.585 C58.8205,9.3335 61.7417,5.8737 64.0064,3.5022 C65.1004,2.3567 66.0182,1.4899 66.7171,0.9355 C67.1078,0.6256 67.3406,0.5 66.9831,0.5 C66.6255,0.5 66.8583,0.6256 67.249,0.9355 C67.9479,1.4899 68.8657,2.3567 69.9597,3.5022 C72.2244,5.8737 75.1456,9.3335 78.4665,13.585 C85.6278,22.753 93.9859,34.7287 101.7355,47.064 C121.1283,77.9322 133.4661,105.41869 133.4661,121.33333 C133.4661,155.94843 105.0149,180.5 66.9831,180.5 L66.9831,180.5 Z" id="path-7"></path>
        <path d="M68.9831,185 C107.0813,185 137.9661,160.48703 137.9661,123.33333 C137.9661,86.17963 75.3239,0 68.9831,0 C62.6422,0 0,86.17963 0,123.33333 C0,160.48703 30.8848,185 68.9831,185 L68.9831,185 Z" id="path-9"></path>
        <path d="M56.6568,151.18644 C87.8726,151.18644 113.1781,131.2415 113.1781,101.01145 C113.1781,70.78139 61.8522,0.6615 56.6568,0.6615 C51.4615,0.6615 0.1356,70.78139 0.1356,101.01145 C0.1356,131.2415 25.441,151.18644 56.6568,151.18644 L56.6568,151.18644 Z" id="path-11"></path>
        <path d="M68.9831,185 C107.0813,185 137.9661,160.48703 137.9661,123.33333 C137.9661,86.17963 75.3239,0 68.9831,0 C62.6422,0 0,86.17963 0,123.33333 C0,160.48703 30.8848,185 68.9831,185 L68.9831,185 Z" id="path-13"></path>
    </defs>
    <g id="Point-of-drinking-water" stroke="none" stroke-width="1" fill="none" fill-rule="evenodd">
        <rect fill="#FFFFFF" x="0" y="0" width="1200" height="801"></rect>
        <g id="Page-1" transform="translate(194.000000, 307.000000)">
            <g id="Group-3" transform="translate(0.000000, 3.000000)">
                <mask id="mask-2" fill="white">
                    <use xlink:href="#path-1"></use>
                </mask>
                <g id="Clip-2"></g>
                <path d="M67.81385,181.8644 C105.2664,181.8644 135.6277,157.7669 135.6277,121.2429 C135.6277,84.71896 74.04722,0 67.81385,0 C61.58047,0 0,84.71896 0,121.2429 C0,157.7669 30.36129,181.8644 67.81385,181.8644 L67.81385,181.8644 Z" id="Stroke-1" stroke="#47576B" stroke-width="10" stroke-linecap="round" stroke-linejoin="round" mask="url(#mask-2)"></path>
            </g>
            <path d="M69.46784,158.88377 L69.46784,158.88377 C91.39129,158.88377 109.16375,141.43589 109.16375,119.91283" id="Stroke-4" stroke="#47576B" stroke-width="5" stroke-linecap="round"></path>
            <g id="Group-8" transform="translate(341.000000, 5.000000)">
                <mask id="mask-4" fill="white">
                    <use xlink:href="#path-3"></use>
                </mask>
                <g id="Clip-7"></g>
                <path d="M65.8138,179.864407 C103.2664,179.864407 133.6277,155.76692 133.6277,119.24294 C133.6277,82.71896 72.0472,-2 65.8138,-2 C59.5805,-2 -2,82.71896 -2,119.24294 C-2,155.76692 28.3613,179.864407 65.8138,179.864407 L65.8138,179.864407 Z" id="Fill-6" fill="#3D4C5E" mask="url(#mask-4)"></path>
            </g>
            <g id="Group-11" transform="translate(339.000000, 3.000000)">
                <mask id="mask-6" fill="white">
                    <use xlink:href="#path-5"></use>
                </mask>
                <g id="Clip-10"></g>
                <path d="M67.81385,181.8644 C105.2664,181.8644 135.6277,157.7669 135.6277,121.2429 C135.6277,84.71896 74.04722,0 67.81385,0 C61.58047,0 0,84.71896 0,121.2429 C0,157.7669 30.36129,181.8644 67.81385,181.8644 L67.81385,181.8644 Z" id="Stroke-9" stroke="#354252" stroke-width="10" mask="url(#mask-6)"></path>
            </g>
            <path d="M408.4678,158.88377 L408.4678,158.88377 C430.39125,158.88377 448.16371,141.43589 448.16371,119.91283" id="Stroke-12" stroke="#FFFFFF" stroke-width="5" stroke-linecap="round"></path>
            <g id="Group-16" transform="translate(677.000000, 2.000000)">
                <mask id="mask-8" fill="white">
                    <use xlink:href="#path-7"></use>
                </mask>
                <g id="Clip-15"></g>
                <path d="M66.9831,183 C105.0813,183 135.9661,158.48703 135.9661,121.33333 C135.9661,84.17963 73.3239,-2 66.9831,-2 C60.6422,-2 -2,84.17963 -2,121.33333 C-2,158.48703 28.8848,183 66.9831,183 L66.9831,183 Z" id="Fill-14" fill="#67B5EA" mask="url(#mask-8)"></path>
            </g>
            <g id="Group-19" transform="translate(675.000000, 0.000000)">
                <mask id="mask-10" fill="white">
                    <use xlink:href="#path-9"></use>
                </mask>
                <g id="Clip-18"></g>
                <path d="M68.98305,185 C107.0813,185 137.9661,160.487 137.9661,123.3333 C137.9661,86.17963 75.3239,0 68.98305,0 C62.6422,0 0,86.17963 0,123.3333 C0,160.487 30.88476,185 68.98305,185 L68.98305,185 Z" id="Stroke-17" stroke="#354252" stroke-width="10" mask="url(#mask-10)"></path>
            </g>
            <g id="Group-22" transform="translate(678.000000, 15.000000)">
                <mask id="mask-12" fill="white">
                    <use xlink:href="#path-11"></use>
                </mask>
                <g id="Clip-21"></g>
                <polygon id="Fill-20" fill-opacity="0.7105" fill="#8CCEFB" mask="url(#mask-12)" points="-4.8644 -4.3385 118.1781 -4.3385 118.1781 156.18644 -4.8644 156.18644"></polygon>
            </g>
            <g id="Group-25" transform="translate(675.000000, 0.000000)">
                <mask id="mask-14" fill="white">
                    <use xlink:href="#path-13"></use>
                </mask>
                <g id="Clip-24"></g>
                <path d="M68.98305,185 C107.0813,185 137.9661,160.487 137.9661,123.3333 C137.9661,86.17963 75.3239,0 68.98305,0 C62.6422,0 0,86.17963 0,123.3333 C0,160.487 30.88476,185 68.98305,185 L68.98305,185 Z" id="Stroke-23" stroke="#354252" stroke-width="10" mask="url(#mask-14)"></path>
            </g>
            <g id="Group-30" transform="translate(745.000000, 118.000000)" stroke-linecap="round">
                <path d="M0.6656,40.57143 L0.6656,40.57143 C22.96704,40.57143 41.04592,22.82272 41.04592,0.92857" id="Stroke-26" stroke="#354252" stroke-width="11"></path>
                <path d="M0.6656,40.57143 L0.6656,40.57143 C22.96704,40.57143 41.04592,22.82272 41.04592,0.92857" id="Stroke-28" stroke="#FFFFFF" stroke-width="5"></path>
            </g>
        </g>
    </g>
</svg>