<?xml version="1.0" encoding="UTF-8"?>
<svg width="48px" height="65px" viewBox="0 0 48 65" version="1.1" xmlns="http://www.w3.org/2000/svg" xmlns:xlink="http://www.w3.org/1999/xlink">
    <!-- Generator: Sketch 51.3 (57544) - http://www.bohemiancoding.com/sketch -->
    <title>Shower-Linear</title>
    <desc>Created with Sketch.</desc>
    <defs></defs>
    <g id="Page-1" stroke="none" stroke-width="1" fill="none" fill-rule="evenodd">
        <g id="Linear-Camping-iconset" transform="translate(-322.000000, -260.000000)" fill="#434F5E" stroke="#434F5E" stroke-width="0.6">
            <g id="Shower-Linear" transform="translate(323.000000, 261.000000)">
                <path d="M23.7419764,15.5424508 L23.7419764,11.6874503 C26.6984335,11.3706357 29.007652,8.87841334 29.007652,5.86075394 C29.007652,2.62924466 26.3591758,-1.13489465e-16 23.1036741,-1.13489465e-16 C19.8481723,-1.13489465e-16 17.1996961,2.62924466 17.1996961,5.86075394 C17.1996961,6.21067571 17.485496,6.49438321 17.8379985,6.49438321 C18.190501,6.49438321 18.4763009,6.21067571 18.4763009,5.86075394 C18.4763009,3.32797934 20.5520603,1.26725854 23.1036741,1.26725854 C25.6552879,1.26725854 27.7310472,3.32797934 27.7310472,5.86075394 C27.7310472,8.39352854 25.6551283,10.4542493 23.1036741,10.4542493 C22.7511716,10.4542493 22.4653717,10.7379568 22.4653717,11.0878786 L22.4653717,15.6023288 C22.4653717,15.6096155 2.98869135,24.8261889 2.98869135,24.8261889 C2.12299374,25.3254887 1.40027586,26.0457668 0.898729761,26.9095619 C0.399417719,27.7709809 0.135479682,28.7527895 0.135479682,29.7491715 C0.135479682,32.8900718 2.70895533,35.4454986 5.87222239,35.4454986 L6.38047066,35.4454986 L6.38047066,62.6582917 C6.38047066,63.0082135 6.66627056,63.291921 7.01877305,63.291921 L39.3312356,63.291921 C39.6837381,63.291921 39.969538,63.0082135 39.969538,62.6582917 L39.969538,35.4454986 L40.4777863,35.4454986 C42.009712,35.4454986 43.450201,34.8530553 44.5338788,33.7771528 C45.6177163,32.7014087 46.214529,31.2708322 46.214529,29.7491715 C46.214529,27.7280525 45.1212766,25.8415798 43.3614769,24.8261889 L23.7419764,15.5424508 Z M7.65707544,33.592133 L11.3664102,33.592133 L11.3664102,62.0246625 L7.65707544,62.0246625 L7.65707544,33.592133 L7.65707544,33.592133 Z M33.7069937,33.592133 L33.7069937,62.0246625 L12.643015,62.0246625 L12.643015,33.592133 L33.7069937,33.592133 L33.7069937,33.592133 Z M34.9835985,62.0246625 L34.9835985,33.592133 L38.6929333,33.592133 L38.6929333,62.0246625 L34.9835985,62.0246625 L34.9835985,62.0246625 Z M40.4777863,34.1782401 L39.969538,34.1782401 L39.969538,32.9585037 C39.969538,32.608582 39.6837381,32.3248745 39.3312356,32.3248745 L7.01877305,32.3248745 C6.66627056,32.3248745 6.38047066,32.608582 6.38047066,32.9585037 L6.38047066,34.1782401 L5.87222239,34.1782401 C3.41284329,34.1782401 1.41208446,32.1913371 1.41208446,29.7491715 C1.41208446,28.9742429 1.6171391,28.2110364 2.0049078,27.5420823 C2.39507013,26.8704353 2.95709538,26.3101486 3.63034483,25.9215755 L23.1748448,16.6809242 L42.7196639,25.9215755 C44.087865,26.7110775 44.9377647,28.1776125 44.9377647,29.7490131 C44.9379242,30.9323157 44.4738784,32.0444935 43.6311597,32.881201 C42.7886005,33.7175916 41.668699,34.1782401 40.4777863,34.1782401 Z" id="Shape"></path>
            </g>
        </g>
    </g>
</svg>