<?xml version="1.0" encoding="UTF-8"?>
<svg width="1200px" height="800px" viewBox="0 0 1200 800" version="1.1" xmlns="http://www.w3.org/2000/svg" xmlns:xlink="http://www.w3.org/1999/xlink">
    <!-- Generator: Sketch 51.3 (57544) - http://www.bohemiancoding.com/sketch -->
    <title>Shower spot</title>
    <desc>Created with Sketch.</desc>
    <defs></defs>
    <g id="Shower-spot" stroke="none" stroke-width="1" fill="none" fill-rule="evenodd">
        <rect fill="#FFFFFF" x="0" y="0" width="1200" height="800"></rect>
        <g id="Shower-Linear-+-Shower-Full-+-Shower-Colored" transform="translate(178.000000, 290.000000)">
            <g id="Shower-Linear" transform="translate(0.106983, 0.000000)" fill="#47576B" stroke="#47576B" stroke-width="1.2">
                <path d="M81.4490418,53.2745634 L81.4490418,40.0608515 C91.5914408,38.974912 99.5134278,30.4323688 99.5134278,20.088795 C99.5134278,9.01221199 90.4275858,-3.89005683e-16 79.2592866,-3.89005683e-16 C68.0909873,-3.89005683e-16 59.0051453,9.01221199 59.0051453,20.088795 C59.0051453,21.2882152 59.9856082,22.260674 61.1949005,22.260674 C62.4041929,22.260674 63.3846558,21.2882152 63.3846558,20.088795 C63.3846558,11.4072516 70.5057399,4.34375804 79.2592866,4.34375804 C88.0128332,4.34375804 95.1339173,11.4072516 95.1339173,20.088795 C95.1339173,28.7703384 88.0122858,35.8338319 79.2592866,35.8338319 C78.0499942,35.8338319 77.0695313,36.8062908 77.0695313,38.005711 L77.0695313,53.479806 C77.0695313,53.5047826 10.2529816,85.0962561 10.2529816,85.0962561 C7.283126,86.8076968 4.8037756,89.2765803 3.08317541,92.2373944 C1.37023935,95.1900639 0.464775554,98.5553904 0.464775554,101.97067 C0.464775554,112.736674 9.29332133,121.495863 20.145201,121.495863 L21.8887936,121.495863 L21.8887936,214.772637 C21.8887936,215.972057 22.8692565,216.944516 24.0785489,216.944516 L134.929435,216.944516 C136.138727,216.944516 137.11919,215.972057 137.11919,214.772637 L137.11919,121.495863 L138.862782,121.495863 C144.118195,121.495863 149.059925,119.465156 152.777582,115.777305 C156.495787,112.089998 158.543208,107.186438 158.543208,101.97067 C158.543208,95.0429191 154.792705,88.5766923 148.755549,85.0962561 L81.4490418,53.2745634 Z M26.2683041,115.143116 L38.9935194,115.143116 L38.9935194,212.600758 L26.2683041,212.600758 L26.2683041,115.143116 L26.2683041,115.143116 Z M115.634954,115.143116 L115.634954,212.600758 L43.3730299,212.600758 L43.3730299,115.143116 L115.634954,115.143116 L115.634954,115.143116 Z M120.014464,212.600758 L120.014464,115.143116 L132.739679,115.143116 L132.739679,212.600758 L120.014464,212.600758 L120.014464,212.600758 Z M138.862782,117.152105 L137.11919,117.152105 L137.11919,112.971237 C137.11919,111.771817 136.138727,110.799358 134.929435,110.799358 L24.0785489,110.799358 C22.8692565,110.799358 21.8887936,111.771817 21.8887936,112.971237 L21.8887936,117.152105 L20.145201,117.152105 C11.7080739,117.152105 4.84428608,110.341635 4.84428608,101.97067 C4.84428608,99.3144621 5.54774495,96.6984339 6.87802128,94.4054726 C8.21650918,92.1032808 10.1445887,90.1827968 12.454233,88.850892 L79.5034443,57.1768871 L146.55375,88.850892 C151.247491,91.5570533 154.16315,96.5838672 154.16315,101.970127 C154.163697,106.026111 152.571745,109.838302 149.680721,112.706268 C146.790244,115.573148 142.948318,117.152105 138.862782,117.152105 Z" id="Shape"></path>
            </g>
            <rect id="Rectangle-385" fill="#3D4C5E" x="385.560866" y="113.113473" width="75.4730308" height="99.4027493"></rect>
            <g id="Shower-Full" transform="translate(342.393758, 0.000000)" fill="#354252" stroke="#354252" stroke-width="0.7">
                <path d="M80.9616473,53.2745634 L80.9616473,40.0608515 C91.0433537,38.974912 98.9179353,30.4323688 98.9179353,20.088795 C98.9179353,9.01221199 89.8864633,-3.89005683e-16 78.7849956,-3.89005683e-16 C67.6835279,-3.89005683e-16 58.652056,9.01221199 58.652056,20.088795 C58.652056,21.2882152 59.6266518,22.260674 60.8287076,22.260674 C62.0307635,22.260674 63.0053593,21.2882152 63.0053593,20.088795 C63.0053593,11.4072516 70.0838306,4.34375804 78.7849956,4.34375804 C87.4861607,4.34375804 94.5646319,11.4072516 94.5646319,20.088795 C94.5646319,28.7703384 87.4856165,35.8338319 78.7849956,35.8338319 C77.5829397,35.8338319 76.6083439,36.8062908 76.6083439,38.005711 L76.6083439,53.479806 C76.6083439,53.5047826 10.1916273,85.0962561 10.1916273,85.0962561 C7.23954346,86.8076968 4.77502961,89.2765803 3.06472556,92.2373944 C1.36203978,95.1900639 0.461994318,98.5553904 0.461994318,101.97067 C0.461994318,112.736674 9.2377097,121.495863 20.0246512,121.495863 L21.7578101,121.495863 L21.7578101,214.772637 C21.7578101,215.972057 22.7324059,216.944516 23.9344618,216.944516 L134.122011,216.944516 C135.324067,216.944516 136.298663,215.972057 136.298663,214.772637 L136.298663,121.495863 L138.031822,121.495863 C143.255786,121.495863 148.167944,119.465156 151.863355,115.777305 C155.559309,112.089998 157.594479,107.186438 157.594479,101.97067 C157.594479,95.0429191 153.866418,88.5766923 147.86539,85.0962561 L80.9616473,53.2745634 Z M26.1111135,115.143116 L38.7601805,115.143116 L38.7601805,212.600758 L26.1111135,212.600758 L26.1111135,115.143116 L26.1111135,115.143116 Z M114.942989,115.143116 L114.942989,212.600758 L43.1134838,212.600758 L43.1134838,115.143116 L114.942989,115.143116 L114.942989,115.143116 Z M119.296292,212.600758 L119.296292,115.143116 L131.945359,115.143116 L131.945359,212.600758 L119.296292,212.600758 L119.296292,212.600758 Z M138.031822,117.152105 L136.298663,117.152105 L136.298663,112.971237 C136.298663,111.771817 135.324067,110.799358 134.122011,110.799358 L23.9344618,110.799358 C22.7324059,110.799358 21.7578101,111.771817 21.7578101,112.971237 L21.7578101,117.152105 L20.0246512,117.152105 C11.6380123,117.152105 4.81529766,110.341635 4.81529766,101.97067 C4.81529766,99.3144621 5.51454701,96.6984339 6.8368629,94.4054726 C8.16734124,92.1032808 10.083883,90.1827968 12.3797064,88.850892 L79.0276923,57.1768871 L145.676766,88.850892 C150.342419,91.5570533 153.240631,96.5838672 153.240631,101.970127 C153.241175,106.026111 151.658749,109.838302 148.785025,112.706268 C145.911845,115.573148 142.09291,117.152105 138.031822,117.152105 Z" id="Shape"></path>
            </g>
            <g id="Shower-Colored" transform="translate(682.543723, 0.000000)">
                <rect id="Rectangle-404" fill="#FAEAC4" x="26.257939" y="113.113473" width="12.4613948" height="99.4027493"></rect>
                <rect id="Rectangle-404-Copy-2" fill="#FBE5B2" x="33.2303861" y="112.650273" width="7.12079701" height="99.4027493"></rect>
                <rect id="Rectangle-404-Copy" fill="#FAEAC4" x="120.070731" y="113.113473" width="11.867995" height="99.4027493"></rect>
                <rect id="Rectangle-404-Copy-3" fill="#FBE5B2" x="125.800747" y="112.650273" width="7.12079701" height="99.4027493"></rect>
                <rect id="Rectangle-385" fill="#8CCEFB" x="42.1671077" y="113.113473" width="61.7506616" height="99.4027493"></rect>
                <rect id="Rectangle-385-Copy" fill="#7DC1EF" x="102.917769" y="113.113473" width="13.7223692" height="99.4027493"></rect>
                <path d="M80.9616473,53.2745634 L80.9616473,40.0608515 C91.0433537,38.974912 98.9179353,30.4323688 98.9179353,20.088795 C98.9179353,9.01221199 89.8864633,-3.89005683e-16 78.7849956,-3.89005683e-16 C67.6835279,-3.89005683e-16 58.652056,9.01221199 58.652056,20.088795 C58.652056,21.2882152 59.6266518,22.260674 60.8287076,22.260674 C62.0307635,22.260674 63.0053593,21.2882152 63.0053593,20.088795 C63.0053593,11.4072516 70.0838306,4.34375804 78.7849956,4.34375804 C87.4861607,4.34375804 94.5646319,11.4072516 94.5646319,20.088795 C94.5646319,28.7703384 87.4856165,35.8338319 78.7849956,35.8338319 C77.5829397,35.8338319 76.6083439,36.8062908 76.6083439,38.005711 L76.6083439,53.479806 C76.6083439,53.5047826 10.1916273,85.0962561 10.1916273,85.0962561 C7.23954346,86.8076968 4.77502961,89.2765803 3.06472556,92.2373944 C1.36203978,95.1900639 0.461994318,98.5553904 0.461994318,101.97067 C0.461994318,112.736674 9.2377097,121.495863 20.0246512,121.495863 L21.7578101,121.495863 L21.7578101,214.772637 C21.7578101,215.972057 22.7324059,216.944516 23.9344618,216.944516 L134.122011,216.944516 C135.324067,216.944516 136.298663,215.972057 136.298663,214.772637 L136.298663,121.495863 L138.031822,121.495863 C143.255786,121.495863 148.167944,119.465156 151.863355,115.777305 C155.559309,112.089998 157.594479,107.186438 157.594479,101.97067 C157.594479,95.0429191 153.866418,88.5766923 147.86539,85.0962561 L80.9616473,53.2745634 Z M26.1111135,115.143116 L38.7601805,115.143116 L38.7601805,212.600758 L26.1111135,212.600758 L26.1111135,115.143116 L26.1111135,115.143116 Z M114.942989,115.143116 L114.942989,212.600758 L43.1134838,212.600758 L43.1134838,115.143116 L114.942989,115.143116 L114.942989,115.143116 Z M119.296292,212.600758 L119.296292,115.143116 L131.945359,115.143116 L131.945359,212.600758 L119.296292,212.600758 L119.296292,212.600758 Z M138.031822,117.152105 L136.298663,117.152105 L136.298663,112.971237 C136.298663,111.771817 135.324067,110.799358 134.122011,110.799358 L23.9344618,110.799358 C22.7324059,110.799358 21.7578101,111.771817 21.7578101,112.971237 L21.7578101,117.152105 L20.0246512,117.152105 C11.6380123,117.152105 4.81529766,110.341635 4.81529766,101.97067 C4.81529766,99.3144621 5.51454701,96.6984339 6.8368629,94.4054726 C8.16734124,92.1032808 10.083883,90.1827968 12.3797064,88.850892 L79.0276923,57.1768871 L145.676766,88.850892 C150.342419,91.5570533 153.240631,96.5838672 153.240631,101.970127 C153.241175,106.026111 151.658749,109.838302 148.785025,112.706268 C145.911845,115.573148 142.09291,117.152105 138.031822,117.152105 Z" id="Shape" stroke="#354252" stroke-width="1.2" fill="#354252"></path>
            </g>
        </g>
    </g>
</svg>