<?xml version="1.0" encoding="UTF-8"?>
<svg width="64px" height="64px" viewBox="0 0 64 64" version="1.1" xmlns="http://www.w3.org/2000/svg" xmlns:xlink="http://www.w3.org/1999/xlink">
    <!-- Generator: Sketch 51.3 (57544) - http://www.bohemiancoding.com/sketch -->
    <title>Swim-Linear</title>
    <desc>Created with Sketch.</desc>
    <defs></defs>
    <g id="Page-1" stroke="none" stroke-width="1" fill="none" fill-rule="evenodd">
        <g id="Linear-Camping-iconset" transform="translate(-705.000000, -391.000000)" stroke="#434F5E">
            <g id="Swim-Linear" transform="translate(705.000000, 392.000000)">
                <path d="M24.2307692,48.237069 C21.8076923,47.1681034 19.0211538,47.0344828 16.4769231,48.237069 C13.9326923,49.4396552 11.1461538,49.3060345 8.72307692,48.237069 L8.72307692,48.237069 C6.3,47.1681034 3.51346154,47.0344828 0.969230769,48.237069 C3.51346154,47.0344828 6.3,47.1681034 8.72307692,48.237069 L8.72307692,48.237069 C11.1461538,49.3060345 13.9326923,49.4396552 16.4769231,48.237069 C19.0211538,47.0344828 21.8076923,47.0344828 24.2307692,48.237069 L24.2307692,48.237069 Z" id="Shape" stroke-width="1.7" stroke-linecap="round" stroke-linejoin="round"></path>
                <path d="M62.8788462,48.237069 C60.3346154,49.4396552 57.5480769,49.3060345 55.125,48.237069 L55.125,48.237069 C52.7019231,47.1681034 49.9153846,47.0344828 47.3711538,48.237069 L47.3711538,48.237069 C44.8269231,49.4396552 42.0403846,49.3060345 39.6173077,48.237069 C42.0403846,49.3060345 44.8269231,49.4396552 47.3711538,48.237069 L47.3711538,48.237069 C49.9153846,47.0344828 52.7019231,47.1681034 55.125,48.237069 L55.125,48.237069 C57.5480769,49.3060345 60.2134615,49.3060345 62.8788462,48.237069 L62.8788462,48.237069 Z" id="Shape" stroke-width="1.7" stroke-linecap="round" stroke-linejoin="round"></path>
                <path d="M49.6346154,60.9310345 C46.8076923,62.1336207 43.7115385,62 41.0192308,60.9310345 L41.0192308,60.9310345 C38.3269231,59.862069 35.2307692,59.7284483 32.4038462,60.9310345 C29.5769231,62.1336207 26.4807692,62 23.7884615,60.9310345 L23.7884615,60.9310345 C21.0961538,59.862069 18,59.7284483 15.1730769,60.9310345 C18,59.7284483 21.0961538,59.862069 23.7884615,60.9310345 L23.7884615,60.9310345 C26.4807692,62 29.5769231,62.1336207 32.4038462,60.9310345 C35.2307692,59.7284483 38.3269231,59.862069 41.0192308,60.9310345 L41.0192308,60.9310345 C43.7115385,62 46.8076923,62.1336207 49.6346154,60.9310345 L49.6346154,60.9310345 Z" id="Shape" stroke-width="1.7" stroke-linecap="round" stroke-linejoin="round"></path>
                <path d="M32.2788462,54.237069 C29.7346154,55.4396552 26.9480769,55.3060345 24.525,54.237069 L24.525,54.237069 C22.1019231,53.1681034 19.3153846,53.0344828 16.7711538,54.237069 L16.7711538,54.237069 C14.2269231,55.4396552 11.4403846,55.3060345 9.01730769,54.237069 C11.4403846,55.3060345 14.2269231,55.4396552 16.7711538,54.237069 L16.7711538,54.237069 C19.3153846,53.0344828 22.1019231,53.1681034 24.525,54.237069 L24.525,54.237069 C26.9480769,55.3060345 29.6134615,55.3060345 32.2788462,54.237069 L32.2788462,54.237069 Z" id="Shape-Copy" stroke-width="1.7" stroke-linecap="round" stroke-linejoin="round"></path>
                <path d="M46.7692308,54.237069 C49.3134615,53.0344828 52.1,53.1681034 54.5230769,54.237069 C52.1,53.1681034 49.4346154,53.0344828 46.7692308,54.237069 L46.7692308,54.237069 Z" id="Shape" stroke-width="1.7" stroke-linecap="round" stroke-linejoin="round"></path>
                <path d="M62.8788462,41.8232759 C60.3346154,43.0258621 57.5480769,42.8922414 55.125,41.8232759 L55.125,41.8232759 C52.7019231,40.7543103 49.9153846,40.6206897 47.3711538,41.8232759 L47.3711538,41.8232759 C44.8269231,43.0258621 42.0403846,42.8922414 39.6173077,41.8232759 L39.6173077,41.8232759 C37.1942308,40.7543103 34.4076923,40.6206897 31.8634615,41.8232759 C29.3192308,43.0258621 26.5326923,42.8922414 24.1096154,41.8232759 L24.1096154,41.8232759 C21.6865385,40.7543103 18.9,40.6206897 16.3557692,41.8232759 C13.8115385,43.0258621 11.025,42.8922414 8.60192308,41.8232759 L8.60192308,41.8232759 C6.17884615,40.7543103 3.39230769,40.6206897 0.848076923,41.8232759 C3.39230769,40.6206897 6.17884615,40.7543103 8.60192308,41.8232759 L8.60192308,41.8232759 C11.025,42.8922414 13.8115385,43.0258621 16.3557692,41.8232759 C18.9,40.6206897 21.6865385,40.7543103 24.1096154,41.8232759 L24.1096154,41.8232759 C26.5326923,42.8922414 29.3192308,43.0258621 31.8634615,41.8232759 C34.4076923,40.6206897 37.1942308,40.7543103 39.6173077,41.8232759 L39.6173077,41.8232759 C42.0403846,42.8922414 44.8269231,43.0258621 47.3711538,41.8232759 L47.3711538,41.8232759 C49.9153846,40.6206897 52.7019231,40.7543103 55.125,41.8232759 L55.125,41.8232759 C57.5480769,42.8922414 60.2134615,43.0258621 62.8788462,41.8232759 L62.8788462,41.8232759 Z" id="Shape" stroke-width="1.7" stroke-linecap="round" stroke-linejoin="round"></path>
                <path d="M39.2692308,7.88362069 L39.2692308,3.875 C39.2692308,2.27155172 37.9230769,0.935344828 36.3076923,0.935344828 C35.9038462,0.935344828 35.5,1.06896552 35.0961538,1.20258621 C34.1538462,0.400862069 32.8076923,0 31.4615385,0 C28.2307692,0 25.6730769,2.5387931 25.6730769,5.74568966 L25.6730769,7.75 C24.7307692,8.01724138 24.1923077,8.81896552 24.1923077,9.88793103 C24.1923077,11.7586207 25.1346154,13.362069 26.3461538,13.362069 C27.4230769,16.8362069 29.7115385,19.1077586 32.4038462,19.1077586 C35.0961538,19.1077586 37.3846154,16.7025862 38.4615385,13.362069 C39.6730769,13.362069 40.6153846,11.7586207 40.6153846,9.88793103 C40.75,9.0862069 40.0769231,8.15086207 39.2692308,7.88362069 L39.2692308,7.88362069 Z" id="Shape" stroke-width="2"></path>
                <path d="M39.2692308,7.88362069 C37.6538462,7.88362069 36.3076923,6.54741379 36.3076923,4.94396552 L36.3076923,4.94396552 C34.5576923,6.81465517 32,7.88362069 29.3076923,7.88362069 L29.3076923,7.88362069 L25.8076923,7.88362069 L29.3076923,7.88362069 L29.3076923,7.88362069 C32,7.88362069 34.5576923,6.81465517 36.3076923,4.94396552 L36.3076923,4.94396552 C36.3076923,6.54741379 37.6538462,7.88362069 39.2692308,7.88362069 L39.2692308,7.88362069 Z" id="Shape" stroke-width="2" stroke-linecap="round" stroke-linejoin="round"></path>
                <path d="M23.7884615,41.8232759 C26.4807692,42.8922414 29.5769231,43.0258621 32.4038462,41.8232759 C35.2307692,40.6206897 38.3269231,40.7543103 41.0192308,41.8232759 C41.2884615,41.9568966 41.5576923,41.9568966 41.6923077,42.0905172 L41.6923077,30.8663793 L60.75,14.4956897 C63.8418966,12 61.2508168,8.50250772 58.75,9.95258621 L39.6730769,21.6465517 L36.0384615,20.1767241 L35.6346154,18.0387931 C34.6923077,18.9741379 33.4807692,19.375 32.2692308,19.375 C31.0576923,19.375 29.8461538,18.8405172 28.9038462,17.9051724 L28.5,20.0431034 C27.2884615,20.5775862 25.9423077,21.112069 24.8653846,21.512931 L5.76401968,10.2683176 C3.49999999,9.0459431 0.731477542,12 3.5,14.7200012 L23.25,30.8663793 L23.25,41.5560345 C23.3846154,41.6896552 23.6538462,41.6896552 23.7884615,41.8232759 Z" id="Shape" stroke-width="2" stroke-linecap="round" stroke-linejoin="round"></path>
            </g>
        </g>
    </g>
</svg>