<?xml version="1.0" encoding="UTF-8"?>
<svg width="64px" height="42px" viewBox="0 0 64 42" version="1.1" xmlns="http://www.w3.org/2000/svg" xmlns:xlink="http://www.w3.org/1999/xlink">
    <!-- Generator: Sketch 51.3 (57544) - http://www.bohemiancoding.com/sketch -->
    <title>tents2</title>
    <desc>Created with Sketch.</desc>
    <defs></defs>
    <g id="Page-1" stroke="none" stroke-width="1" fill="none" fill-rule="evenodd">
        <g id="Linear-Camping-iconset" transform="translate(-445.000000, -403.000000)" fill="#434F5E">
            <g id="tents2" transform="translate(445.000000, 403.000000)">
                <path d="M63.003882,35.1372759 C62.4912613,35.1372759 62.0758327,35.5584948 62.0758327,36.0778783 L62.0758327,36.5789629 C51.9130182,27.4012483 45.6603283,14.8690032 44.4157299,1.08113946 L44.3386174,0.226217343 L20.3713229,0.226217343 L20.2942104,1.08113946 C19.0499494,14.8655829 12.7999594,27.3950916 2.6413632,36.5722932 L2.6413632,36.0778783 C2.6413632,35.5584948 2.2259346,35.1372759 1.71331392,35.1372759 C1.20069325,35.1372759 0.78526464,35.5584948 0.78526464,36.0778783 L0.78526464,40.6953813 C0.78526464,41.2147648 1.20069325,41.6359837 1.71331392,41.6359837 C2.2259346,41.6359837 2.6413632,41.2147648 2.6413632,40.6953813 L2.6413632,39.0619824 C3.91160956,37.9794344 5.12718539,36.8484883 6.28522215,35.6715381 L6.28522215,38.5285753 C6.28522215,39.0479588 6.70065076,39.4691777 7.21327143,39.4691777 L58.1716138,39.4691777 C58.6842345,39.4691777 59.0996631,39.0479588 59.0996631,38.5285753 L59.0996631,36.3453515 C60.0548789,37.2839017 61.0473854,38.1920106 62.0758327,39.06831 L62.0758327,40.6953813 C62.0758327,41.2147648 62.4912613,41.6359837 63.003882,41.6359837 C63.5165027,41.6359837 63.9319313,41.2147648 63.9319313,40.6953813 L63.9319313,36.0778783 C63.9319313,35.5583237 63.5165027,35.1372759 63.003882,35.1372759 L63.003882,35.1372759 Z M20.2911732,37.5879728 L8.14132072,37.5879728 L8.14132072,33.6901162 C13.8572606,27.2899151 17.995348,19.704897 20.2911732,11.4323839 L20.2911732,37.5879728 L20.2911732,37.5879728 Z M35.0218463,37.5879728 L22.1472717,37.5879728 L22.1472717,11.405534 C22.8755373,14.0214349 23.7912688,16.583465 24.8926102,19.0772586 C27.4013806,24.7584974 30.8096837,29.9383096 35.0218463,34.4827876 L35.0218463,37.5879728 L35.0218463,37.5879728 Z M26.586722,18.3085299 C24.3150261,13.1641185 22.8571451,7.71854341 22.2463199,2.10742224 L42.6510863,2.10742224 C43.8752677,13.7488312 48.5615791,24.4893141 56.0824905,33.1367 C53.964682,33.1320825 36.4702781,33.1288331 36.3157157,33.1305433 C32.2726269,28.7546897 28.9991439,23.7713779 26.586722,18.3085299 L26.586722,18.3085299 Z M57.2435645,37.5879728 L36.8779449,37.5879728 L36.8779449,35.0066176 C39.8600203,34.9888317 49.8723222,35.0028552 57.2435645,35.0204702 L57.2435645,37.5879728 L57.2435645,37.5879728 Z" id="Shape"></path>
            </g>
        </g>
    </g>
</svg>