<?xml version="1.0" encoding="UTF-8"?>
<svg width="70px" height="65px" viewBox="0 0 70 65" version="1.1" xmlns="http://www.w3.org/2000/svg" xmlns:xlink="http://www.w3.org/1999/xlink">
    <!-- Generator: Sketch 51.3 (57544) - http://www.bohemiancoding.com/sketch -->
    <title>Tent-Linear</title>
    <desc>Created with Sketch.</desc>
    <defs></defs>
    <g id="Page-1" stroke="none" stroke-width="1" fill="none" fill-rule="evenodd">
        <g id="Linear-Camping-iconset" transform="translate(-182.000000, -130.000000)" fill="#434F5E">
            <g id="Tent-Linear" transform="translate(182.000000, 131.000000)">
                <path d="M35.9681752,11.2412508 L41.530073,1.3093873 C41.7671533,0.886253094 41.6173723,0.350488149 41.1954745,0.112777239 C40.7740146,-0.12493367 40.239854,0.0253382913 40.0029197,0.448472498 L35.8394161,7.88298005 L35.8394161,3.25955413 C35.8394161,2.77431923 35.4471533,2.38077073 34.9635036,2.38077073 C34.479854,2.38077073 34.0875912,2.77431923 34.0875912,3.25955413 L34.0875912,7.88312651 L29.9240876,0.448618962 C29.6872993,0.0254847552 29.1529927,-0.12493367 28.7315328,0.112923703 C28.309635,0.350634613 28.159854,0.886399558 28.3969343,1.30953376 L33.9588321,11.2413973 L5.18540146,62.622398 C5.0329927,62.8945279 5.03591241,63.2272939 5.1929927,63.496641 C5.35007299,63.7659881 5.6379562,62.9268981 5.94905109,62.9268981 L63.9782482,62.9268981 C64.2893431,62.9268981 64.5772263,63.7661345 64.7343066,63.496641 C64.8913869,63.2271474 64.8941606,62.8945279 64.7417518,62.622398 L35.9681752,11.2412508 Z M43.5347445,28.3409111 L26.3924088,28.3409111 L28.3608759,24.8257775 L41.5662774,24.8257775 L43.5347445,28.3409111 L43.5347445,28.3409111 Z M44.5189781,30.0984779 L48.4559124,37.1287451 L21.4712409,37.1287451 L25.4081752,30.0984779 L44.5189781,30.0984779 L44.5189781,30.0984779 Z M34.9636496,13.0354336 L40.5820438,23.0682107 L29.3451095,23.0682107 L34.9636496,13.0354336 L34.9636496,13.0354336 Z M41.7884672,62.174072 L28.1388321,62.174072 L28.1388321,57.4286416 C28.1388321,53.653974 31.200438,50.5829189 34.9636496,50.5829189 C38.7268613,50.5829189 41.7884672,53.6538275 41.7884672,57.4286416 L41.7884672,62.174072 L41.7884672,62.174072 Z M43.540292,62.174072 L43.540292,57.4286416 C43.540292,52.6848224 39.6928467,48.8253521 34.9636496,48.8253521 C30.2344526,48.8253521 26.3870073,52.6848224 26.3870073,57.4286416 L26.3870073,62.174072 L7.44583942,62.174072 L20.4870073,38.8863119 L49.440292,38.8863119 L62.4814599,62.174072 L43.540292,62.174072 L43.540292,62.174072 Z" id="Shape" stroke="#434F5E" stroke-width="0.3"></path>
                <rect id="Rectangle-366" x="0" y="61.8288667" width="70" height="1.92405063" rx="0.962025316"></rect>
                <rect id="Rectangle-367" x="2" y="58.8276534" width="2" height="3.98831548" rx="1"></rect>
                <rect id="Rectangle-367-Copy" x="66" y="58.8276534" width="2" height="3.98831548" rx="1"></rect>
            </g>
        </g>
    </g>
</svg>