<?xml version="1.0" encoding="UTF-8"?>
<svg width="75px" height="43px" viewBox="0 0 75 43" version="1.1" xmlns="http://www.w3.org/2000/svg" xmlns:xlink="http://www.w3.org/1999/xlink">
    <!-- Generator: Sketch 51.3 (57544) - http://www.bohemiancoding.com/sketch -->
    <title>View-Linear</title>
    <desc>Created with Sketch.</desc>
    <defs></defs>
    <g id="Page-1" stroke="none" stroke-width="1" fill="none" fill-rule="evenodd">
        <g id="Linear-Camping-iconset" transform="translate(-439.000000, -141.000000)" fill="#434F5E" stroke="#FFFFFF">
            <g id="View-Linear" transform="translate(440.000000, 142.000000)">
                <path d="M66.1407143,10.3948428 C66.1412857,10.3805093 66.1428571,10.3664653 66.1428571,10.351987 L66.1428571,9.19372272 C66.1428571,6.04034822 63.6114286,3.47479284 60.5,3.47479284 L53.8822857,3.47479284 C52.1657143,1.28900336 49.5535714,0 46.7857143,0 C44.0178571,0 41.4058571,1.28900336 39.6891429,3.47479284 L33.3107143,3.47479284 C31.5941429,1.28900336 28.982,0 26.2141429,0 C23.4462857,0 20.8342857,1.28900336 19.1175714,3.47479284 L12.5,3.47479284 C9.38857143,3.47479284 6.85714286,6.04034822 6.85714286,9.19372272 L6.85714286,10.351987 C6.85714286,10.3664653 6.85871429,10.3805093 6.85928571,10.3948428 C2.69785714,13.5529951 0,18.5888386 0,24.2511583 C0,33.7913469 7.65814286,41.552731 17.0714286,41.552731 C26.4847143,41.552731 34.1428571,33.7913469 34.1428571,24.2511583 C34.1428571,23.6440831 34.1115714,23.0443918 34.051,22.4532426 C34.7921429,22.816648 35.623,23.0205026 36.5,23.0205026 C37.377,23.0205026 38.2078571,22.8165033 38.949,22.4532426 C38.8884286,23.0443918 38.8571429,23.6440831 38.8571429,24.2511583 C38.8571429,33.7913469 46.5152857,41.552731 55.9285714,41.552731 C65.3418571,41.552731 73,33.7913469 73,24.2511583 C73,18.5888386 70.3021429,13.5529951 66.1407143,10.3948428 L66.1407143,10.3948428 Z M46.7857143,2.17174552 C48.2394286,2.17174552 49.6358571,2.64011864 50.7938571,3.47479284 L42.7777143,3.47479284 C43.9355714,2.64011864 45.332,2.17174552 46.7857143,2.17174552 L46.7857143,2.17174552 Z M26.2142857,2.17174552 C27.668,2.17174552 29.0644286,2.64011864 30.2224286,3.47479284 L22.2062857,3.47479284 C23.3641429,2.64011864 24.7605714,2.17174552 26.2142857,2.17174552 L26.2142857,2.17174552 Z M17.0714286,39.3809855 C8.83971429,39.3809855 2.14285714,32.5938464 2.14285714,24.2511583 C2.14285714,15.9084703 8.83971429,9.1213312 17.0714286,9.1213312 C25.3031429,9.1213312 32,15.9084703 32,24.2511583 C32,32.5938464 25.3031429,39.3809855 17.0714286,39.3809855 L17.0714286,39.3809855 Z M33,17.3015727 C33,15.3456987 34.5701429,13.7543883 36.5,13.7543883 C38.4298571,13.7543883 40,15.3456987 40,17.3015727 C40,19.2574467 38.4298571,20.848757 36.5,20.848757 C34.5701429,20.848757 33,19.2574467 33,17.3015727 L33,17.3015727 Z M36.5,11.5826428 C34.2514286,11.5826428 32.3062857,12.9228993 31.4001429,14.856332 C28.3544286,10.1015123 23.0695714,6.94958568 17.0714286,6.94958568 C14.1555714,6.94958568 11.4085714,7.69492874 9.00485714,9.00651825 C9.10128571,7.13736927 10.632,5.64653836 12.5,5.64653836 L19.6368571,5.64653836 L19.6372857,5.64653836 L32.7741429,5.64653836 L32.7752857,5.64653836 L32.7762857,5.64653836 L40.2084286,5.64653836 L40.2088571,5.64653836 L53.3457143,5.64653836 L53.3468571,5.64653836 L53.3478571,5.64653836 L60.5,5.64653836 C62.368,5.64653836 63.8987143,7.13736927 63.9951429,9.00651825 C61.5914286,7.69492874 58.8444286,6.94958568 55.9285714,6.94958568 C49.9304286,6.94958568 44.6455714,10.1015123 41.5998571,14.856332 C40.6937143,12.9228993 38.7485714,11.5826428 36.5,11.5826428 L36.5,11.5826428 Z M55.9285714,39.3809855 C47.6968571,39.3809855 41,32.5938464 41,24.2511583 C41,15.9084703 47.6968571,9.1213312 55.9285714,9.1213312 C64.1602857,9.1213312 70.8571429,15.9084703 70.8571429,24.2511583 C70.8571429,32.5938464 64.1602857,39.3809855 55.9285714,39.3809855 L55.9285714,39.3809855 Z" id="Shape" stroke-width="0.3"></path>
                <path d="M55.8199694,12.3922043 C49.4277407,12.3922043 44.2273642,17.6627543 44.2273642,24.1412394 C44.2273642,30.6197245 49.4277407,35.8902745 55.8199694,35.8902745 C62.2121982,35.8902745 67.4125747,30.6197245 67.4125747,24.1412394 C67.4125747,17.6627543 62.2121982,12.3922043 55.8199694,12.3922043 L55.8199694,12.3922043 Z M55.8199694,33.8761542 C50.5235399,33.8761542 46.2146679,29.5091386 46.2146679,24.1412394 C46.2146679,18.7733402 50.5235399,14.4063246 55.8199694,14.4063246 C61.1163989,14.4063246 65.4252709,18.7733402 65.4252709,24.1412394 C65.4252709,29.5091386 61.1163989,33.8761542 55.8199694,33.8761542 L55.8199694,33.8761542 Z" id="Shape" stroke-width="0.3"></path>
                <path d="M17.0714286,12.5002817 C10.6781178,12.5002817 5.47686117,17.7716578 5.47686117,24.2511583 C5.47686117,30.7306589 10.6781178,36.0020349 17.0714286,36.0020349 C23.4647393,36.0020349 28.665996,30.7306589 28.665996,24.2511583 C28.665996,17.7716578 23.4647393,12.5002817 17.0714286,12.5002817 L17.0714286,12.5002817 Z M17.0714286,33.987599 C11.7741026,33.987599 7.46450129,29.6198988 7.46450129,24.2511583 C7.46450129,18.8824178 11.7741026,14.5147177 17.0714286,14.5147177 C22.3687545,14.5147177 26.6783558,18.8824178 26.6783558,24.2511583 C26.6783558,29.6198988 22.3687545,33.987599 17.0714286,33.987599 L17.0714286,33.987599 Z" id="Shape" stroke-width="0.3"></path>
                <path d="M55.9285714,16.2156999 C55.3368571,16.2156999 54.8571429,16.7018813 54.8571429,17.3015727 C54.8571429,17.901264 55.3368571,18.3874454 55.9285714,18.3874454 C59.1188571,18.3874454 61.7142857,21.0178636 61.7142857,24.2511583 C61.7142857,24.8508497 62.194,25.3370311 62.7857143,25.3370311 C63.3774286,25.3370311 63.8571429,24.8508497 63.8571429,24.2511583 C63.8571429,19.8203631 60.3004286,16.2156999 55.9285714,16.2156999 L55.9285714,16.2156999 Z" id="Shape"></path>
                <path d="M17.0714286,16.2156999 C16.4797143,16.2156999 16,16.7018813 16,17.3015727 C16,17.901264 16.4797143,18.3874454 17.0714286,18.3874454 C20.2617143,18.3874454 22.8571429,21.0178636 22.8571429,24.2511583 C22.8571429,24.8508497 23.3368571,25.3370311 23.9285714,25.3370311 C24.5202857,25.3370311 25,24.8508497 25,24.2511583 C25,19.8203631 21.4432857,16.2156999 17.0714286,16.2156999 L17.0714286,16.2156999 Z" id="Shape"></path>
            </g>
        </g>
    </g>
</svg>