<?xml version="1.0" encoding="UTF-8"?>
<svg width="1200px" height="802px" viewBox="0 0 1200 802" version="1.1" xmlns="http://www.w3.org/2000/svg" xmlns:xlink="http://www.w3.org/1999/xlink">
    <!-- Generator: Sketch 51.3 (57544) - http://www.bohemiancoding.com/sketch -->
    <title>View</title>
    <desc>Created with Sketch.</desc>
    <defs>
        <path d="M0,15.8333333 C0,15.8333333 2.63888889,0 7.91666667,0 L137.222222,0 C137.222222,0 147.777778,2.63888889 147.777778,15.8333333 L134.583333,10.5555556 L116.111111,10.5555556 L100.277778,18.4722222 L87.0833333,31.6666667 L81.8055556,23.75 L71.25,21.1111111 L63.3333333,29.0277778 L60.6944444,29.0277778 L47.5,18.4722222 L34.3055556,10.5555556 L21.1111111,10.5555556 L7.91666667,13.1944444 L0,15.8333333 Z" id="path-1"></path>
    </defs>
    <g id="View" stroke="none" stroke-width="1" fill="none" fill-rule="evenodd">
        <rect fill="#FFFFFF" x="0" y="0" width="1200" height="802"></rect>
        <g id="View-Linear-+-View-Full-+-View-Colored" transform="translate(162.000000, 346.000000)">
            <g id="View-Linear" transform="translate(0.000000, 1.000000)" fill="#47576B">
                <path d="M172.147065,26.77772 C172.148552,26.740796 172.152642,26.704618 172.152642,26.667321 L172.152642,23.6835648 C172.152642,15.5602886 165.563992,8.95126859 157.465753,8.95126859 L140.241566,8.95126859 C135.773777,3.32054768 128.975049,0 121.771037,0 C114.567025,0 107.768669,3.32054768 103.300509,8.95126859 L86.6991194,8.95126859 C82.2313307,3.32054768 75.4326027,0 68.228591,0 C61.0245793,0 54.2262231,3.32054768 49.7580626,8.95126859 L32.5342466,8.95126859 C24.4360078,8.95126859 17.8473581,15.5602886 17.8473581,23.6835648 L17.8473581,26.667321 C17.8473581,26.704618 17.8514481,26.740796 17.8529354,26.77772 C7.02181996,34.9133042 0,47.8859302 0,62.4723953 C0,87.0484762 19.9321526,107.042254 44.4324853,107.042254 C68.932818,107.042254 88.8649706,87.0484762 88.8649706,62.4723953 C88.8649706,60.9085341 88.7835421,59.3636944 88.6258904,57.8408598 C90.5548924,58.7770133 92.7173973,59.3021544 95,59.3021544 C97.2826027,59.3021544 99.4451076,58.7766403 101.37411,57.8408598 C101.216458,59.3636944 101.135029,60.9085341 101.135029,62.4723953 C101.135029,87.0484762 121.067182,107.042254 145.567515,107.042254 C170.067847,107.042254 190,87.0484762 190,62.4723953 C190,47.8859302 182.97818,34.9133042 172.147065,26.77772 L172.147065,26.77772 Z M121.771037,5.59454287 C125.554677,5.59454287 129.189217,6.80109928 132.20319,8.95126859 L111.339256,8.95126859 C114.352857,6.80109928 117.987397,5.59454287 121.771037,5.59454287 L121.771037,5.59454287 Z M68.2289628,5.59454287 C72.0126027,5.59454287 75.6471429,6.80109928 78.6611155,8.95126859 L57.797182,8.95126859 C60.8107828,6.80109928 64.4453229,5.59454287 68.2289628,5.59454287 L68.2289628,5.59454287 Z M44.4324853,101.447711 C23.0074755,101.447711 5.57729941,83.9636453 5.57729941,62.4723953 C5.57729941,40.9811454 23.0074755,23.49708 44.4324853,23.49708 C65.8574951,23.49708 83.2876712,40.9811454 83.2876712,62.4723953 C83.2876712,83.9636453 65.8574951,101.447711 44.4324853,101.447711 L44.4324853,101.447711 Z M85.890411,44.5698582 C85.890411,39.5314129 89.9770841,35.4321048 95,35.4321048 C100.022916,35.4321048 104.109589,39.5314129 104.109589,44.5698582 C104.109589,49.6083035 100.022916,53.7076115 95,53.7076115 C89.9770841,53.7076115 85.890411,49.6083035 85.890411,44.5698582 L85.890411,44.5698582 Z M95,29.837562 C89.1475538,29.837562 84.0848532,33.2901408 81.7263992,38.2707759 C73.7991977,26.0220837 60.04409,17.9025372 44.4324853,17.9025372 C36.8432681,17.9025372 29.6935421,19.8225843 23.4372994,23.2013152 C23.6882779,18.3862786 27.6723288,14.5458115 32.5342466,14.5458115 L51.1096282,14.5458115 L51.1107436,14.5458115 L85.3025636,14.5458115 L85.3055382,14.5458115 L85.3081409,14.5458115 L104.652074,14.5458115 L104.65319,14.5458115 L138.84501,14.5458115 L138.847984,14.5458115 L138.850587,14.5458115 L157.465753,14.5458115 C162.327671,14.5458115 166.311722,18.3862786 166.562701,23.2013152 C160.306458,19.8225843 153.156732,17.9025372 145.567515,17.9025372 C129.95591,17.9025372 116.200802,26.0220837 108.273601,38.2707759 C105.915147,33.2901408 100.852446,29.837562 95,29.837562 L95,29.837562 Z M145.567515,101.447711 C124.142505,101.447711 106.712329,83.9636453 106.712329,62.4723953 C106.712329,40.9811454 124.142505,23.49708 145.567515,23.49708 C166.992524,23.49708 184.422701,40.9811454 184.422701,62.4723953 C184.422701,83.9636453 166.992524,101.447711 145.567515,101.447711 L145.567515,101.447711 Z" id="Shape"></path>
                <path d="M145.284852,31.9230394 C128.647544,31.9230394 115.112318,45.500283 115.112318,62.1892377 C115.112318,78.8781924 128.647544,92.4554361 145.284852,92.4554361 C161.92216,92.4554361 175.457386,78.8781924 175.457386,62.1892377 C175.457386,45.500283 161.92216,31.9230394 145.284852,31.9230394 L145.284852,31.9230394 Z M145.284852,87.2669449 C131.499625,87.2669449 120.284752,76.0172584 120.284752,62.1892377 C120.284752,48.3612171 131.499625,37.1115306 145.284852,37.1115306 C159.070079,37.1115306 170.284952,48.3612171 170.284952,62.1892377 C170.284952,76.0172584 159.070079,87.2669449 145.284852,87.2669449 L145.284852,87.2669449 Z" id="Shape" stroke="#FFFFFF" stroke-width="0.2"></path>
                <path d="M44.4324853,32.2014533 C27.7923615,32.2014533 14.2548441,45.7808249 14.2548441,62.4723953 C14.2548441,79.1639658 27.7923615,92.7433374 44.4324853,92.7433374 C61.0726091,92.7433374 74.6101265,79.1639658 74.6101265,62.4723953 C74.6101265,45.7808249 61.0726091,32.2014533 44.4324853,32.2014533 L44.4324853,32.2014533 Z M44.4324853,87.554033 C30.6449246,87.554033 19.4281541,76.3025833 19.4281541,62.4723953 C19.4281541,48.6422073 30.6449246,37.3907577 44.4324853,37.3907577 C58.220046,37.3907577 69.4368166,48.6422073 69.4368166,62.4723953 C69.4368166,76.3025833 58.220046,87.554033 44.4324853,87.554033 L44.4324853,87.554033 Z" id="Shape" stroke="#FFFFFF" stroke-width="0.2"></path>
                <path d="M145.567515,41.7725867 C144.027436,41.7725867 142.778865,43.0250184 142.778865,44.5698582 C142.778865,46.1146979 144.027436,47.3671296 145.567515,47.3671296 C153.870998,47.3671296 160.626223,54.1432399 160.626223,62.4723953 C160.626223,64.0172351 161.874795,65.2696668 163.414873,65.2696668 C164.954951,65.2696668 166.203523,64.0172351 166.203523,62.4723953 C166.203523,51.058409 156.946321,41.7725867 145.567515,41.7725867 L145.567515,41.7725867 Z" id="Shape" stroke="#FFFFFF" stroke-width="0.5"></path>
                <path d="M44.4324853,41.7725867 C42.892407,41.7725867 41.6438356,43.0250184 41.6438356,44.5698582 C41.6438356,46.1146979 42.892407,47.3671296 44.4324853,47.3671296 C52.7359687,47.3671296 59.4911937,54.1432399 59.4911937,62.4723953 C59.4911937,64.0172351 60.7397652,65.2696668 62.2798434,65.2696668 C63.8199217,65.2696668 65.0684932,64.0172351 65.0684932,62.4723953 C65.0684932,51.058409 55.8112916,41.7725867 44.4324853,41.7725867 L44.4324853,41.7725867 Z" id="Shape" stroke="#FFFFFF" stroke-width="0.5"></path>
            </g>
            <g id="View-Full" transform="translate(341.000000, 0.000000)">
                <polygon id="Path-126" fill="#3D4C5E" points="21.7234761 27.1683427 23.8766583 13.7726265 52.2822792 12.1053765 60.6781072 3.74119923 74.7468674 3.74119923 85.2232671 12.5298689 105.585873 11.5263538 114.903296 3.60621808 128.931097 3.60621808 140.225761 11.1325812 163.383873 12.3744079 170.247433 20.6659746 169.998881 30.3976505 107.110694 40.6664584 99.1505298 32.1263403 89.1600623 33.8662008 79.5633675 42.4584497 38.321504 27.4690249"></polygon>
                <g id="Group">
                    <circle id="Oval-24" stroke="#3D4C5E" stroke-width="16" cx="147.183099" cy="61.5492958" r="34.8169014"></circle>
                    <circle id="Oval-24-Copy" stroke="#3D4C5E" stroke-width="16" cx="42.8169014" cy="64.2253521" r="34.8169014"></circle>
                    <path d="M172.147065,26.77772 C172.148552,26.740796 172.152642,26.704618 172.152642,26.667321 L172.152642,23.6835648 C172.152642,15.5602886 165.563992,8.95126859 157.465753,8.95126859 L140.241566,8.95126859 C135.773777,3.32054768 128.975049,0 121.771037,0 C114.567025,0 107.768669,3.32054768 103.300509,8.95126859 L86.6991194,8.95126859 C82.2313307,3.32054768 75.4326027,0 68.228591,0 C61.0245793,0 54.2262231,3.32054768 49.7580626,8.95126859 L32.5342466,8.95126859 C24.4360078,8.95126859 17.8473581,15.5602886 17.8473581,23.6835648 L17.8473581,26.667321 C17.8473581,26.704618 17.8514481,26.740796 17.8529354,26.77772 C7.02181996,34.9133042 0,47.8859302 0,62.4723953 C0,87.0484762 19.9321526,107.042254 44.4324853,107.042254 C68.932818,107.042254 88.8649706,87.0484762 88.8649706,62.4723953 C88.8649706,60.9085341 88.7835421,59.3636944 88.6258904,57.8408598 C90.5548924,58.7770133 92.7173973,59.3021544 95,59.3021544 C97.2826027,59.3021544 99.4451076,58.7766403 101.37411,57.8408598 C101.216458,59.3636944 101.135029,60.9085341 101.135029,62.4723953 C101.135029,87.0484762 121.067182,107.042254 145.567515,107.042254 C170.067847,107.042254 190,87.0484762 190,62.4723953 C190,47.8859302 182.97818,34.9133042 172.147065,26.77772 L172.147065,26.77772 Z M121.771037,5.59454287 C125.554677,5.59454287 129.189217,6.80109928 132.20319,8.95126859 L111.339256,8.95126859 C114.352857,6.80109928 117.987397,5.59454287 121.771037,5.59454287 L121.771037,5.59454287 Z M68.2289628,5.59454287 C72.0126027,5.59454287 75.6471429,6.80109928 78.6611155,8.95126859 L57.797182,8.95126859 C60.8107828,6.80109928 64.4453229,5.59454287 68.2289628,5.59454287 L68.2289628,5.59454287 Z M44.4324853,101.447711 C23.0074755,101.447711 5.57729941,83.9636453 5.57729941,62.4723953 C5.57729941,40.9811454 23.0074755,23.49708 44.4324853,23.49708 C65.8574951,23.49708 83.2876712,40.9811454 83.2876712,62.4723953 C83.2876712,83.9636453 65.8574951,101.447711 44.4324853,101.447711 L44.4324853,101.447711 Z M85.890411,44.5698582 C85.890411,39.5314129 89.9770841,35.4321048 95,35.4321048 C100.022916,35.4321048 104.109589,39.5314129 104.109589,44.5698582 C104.109589,49.6083035 100.022916,53.7076115 95,53.7076115 C89.9770841,53.7076115 85.890411,49.6083035 85.890411,44.5698582 L85.890411,44.5698582 Z M95,29.837562 C89.1475538,29.837562 84.0848532,33.2901408 81.7263992,38.2707759 C73.7991977,26.0220837 60.04409,17.9025372 44.4324853,17.9025372 C36.8432681,17.9025372 29.6935421,19.8225843 23.4372994,23.2013152 C23.6882779,18.3862786 27.6723288,14.5458115 32.5342466,14.5458115 L51.1096282,14.5458115 L51.1107436,14.5458115 L85.3025636,14.5458115 L85.3055382,14.5458115 L85.3081409,14.5458115 L104.652074,14.5458115 L104.65319,14.5458115 L138.84501,14.5458115 L138.847984,14.5458115 L138.850587,14.5458115 L157.465753,14.5458115 C162.327671,14.5458115 166.311722,18.3862786 166.562701,23.2013152 C160.306458,19.8225843 153.156732,17.9025372 145.567515,17.9025372 C129.95591,17.9025372 116.200802,26.0220837 108.273601,38.2707759 C105.915147,33.2901408 100.852446,29.837562 95,29.837562 L95,29.837562 Z M145.567515,101.447711 C124.142505,101.447711 106.712329,83.9636453 106.712329,62.4723953 C106.712329,40.9811454 124.142505,23.49708 145.567515,23.49708 C166.992524,23.49708 184.422701,40.9811454 184.422701,62.4723953 C184.422701,83.9636453 166.992524,101.447711 145.567515,101.447711 L145.567515,101.447711 Z" id="Shape" fill="#354252"></path>
                    <path d="M145.284852,31.8230394 C161.977458,31.8230394 175.557386,45.4451238 175.557386,62.1892377 C175.557386,78.9333517 161.977458,92.5554361 145.284852,92.5554361 C128.592246,92.5554361 115.012318,78.9333517 115.012318,62.1892377 C115.012318,45.4451238 128.592246,31.8230394 145.284852,31.8230394 Z M145.284852,87.1669449 C159.014781,87.1669449 170.184952,75.9620992 170.184952,62.1892377 C170.184952,48.4163763 159.014781,37.2115306 145.284852,37.2115306 C131.554922,37.2115306 120.384752,48.4163763 120.384752,62.1892377 C120.384752,75.9620992 131.554922,87.1669449 145.284852,87.1669449 Z" id="Shape" stroke="#354252" stroke-width="0.2" fill="#354252"></path>
                    <path d="M44.4324853,32.2014533 C27.7923615,32.2014533 14.2548441,45.7808249 14.2548441,62.4723953 C14.2548441,79.1639658 27.7923615,92.7433374 44.4324853,92.7433374 C61.0726091,92.7433374 74.6101265,79.1639658 74.6101265,62.4723953 C74.6101265,45.7808249 61.0726091,32.2014533 44.4324853,32.2014533 L44.4324853,32.2014533 Z M44.4324853,87.554033 C30.6449246,87.554033 19.4281541,76.3025833 19.4281541,62.4723953 C19.4281541,48.6422073 30.6449246,37.3907577 44.4324853,37.3907577 C58.220046,37.3907577 69.4368166,48.6422073 69.4368166,62.4723953 C69.4368166,76.3025833 58.220046,87.554033 44.4324853,87.554033 L44.4324853,87.554033 Z" id="Shape" fill="#354252"></path>
                    <path d="M145.567515,41.7725867 C144.027436,41.7725867 142.778865,43.0250184 142.778865,44.5698582 C142.778865,46.1146979 144.027436,47.3671296 145.567515,47.3671296 C153.870998,47.3671296 160.626223,54.1432399 160.626223,62.4723953 C160.626223,64.0172351 161.874795,65.2696668 163.414873,65.2696668 C164.954951,65.2696668 166.203523,64.0172351 166.203523,62.4723953 C166.203523,51.058409 156.946321,41.7725867 145.567515,41.7725867 L145.567515,41.7725867 Z" id="Shape" stroke="#FFFFFF" stroke-width="0.5" fill="#354252"></path>
                    <path d="M44.4324853,41.7725867 C42.892407,41.7725867 41.6438356,43.0250184 41.6438356,44.5698582 C41.6438356,46.1146979 42.892407,47.3671296 44.4324853,47.3671296 C52.7359687,47.3671296 59.4911937,54.1432399 59.4911937,62.4723953 C59.4911937,64.0172351 60.7397652,65.2696668 62.2798434,65.2696668 C63.8199217,65.2696668 65.0684932,64.0172351 65.0684932,62.4723953 C65.0684932,51.058409 55.8112916,41.7725867 44.4324853,41.7725867 L44.4324853,41.7725867 Z" id="Shape" stroke="#FFFFFF" stroke-width="0.5" fill="#354252"></path>
                </g>
            </g>
            <g id="View-Colored" transform="translate(685.000000, 1.000000)">
                <circle id="Oval-103" fill="#E5B069" cx="95" cy="44.8611111" r="10.5555556"></circle>
                <rect id="Rectangle-130" fill="#F6C37F" x="84" y="34.3055556" width="10.5555556" height="21.1111111"></rect>
                <path d="M55.4166667,10.5555556 L81.8055556,10.5555556 C81.8055556,10.5555556 76.5277778,2.63888889 68.6111111,2.63888889 C60.6944444,2.63888889 55.4166667,10.5555556 55.4166667,10.5555556 Z" id="Path-278" fill="#FAEAC4"></path>
                <path d="M108.194444,10.5555556 L134.583333,10.5555556 C134.583333,10.5555556 129.305556,2.63888889 121.388889,2.63888889 C113.472222,2.63888889 108.194444,10.5555556 108.194444,10.5555556 Z" id="Path-278-Copy" fill="#FAEAC4"></path>
                <g id="Path-277-+-Rectangle-128" transform="translate(21.111111, 10.555556)">
                    <mask id="mask-2" fill="white">
                        <use xlink:href="#path-1"></use>
                    </mask>
                    <use id="Mask" fill="#85C8F6" xlink:href="#path-1"></use>
                    <rect id="Rectangle-128" fill="#75BDEF" mask="url(#mask-2)" x="73.8888889" y="-18.4722222" width="76.5277778" height="68.6111111"></rect>
                </g>
                <g id="tool253">
                    <g id="Oval-137-+-Oval-137-Copy-2" transform="translate(109.194444, 29.027778)">
                        <ellipse id="Oval-137-Copy-2" fill="#85C8F6" cx="36.4242424" cy="32.1464646" rx="28.0681818" ry="25.9090909"></ellipse>
                        <polygon id="Rectangle-166" fill="#FFFFFF" opacity="0.200000018" points="6.68677087 36.5960924 60.704012 5.40922373 66.161714 14.8622409 12.1444729 46.0491096"></polygon>
                        <polygon id="Rectangle-166-Copy" fill="#FFFFFF" opacity="0.400000006" points="0.449397129 31.5002373 54.4666382 0.31336861 56.8056534 4.36466169 2.78841228 35.5515304"></polygon>
                    </g>
                    <g id="Oval-137-+-Oval-137-Copy-3" transform="translate(8.916667, 29.027778)">
                        <ellipse id="Oval-137-Copy-2" fill="#85C8F6" cx="36.4242424" cy="33.4659091" rx="28.0681818" ry="27.2285354"></ellipse>
                        <polygon id="Rectangle-166" fill="#FFFFFF" opacity="0.300000012" points="6.68677087 36.5960924 60.704012 5.40922373 66.161714 14.8622409 12.1444729 46.0491096"></polygon>
                        <polygon id="Rectangle-166-Copy" fill="#FFFFFF" opacity="0.400000006" points="0.449397129 31.5002373 54.4666382 0.31336861 56.8056534 4.36466169 2.78841228 35.5515304"></polygon>
                    </g>
                    <rect id="Rectangle-138" fill="#46A2E3" x="23.75" y="13.1944444" width="142.5" height="5.27777778"></rect>
                    <circle id="Oval-97" stroke="#FAEAC4" stroke-width="13" cx="43.5416667" cy="62.0138889" r="34.4027778"></circle>
                    <circle id="Oval-97-Copy" stroke="#FAEAC4" stroke-width="13" cx="146.458333" cy="62.0138889" r="34.4027778"></circle>
                    <g id="Group">
                        <path d="M172.147065,26.77772 C172.148552,26.740796 172.152642,26.704618 172.152642,26.667321 L172.152642,23.6835648 C172.152642,15.5602886 165.563992,8.95126859 157.465753,8.95126859 L140.241566,8.95126859 C135.773777,3.32054768 128.975049,0 121.771037,0 C114.567025,0 107.768669,3.32054768 103.300509,8.95126859 L86.6991194,8.95126859 C82.2313307,3.32054768 75.4326027,0 68.228591,0 C61.0245793,0 54.2262231,3.32054768 49.7580626,8.95126859 L32.5342466,8.95126859 C24.4360078,8.95126859 17.8473581,15.5602886 17.8473581,23.6835648 L17.8473581,26.667321 C17.8473581,26.704618 17.8514481,26.740796 17.8529354,26.77772 C7.02181996,34.9133042 0,47.8859302 0,62.4723953 C0,87.0484762 19.9321526,107.042254 44.4324853,107.042254 C68.932818,107.042254 88.8649706,87.0484762 88.8649706,62.4723953 C88.8649706,60.9085341 88.7835421,59.3636944 88.6258904,57.8408598 C90.5548924,58.7770133 92.7173973,59.3021544 95,59.3021544 C97.2826027,59.3021544 99.4451076,58.7766403 101.37411,57.8408598 C101.216458,59.3636944 101.135029,60.9085341 101.135029,62.4723953 C101.135029,87.0484762 121.067182,107.042254 145.567515,107.042254 C170.067847,107.042254 190,87.0484762 190,62.4723953 C190,47.8859302 182.97818,34.9133042 172.147065,26.77772 L172.147065,26.77772 Z M121.771037,5.59454287 C125.554677,5.59454287 129.189217,6.80109928 132.20319,8.95126859 L111.339256,8.95126859 C114.352857,6.80109928 117.987397,5.59454287 121.771037,5.59454287 L121.771037,5.59454287 Z M68.2289628,5.59454287 C72.0126027,5.59454287 75.6471429,6.80109928 78.6611155,8.95126859 L57.797182,8.95126859 C60.8107828,6.80109928 64.4453229,5.59454287 68.2289628,5.59454287 L68.2289628,5.59454287 Z M44.4324853,101.447711 C23.0074755,101.447711 5.57729941,83.9636453 5.57729941,62.4723953 C5.57729941,40.9811454 23.0074755,23.49708 44.4324853,23.49708 C65.8574951,23.49708 83.2876712,40.9811454 83.2876712,62.4723953 C83.2876712,83.9636453 65.8574951,101.447711 44.4324853,101.447711 L44.4324853,101.447711 Z M85.890411,44.5698582 C85.890411,39.5314129 89.9770841,35.4321048 95,35.4321048 C100.022916,35.4321048 104.109589,39.5314129 104.109589,44.5698582 C104.109589,49.6083035 100.022916,53.7076115 95,53.7076115 C89.9770841,53.7076115 85.890411,49.6083035 85.890411,44.5698582 L85.890411,44.5698582 Z M95,29.837562 C89.1475538,29.837562 84.0848532,33.2901408 81.7263992,38.2707759 C73.7991977,26.0220837 60.04409,17.9025372 44.4324853,17.9025372 C36.8432681,17.9025372 29.6935421,19.8225843 23.4372994,23.2013152 C23.6882779,18.3862786 27.6723288,14.5458115 32.5342466,14.5458115 L51.1096282,14.5458115 L51.1107436,14.5458115 L85.3025636,14.5458115 L85.3055382,14.5458115 L85.3081409,14.5458115 L104.652074,14.5458115 L104.65319,14.5458115 L138.84501,14.5458115 L138.847984,14.5458115 L138.850587,14.5458115 L157.465753,14.5458115 C162.327671,14.5458115 166.311722,18.3862786 166.562701,23.2013152 C160.306458,19.8225843 153.156732,17.9025372 145.567515,17.9025372 C129.95591,17.9025372 116.200802,26.0220837 108.273601,38.2707759 C105.915147,33.2901408 100.852446,29.837562 95,29.837562 L95,29.837562 Z M145.567515,101.447711 C124.142505,101.447711 106.712329,83.9636453 106.712329,62.4723953 C106.712329,40.9811454 124.142505,23.49708 145.567515,23.49708 C166.992524,23.49708 184.422701,40.9811454 184.422701,62.4723953 C184.422701,83.9636453 166.992524,101.447711 145.567515,101.447711 L145.567515,101.447711 Z" id="Shape" fill="#354252"></path>
                        <path d="M145.284852,31.9230394 C128.647544,31.9230394 115.112318,45.500283 115.112318,62.1892377 C115.112318,78.8781924 128.647544,92.4554361 145.284852,92.4554361 C161.92216,92.4554361 175.457386,78.8781924 175.457386,62.1892377 C175.457386,45.500283 161.92216,31.9230394 145.284852,31.9230394 L145.284852,31.9230394 Z M145.284852,87.2669449 C131.499625,87.2669449 120.284752,76.0172584 120.284752,62.1892377 C120.284752,48.3612171 131.499625,37.1115306 145.284852,37.1115306 C159.070079,37.1115306 170.284952,48.3612171 170.284952,62.1892377 C170.284952,76.0172584 159.070079,87.2669449 145.284852,87.2669449 L145.284852,87.2669449 Z" id="Shape" fill="#354252"></path>
                        <path d="M44.4324853,32.2014533 C27.7923615,32.2014533 14.2548441,45.7808249 14.2548441,62.4723953 C14.2548441,79.1639658 27.7923615,92.7433374 44.4324853,92.7433374 C61.0726091,92.7433374 74.6101265,79.1639658 74.6101265,62.4723953 C74.6101265,45.7808249 61.0726091,32.2014533 44.4324853,32.2014533 L44.4324853,32.2014533 Z M44.4324853,87.554033 C30.6449246,87.554033 19.4281541,76.3025833 19.4281541,62.4723953 C19.4281541,48.6422073 30.6449246,37.3907577 44.4324853,37.3907577 C58.220046,37.3907577 69.4368166,48.6422073 69.4368166,62.4723953 C69.4368166,76.3025833 58.220046,87.554033 44.4324853,87.554033 L44.4324853,87.554033 Z" id="Shape" fill="#354252"></path>
                        <path d="M145.567515,41.7725867 C144.027436,41.7725867 142.778865,43.0250184 142.778865,44.5698582 C142.778865,46.1146979 144.027436,47.3671296 145.567515,47.3671296 C153.870998,47.3671296 160.626223,54.1432399 160.626223,62.4723953 C160.626223,64.0172351 161.874795,65.2696668 163.414873,65.2696668 C164.954951,65.2696668 166.203523,64.0172351 166.203523,62.4723953 C166.203523,51.058409 156.946321,41.7725867 145.567515,41.7725867 L145.567515,41.7725867 Z" id="Shape" stroke="#354252" stroke-width="2" fill="#FFFFFF"></path>
                        <path d="M44.4324853,41.7725867 C42.892407,41.7725867 41.6438356,43.0250184 41.6438356,44.5698582 C41.6438356,46.1146979 42.892407,47.3671296 44.4324853,47.3671296 C52.7359687,47.3671296 59.4911937,54.1432399 59.4911937,62.4723953 C59.4911937,64.0172351 60.7397652,65.2696668 62.2798434,65.2696668 C63.8199217,65.2696668 65.0684932,64.0172351 65.0684932,62.4723953 C65.0684932,51.058409 55.8112916,41.7725867 44.4324853,41.7725867 L44.4324853,41.7725867 Z" id="Shape" stroke="#354252" stroke-width="2" fill="#FFFFFF"></path>
                    </g>
                </g>
            </g>
        </g>
    </g>
</svg>