<?xml version="1.0" encoding="UTF-8"?>
<svg width="1200px" height="801px" viewBox="0 0 1200 801" version="1.1" xmlns="http://www.w3.org/2000/svg" xmlns:xlink="http://www.w3.org/1999/xlink">
    <!-- Generator: Sketch 51.3 (57544) - http://www.bohemiancoding.com/sketch -->
    <title>Wild Camping</title>
    <desc>Created with Sketch.</desc>
    <defs>
        <polygon id="path-1" points="17.0346061 0.287242662 70.90738 0.287242662 87.0692122 27.3829902 0.872773933 27.3829902"></polygon>
        <polygon id="path-3" points="10.8091609 0.0297941297 43.1328253 0.0297941297 53.90738 16.2872427 0.0346061125 16.2872427"></polygon>
        <path d="M38.6853217,33.245949 L0.867645519,33.245949 L0.867645519,19.9544366 C0.867645519,9.38194105 9.35013005,0.780199336 19.7764836,0.780199336 C30.2028371,0.780199336 38.6853217,9.38153082 38.6853217,19.9544366 L38.6853217,33.245949 L38.6853217,33.245949 Z" id="path-5"></path>
        <path d="M39.6003123,33.245949 L4.58300924,33.245949 L4.58300924,19.9544366 C4.58300924,9.38194105 12.4373716,0.780199336 22.0916608,0.780199336 C31.7459499,0.780199336 39.6003123,9.38153082 39.6003123,19.9544366 L39.6003123,33.245949 L39.6003123,33.245949 Z" id="path-7"></path>
    </defs>
    <g id="Wild-Camping" stroke="none" stroke-width="1" fill="none" fill-rule="evenodd">
        <rect fill="#FFFFFF" x="0" y="0" width="1200" height="801"></rect>
        <g id="Tent-Linear-+-Tent-Full-+-Tent-Colored" transform="translate(159.000000, 310.000000)">
            <g id="Tent-Linear" transform="translate(0.000000, 2.155689)" fill="#47576B">
                <path d="M99.653419,31.203169 L115.063212,3.6345629 C115.720067,2.46003808 115.305083,0.972875804 114.136173,0.313044101 C112.968477,-0.346787602 111.488532,0.0703333639 110.832081,1.24485819 L99.296679,21.8813691 L99.296679,9.04778479 C99.296679,7.70088249 98.2098759,6.6084809 96.8698763,6.6084809 C95.5298767,6.6084809 94.4430736,7.70088249 94.4430736,9.04778479 L94.4430736,21.8817757 L82.9076712,1.24526474 C82.2516255,0.0707399146 80.7712758,-0.346787602 79.6035792,0.313450652 C78.4346692,0.973282355 78.019686,2.46044463 78.6765406,3.63496945 L94.0863335,31.2035755 L14.3666723,173.825609 C13.9444086,174.58098 13.9524979,175.504663 14.3877045,176.252309 C14.8229112,176.999956 15.6205203,174.670832 16.4824398,174.670832 L177.258122,174.670832 C178.120041,174.670832 178.91765,177.000363 179.352857,176.252309 C179.788064,175.504256 179.795748,174.58098 179.373485,173.825609 L99.653419,31.203169 Z M120.617355,78.6679572 L73.1228025,78.6679572 L78.5766372,68.9107416 L115.16352,68.9107416 L120.617355,78.6679572 L120.617355,78.6679572 Z M123.344272,83.546565 L134.251941,103.060996 L59.4882157,103.060996 L70.3958851,83.546565 L123.344272,83.546565 L123.344272,83.546565 Z M96.8702808,36.1834144 L112.436603,64.0321338 L81.3035545,64.0321338 L96.8702808,36.1834144 L96.8702808,36.1834144 Z M115.779119,172.581157 L77.9614427,172.581157 L77.9614427,159.408916 C77.9614427,148.931293 86.4439272,140.406739 96.8702808,140.406739 C107.296634,140.406739 115.779119,148.930886 115.779119,159.408916 L115.779119,172.581157 L115.779119,172.581157 Z M120.632724,172.581157 L120.632724,159.408916 C120.632724,146.241147 109.972993,135.528131 96.8702808,135.528131 C83.7675683,135.528131 73.1078372,146.241147 73.1078372,159.408916 L73.1078372,172.581157 L20.6294412,172.581157 L56.7612984,107.939604 L136.979263,107.939604 L173.11112,172.581157 L120.632724,172.581157 L120.632724,172.581157 Z" id="Shape" stroke="#47576B" stroke-width="0.3"></path>
                <rect id="Rectangle-366" x="0" y="171.622945" width="193.941986" height="5.34072925" rx="2.67036462"></rect>
                <rect id="Rectangle-367" x="5.5411996" y="163.292256" width="5.5411996" height="11.0706614" rx="2.7705998"></rect>
                <rect id="Rectangle-367-Copy" x="182.859587" y="163.292256" width="5.5411996" height="11.0706614" rx="2.7705998"></rect>
            </g>
            <g id="Tent-Full" transform="translate(342.347510, 2.155689)">
                <g id="shelter5" transform="translate(13.852999, 0.000000)">
                    <polygon id="Path-1347" fill="#3D4C5E" points="3.64945853 174.049522 41.9783973 104.090442 124.113 104.090442 162.499947 174.858829"></polygon>
                    <path d="M165.520486,173.551406 L85.80042,31.1539471 L101.210213,3.62882943 C101.867068,2.45615737 101.452084,0.971341032 100.283174,0.312550186 C99.1154778,-0.34624066 97.6355326,0.0702223144 96.9790824,1.24289437 L85.44368,21.8468521 L85.44368,9.03351218 C85.44368,7.68873457 84.3568769,6.59805619 83.0168773,6.59805619 C81.6768777,6.59805619 80.5900745,7.68873457 80.5900745,9.03351218 L80.5900745,21.847258 L69.0546722,1.24330028 C68.3986265,0.0706282238 66.9182768,-0.34624066 65.7505802,0.312956095 C64.5816702,0.971746941 64.166687,2.45656328 64.8235416,3.62923534 L80.2333345,31.1543531 L0.513673248,173.551406 C0.0914095701,174.305585 0.0994989126,175.227811 0.534705538,175.974279 C0.969912164,176.720746 1.76752133,177.179829 2.62944078,177.179829 L163.405123,177.179829 C164.267042,177.179829 165.064651,176.721152 165.499858,175.974279 C165.935065,175.227405 165.942749,174.305585 165.520486,173.551406 L165.520486,173.551406 Z M106.764356,78.5438617 L59.2698035,78.5438617 L64.7236382,68.8020377 L101.310521,68.8020377 L106.764356,78.5438617 L106.764356,78.5438617 Z M109.491273,83.4147736 L120.398942,102.898422 L45.6352167,102.898422 L56.5428861,83.4147736 L109.491273,83.4147736 L109.491273,83.4147736 Z M83.0172818,36.1263365 L98.5836035,63.9311257 L67.4505555,63.9311257 L83.0172818,36.1263365 L83.0172818,36.1263365 Z M101.92612,172.308917 L64.1084437,172.308917 L64.1084437,159.157455 C64.1084437,148.69636 72.5909282,140.185253 83.0172818,140.185253 C93.4436353,140.185253 101.92612,148.695954 101.92612,159.157455 L101.92612,172.308917 L101.92612,172.308917 Z M106.779725,172.308917 L106.779725,159.157455 C106.779725,146.010458 96.1199942,135.314341 83.0172818,135.314341 C69.9145693,135.314341 59.2548382,146.010458 59.2548382,159.157455 L59.2548382,172.308917 L6.7764422,172.308917 L42.9082994,107.769334 L123.126264,107.769334 L159.258121,172.308917 L106.779725,172.308917 L106.779725,172.308917 Z" id="Shape" fill="#354252"></path>
                </g>
                <rect id="Rectangle-366" fill="#354252" x="0" y="171.839179" width="193.941986" height="5.54319932" rx="2.77159966"></rect>
                <rect id="Rectangle-367" fill="#354252" x="5.5411996" y="163.52438" width="5.5411996" height="11.0863986" rx="2.7705998"></rect>
                <rect id="Rectangle-367-Copy" fill="#354252" x="182.859587" y="163.52438" width="5.5411996" height="11.0863986" rx="2.7705998"></rect>
                <path d="M162.985754,49.4436064 C157.653276,51.6020907 151.930551,51.1150342 147.213502,48.6250067 C146.867427,48.4428142 146.664968,48.0691332 146.698807,47.6796145 C146.732646,47.2900958 146.998528,46.959202 147.375732,46.838509 C147.782022,46.7107573 148.190215,46.564387 148.593026,46.4013369 C158.209922,42.5086027 162.85686,31.5412247 158.971498,21.9066591 C157.855507,19.1393269 156.144548,16.7970331 154.060947,14.9409873 C153.769928,14.6802712 153.658097,14.2729363 153.786802,13.9036135 C153.913184,13.5318636 154.245008,13.2753045 154.632541,13.2460698 C162.534902,12.68584 170.237141,17.1946665 173.363993,24.9483496 C177.249588,34.5834942 172.602939,45.5507553 162.985754,49.4436064 L162.985754,49.4436064 L162.985754,49.4436064 Z" id="Shape" fill="#354252"></path>
                <path d="M9.10995524,26.6203255 C9.25629571,26.7606768 9.32615674,26.9651257 9.29122622,27.1625753 L8.48782441,31.8380068 C8.44701086,32.0686104 8.54040402,32.3017925 8.73160262,32.4388285 C8.91875664,32.5754961 9.16841789,32.5931781 9.37873635,32.4856123 L13.5674565,30.2764599 C13.7483598,30.1828923 13.9572075,30.1828923 14.1384785,30.2764599 L18.3275663,32.4856123 C18.5375171,32.5931781 18.787546,32.5754961 18.9743323,32.4388285 C19.1658986,32.3017925 19.2589241,32.0686104 19.2181105,31.8380068 L18.4150764,27.1625753 C18.3797782,26.9651257 18.4500069,26.7610452 18.5959797,26.6203255 L21.981298,23.3089913 C22.1449199,23.1487476 22.2088979,22.9045141 22.1331538,22.6827516 C22.0629251,22.4609891 21.8717265,22.2977984 21.6378759,22.2657497 L16.9601286,21.5838853 C16.7571639,21.5547835 16.587659,21.4295356 16.5001489,21.2490312 L14.3999058,16.9961273 C14.3006296,16.7861528 14.0858988,16.6546425 13.8538867,16.6546425 C13.6200361,16.6546425 13.4053054,16.7865212 13.3063969,16.9961273 L11.2061538,21.2490312 C11.1186436,21.4295356 10.9491387,21.5547835 10.746174,21.5838853 L6.06805903,22.2657497 C5.83420843,22.2977984 5.64300983,22.4609891 5.57278111,22.6827516 C5.49703705,22.9045141 5.56138273,23.1487476 5.72463692,23.3089913 L9.10995524,26.6203255 L9.10995524,26.6203255 Z" id="Shape" fill="#354252"></path>
                <path d="M42.3571529,21.068778 C42.5034933,21.2091293 42.5733544,21.4135781 42.5384238,21.6110278 L41.735022,26.2864593 C41.6942085,26.5170628 41.7876016,26.750245 41.9788002,26.887281 C42.1659543,27.0239486 42.4156155,27.0416306 42.625934,26.9340648 L46.8146541,24.7249123 C46.9955574,24.6313448 47.2044051,24.6313448 47.3856761,24.7249123 L51.5747639,26.9340648 C51.7847147,27.0416306 52.0347436,27.0239486 52.2215299,26.887281 C52.4130962,26.750245 52.5061217,26.5170628 52.4653082,26.2864593 L51.662274,21.6110278 C51.6269758,21.4135781 51.6972046,21.2094977 51.8431773,21.068778 L55.2284956,17.7574438 C55.3921175,17.5972001 55.4560955,17.3529666 55.3803515,17.1312041 C55.3101227,16.9094416 55.1189241,16.7462509 54.8850735,16.7142022 L50.2073262,16.0323377 C50.0043615,16.003236 49.8348566,15.8779881 49.7473465,15.6974837 L47.6471034,11.4445798 C47.5478272,11.2346053 47.3330965,11.103095 47.1010843,11.103095 C46.8672337,11.103095 46.652503,11.2349737 46.5535945,11.4445798 L44.4533514,15.6974837 C44.3658413,15.8779881 44.1963363,16.003236 43.9933717,16.0323377 L39.3152567,16.7142022 C39.0814061,16.7462509 38.8902075,16.9094416 38.8199787,17.1312041 C38.7442347,17.3529666 38.8085804,17.5972001 38.9718346,17.7574438 L42.3571529,21.068778 L42.3571529,21.068778 Z" id="Shape-Copy" fill="#354252"></path>
                <path d="M28.5041539,51.6022893 C28.6504943,51.7426406 28.7203554,51.9470894 28.6854248,52.1445391 L27.882023,56.8199706 C27.8412095,57.0505741 27.9346026,57.2837563 28.1258012,57.4207923 C28.3129553,57.5574599 28.5626165,57.5751419 28.772935,57.4675761 L32.9616551,55.2584236 C33.1425584,55.1648561 33.3514061,55.1648561 33.5326771,55.2584236 L37.7217649,57.4675761 C37.9317157,57.5751419 38.1817446,57.5574599 38.3685309,57.4207923 C38.5600972,57.2837563 38.6531227,57.0505741 38.6123092,56.8199706 L37.809275,52.1445391 C37.7739768,51.9470894 37.8442055,51.743009 37.9901783,51.6022893 L41.3754966,48.2909551 C41.5391185,48.1307114 41.6030965,47.8864779 41.5273524,47.6647154 C41.4571237,47.4429529 41.2659251,47.2797622 41.0320745,47.2477135 L36.3543272,46.565849 C36.1513625,46.5367473 35.9818576,46.4114994 35.8943475,46.230995 L33.7941044,41.9780911 C33.6948282,41.7681166 33.4800975,41.6366063 33.2480853,41.6366063 C33.0142347,41.6366063 32.799504,41.768485 32.7005955,41.9780911 L30.6003524,46.230995 C30.5128422,46.4114994 30.3433373,46.5367473 30.1403727,46.565849 L25.4622576,47.2477135 C25.228407,47.2797622 25.0372084,47.4429529 24.9669797,47.6647154 C24.8912357,47.8864779 24.9555813,48.1307114 25.1188355,48.2909551 L28.5041539,51.6022893 L28.5041539,51.6022893 Z" id="Shape-Copy-2" fill="#354252"></path>
                <path d="M115.779119,172.568419 L77.9614427,172.568419 L77.9614427,159.39715 C77.9614427,148.9203 86.4439272,140.396375 96.8702808,140.396375 C107.296634,140.396375 115.779119,148.919893 115.779119,159.39715 L115.779119,172.568419 L115.779119,172.568419 Z" id="Path" fill="#FFFFFF"></path>
                <polygon id="Path-1349" fill="#3D4C5E" points="96.4151771 32.8954511 78.5006068 64.9595128 115.838453 65.3594897"></polygon>
            </g>
            <g id="Tent-Colored" transform="translate(684.695021, 0.000000)">
                <polygon id="Path-518" fill-opacity="0.200000018" fill="#C9C3A5" points="97.1335843 36.2261038 96.967932 173.693803 175.77662 174.103753"></polygon>
                <g id="Rectangle-159-+-Rectangle-159-Copy" transform="translate(53.000000, 81.000000)">
                    <mask id="mask-2" fill="white">
                        <use xlink:href="#path-1"></use>
                    </mask>
                    <use id="Mask" fill="#85C8F6" xlink:href="#path-1"></use>
                    <polygon id="Rectangle-159-Copy" fill="#75BCEE" mask="url(#mask-2)" transform="translate(103.970993, 13.835116) scale(1, -1) translate(-103.970993, -13.835116) " points="77.0346061 0.287242662 130.90738 0.287242662 147.069212 27.3829902 60.8727739 27.3829902"></polygon>
                </g>
                <g id="Rectangle-160-+-Rectangle-160-Copy" transform="translate(70.000000, 65.000000)">
                    <mask id="mask-4" fill="white">
                        <use xlink:href="#path-3"></use>
                    </mask>
                    <use id="Mask" fill="#F4BC70" opacity="0.900000036" xlink:href="#path-3"></use>
                    <polygon id="Rectangle-160-Copy" fill-opacity="0.400000006" fill="#F5A623" opacity="0.900000036" mask="url(#mask-4)" transform="translate(60.970993, 8.158518) scale(1, -1) translate(-60.970993, -8.158518) " points="44.8091609 0.0297941297 77.1328253 0.0297941297 87.90738 16.2872427 34.0346061 16.2872427"></polygon>
                </g>
                <g id="Group">
                    <g id="shelter5" transform="translate(13.852999, 0.000000)">
                        <g id="Path-+-Path-Copy" transform="translate(63.240798, 140.897887)">
                            <mask id="mask-6" fill="white">
                                <use xlink:href="#path-5"></use>
                            </mask>
                            <use id="Mask" fill="#EACBA2" xlink:href="#path-5"></use>
                            <mask id="mask-8" fill="white">
                                <use xlink:href="#path-7"></use>
                            </mask>
                            <use id="Mask-Copy" fill="#FAEAC4" xlink:href="#path-7"></use>
                        </g>
                        <polygon id="Path-286" stroke="#979797" points="81.7126174 33.7412132 64.8480968 67.4824265 104.198645 67.4824265"></polygon>
                        <path d="M165.520486,175.399556 L85.80042,31.4857058 L101.210213,3.66747286 C101.867068,2.48231301 101.452084,0.981684849 100.283174,0.315878535 C99.1154778,-0.34992778 97.6355326,0.0709701124 96.9790824,1.25612997 L85.44368,22.0794994 L85.44368,9.12971012 C85.44368,7.77061196 84.3568769,6.66831894 83.0168773,6.66831894 C81.6768777,6.66831894 80.5900745,7.77061196 80.5900745,9.12971012 L80.5900745,22.0799096 L69.0546722,1.2565402 C68.3986265,0.0713803443 66.9182768,-0.34992778 65.7505802,0.316288767 C64.5816702,0.982095081 64.166687,2.48272324 64.8235416,3.66788309 L80.2333345,31.486116 L0.513673248,175.399556 C0.0914095701,176.161767 0.0994989126,177.093814 0.534705538,177.84823 C0.969912164,178.602646 1.76752133,179.066619 2.62944078,179.066619 L163.405123,179.066619 C164.267042,179.066619 165.064651,178.603057 165.499858,177.84823 C165.935065,177.093403 165.942749,176.161767 165.520486,175.399556 L165.520486,175.399556 Z M106.764356,79.3802758 L59.2698035,79.3802758 L64.7236382,69.5347111 L101.310521,69.5347111 L106.764356,79.3802758 L106.764356,79.3802758 Z M109.491273,84.3030582 L120.398942,103.994188 L45.6352167,103.994188 L56.5428861,84.3030582 L109.491273,84.3030582 L109.491273,84.3030582 Z M83.0172818,36.5110461 L98.5836035,64.6119287 L67.4505555,64.6119287 L83.0172818,36.5110461 L83.0172818,36.5110461 Z M101.92612,174.143836 L64.1084437,174.143836 L64.1084437,160.852324 C64.1084437,150.279828 72.5909282,141.678087 83.0172818,141.678087 C93.4436353,141.678087 101.92612,150.279418 101.92612,160.852324 L101.92612,174.143836 L101.92612,174.143836 Z M106.779725,174.143836 L106.779725,160.852324 C106.779725,147.565324 96.1199942,136.755304 83.0172818,136.755304 C69.9145693,136.755304 59.2548382,147.565324 59.2548382,160.852324 L59.2548382,174.143836 L6.7764422,174.143836 L42.9082994,108.91697 L123.126264,108.91697 L159.258121,174.143836 L106.779725,174.143836 L106.779725,174.143836 Z" id="Shape" fill="#2E3741"></path>
                    </g>
                    <rect id="Rectangle-366" fill="#2E3741" x="0" y="173.669095" width="193.941986" height="5.38922156" rx="2.69461078"></rect>
                    <rect id="Rectangle-367" fill="#2E3741" x="5.5411996" y="165.265752" width="5.5411996" height="11.2044578" rx="2.7705998"></rect>
                    <rect id="Rectangle-367-Copy" fill="#2E3741" x="182.859587" y="165.265752" width="5.5411996" height="11.2044578" rx="2.7705998"></rect>
                    <path d="M165.796507,49.8949887 C160.464029,52.0731783 154.741305,51.5816754 150.024255,49.0689158 C149.678181,48.88506 149.475721,48.5079676 149.509561,48.1148929 C149.5434,47.7218182 149.809281,47.3879036 150.186485,47.2661087 C150.592775,47.1371908 151.000968,46.9894843 151.403779,46.8249456 C161.020675,42.8966737 165.667613,31.829172 161.782252,22.1066501 C160.666261,19.3140543 158.955301,16.9503772 156.871701,15.0773871 C156.580681,14.8142908 156.46885,14.4032373 156.597555,14.0305428 C156.723937,13.6553991 157.055762,13.3964978 157.443294,13.3669963 C165.345656,12.801652 173.047894,17.3516406 176.174746,25.1761089 C180.060341,34.899215 175.413692,45.9665988 165.796507,49.8949887 L165.796507,49.8949887 L165.796507,49.8949887 Z" id="Shape" fill="#F5A623"></path>
                    <path d="M9.10995524,26.8633487 C9.25629571,27.0049813 9.32615674,27.2112966 9.29122622,27.4105488 L8.48782441,32.1286634 C8.44701086,32.3613722 8.54040402,32.5966832 8.73160262,32.7349702 C8.91875664,32.8728854 9.16841789,32.8907289 9.37873635,32.7821811 L13.5674565,30.5528608 C13.7483598,30.458439 13.9572075,30.458439 14.1384785,30.5528608 L18.3275663,32.7821811 C18.5375171,32.8907289 18.787546,32.8728854 18.9743323,32.7349702 C19.1658986,32.5966832 19.2589241,32.3613722 19.2181105,32.1286634 L18.4150764,27.4105488 C18.3797782,27.2112966 18.4500069,27.0053531 18.5959797,26.8633487 L21.981298,23.5217845 C22.1449199,23.3600779 22.2088979,23.1136148 22.1331538,22.8898278 C22.0629251,22.6660408 21.8717265,22.5013603 21.6378759,22.469019 L16.9601286,21.7809296 C16.7571639,21.7515622 16.587659,21.6251709 16.5001489,21.4430186 L14.3999058,17.1512889 C14.3006296,16.9393976 14.0858988,16.8066867 13.8538867,16.8066867 C13.6200361,16.8066867 13.4053054,16.9397693 13.3063969,17.1512889 L11.2061538,21.4430186 C11.1186436,21.6251709 10.9491387,21.7515622 10.746174,21.7809296 L6.06805903,22.469019 C5.83420843,22.5013603 5.64300983,22.6660408 5.57278111,22.8898278 C5.49703705,23.1136148 5.56138273,23.3600779 5.72463692,23.5217845 L9.10995524,26.8633487 L9.10995524,26.8633487 Z" id="Shape" fill="#F6AF39"></path>
                    <path d="M42.3571529,21.2611198 C42.5034933,21.4027524 42.5733544,21.6090677 42.5384238,21.80832 L41.735022,26.5264346 C41.6942085,26.7591433 41.7876016,26.9944543 41.9788002,27.1327413 C42.1659543,27.2706565 42.4156155,27.2885 42.625934,27.1799522 L46.8146541,24.9506319 C46.9955574,24.8562101 47.2044051,24.8562101 47.3856761,24.9506319 L51.5747639,27.1799522 C51.7847147,27.2885 52.0347436,27.2706565 52.2215299,27.1327413 C52.4130962,26.9944543 52.5061217,26.7591433 52.4653082,26.5264346 L51.662274,21.80832 C51.6269758,21.6090677 51.6972046,21.4031242 51.8431773,21.2611198 L55.2284956,17.9195556 C55.3921175,17.7578491 55.4560955,17.5113859 55.3803515,17.2875989 C55.3101227,17.0638119 55.1189241,16.8991314 54.8850735,16.8667901 L50.2073262,16.1787007 C50.0043615,16.1493333 49.8348566,16.022942 49.7473465,15.8407897 L47.6471034,11.5490601 C47.5478272,11.3371687 47.3330965,11.2044578 47.1010843,11.2044578 C46.8672337,11.2044578 46.652503,11.3375404 46.5535945,11.5490601 L44.4533514,15.8407897 C44.3658413,16.022942 44.1963363,16.1493333 43.9933717,16.1787007 L39.3152567,16.8667901 C39.0814061,16.8991314 38.8902075,17.0638119 38.8199787,17.2875989 C38.7442347,17.5113859 38.8085804,17.7578491 38.9718346,17.9195556 L42.3571529,21.2611198 L42.3571529,21.2611198 Z" id="Shape-Copy" fill="#F6AF39"></path>
                    <path d="M28.5041539,52.0733787 C28.6504943,52.2150113 28.7203554,52.4213266 28.6854248,52.6205788 L27.882023,57.3386934 C27.8412095,57.5714022 27.9346026,57.8067132 28.1258012,57.9450002 C28.3129553,58.0829154 28.5626165,58.1007589 28.772935,57.992211 L32.9616551,55.7628907 C33.1425584,55.668469 33.3514061,55.668469 33.5326771,55.7628907 L37.7217649,57.992211 C37.9317157,58.1007589 38.1817446,58.0829154 38.3685309,57.9450002 C38.5600972,57.8067132 38.6531227,57.5714022 38.6123092,57.3386934 L37.809275,52.6205788 C37.7739768,52.4213266 37.8442055,52.215383 37.9901783,52.0733787 L41.3754966,48.7318145 C41.5391185,48.5701079 41.6030965,48.3236448 41.5273524,48.0998578 C41.4571237,47.8760708 41.2659251,47.7113903 41.0320745,47.6790489 L36.3543272,46.9909596 C36.1513625,46.9615922 35.9818576,46.8352008 35.8943475,46.6530486 L33.7941044,42.3613189 C33.6948282,42.1494276 33.4800975,42.0167166 33.2480853,42.0167166 C33.0142347,42.0167166 32.799504,42.1497993 32.7005955,42.3613189 L30.6003524,46.6530486 C30.5128422,46.8352008 30.3433373,46.9615922 30.1403727,46.9909596 L25.4622576,47.6790489 C25.228407,47.7113903 25.0372084,47.8760708 24.9669797,48.0998578 C24.8912357,48.3236448 24.9555813,48.5701079 25.1188355,48.7318145 L28.5041539,52.0733787 L28.5041539,52.0733787 Z" id="Shape-Copy-2" fill="#F5A623" opacity="0.899999976"></path>
                </g>
            </g>
        </g>
    </g>
</svg>